<?xml version="1.0" encoding="UTF-8" standalone="no"?>
<!DOCTYPE svg PUBLIC "-//W3C//DTD SVG 1.1//EN"
 "http://www.w3.org/Graphics/SVG/1.1/DTD/svg11.dtd">
<!-- Generated by graphviz version 2.44.1 (20200629.0846)
 -->
<!-- Title: classes Pages: 1 -->
<svg width="336pt" height="1043pt"
 viewBox="0.00 0.00 336.00 1043.00" xmlns="http://www.w3.org/2000/svg" xmlns:xlink="http://www.w3.org/1999/xlink">
<g id="graph0" class="graph" transform="scale(1 1) rotate(0) translate(4 1039)">
<title>classes</title>
<polygon fill="white" stroke="transparent" points="-4,4 -4,-1039 332,-1039 332,4 -4,4"/>
<!-- ElementAction -->
<g id="node1" class="node">
<title>ElementAction</title>
<polygon fill="#9ec6e0" stroke="#9ec6e0" points="186.5,-279 106.5,-279 106.5,-243 186.5,-243 186.5,-279"/>
<text text-anchor="middle" x="146.5" y="-258.5" font-family="Sans" font-size="10.00" fill="#000000">ElementAction</text>
</g>
<!-- MosFile -->
<g id="node2" class="node">
<title>MosFile</title>
<polygon fill="#9ec6e0" stroke="#9ec6e0" points="54,-657 0,-657 0,-621 54,-621 54,-657"/>
<text text-anchor="middle" x="27" y="-636.5" font-family="Sans" font-size="10.00" fill="#000000">MosFile</text>
</g>
<!-- ElementAction&#45;&gt;MosFile -->
<g id="edge11" class="edge">
<title>ElementAction&#45;&gt;MosFile</title>
<path fill="none" stroke="black" d="M106.49,-274.05C100.19,-277.69 94.32,-282.27 90,-288 51.45,-339.08 34.72,-536.73 29.72,-610.78"/>
<polygon fill="black" stroke="black" points="26.22,-610.57 29.06,-620.77 33.21,-611.03 26.22,-610.57"/>
</g>
<!-- EAItemDelete -->
<g id="node3" class="node">
<title>EAItemDelete</title>
<polygon fill="#2980b9" stroke="#2980b9" points="322.5,-522 244.5,-522 244.5,-486 322.5,-486 322.5,-522"/>
<text text-anchor="middle" x="283.5" y="-501.5" font-family="Sans" font-size="10.00" fill="#ffffff">EAItemDelete</text>
</g>
<!-- EAItemDelete&#45;&gt;ElementAction -->
<g id="edge1" class="edge">
<title>EAItemDelete&#45;&gt;ElementAction</title>
<path fill="none" stroke="black" d="M246.97,-485.75C243.95,-483.14 241.21,-480.22 239,-477 190.59,-406.51 254.96,-355.91 203,-288 200.72,-285.02 198.02,-282.34 195.06,-279.95"/>
<polygon fill="black" stroke="black" points="196.96,-277.01 186.73,-274.26 193.01,-282.79 196.96,-277.01"/>
</g>
<!-- EAItemInsert -->
<g id="node4" class="node">
<title>EAItemInsert</title>
<polygon fill="#2980b9" stroke="#2980b9" points="320.5,-468 246.5,-468 246.5,-432 320.5,-432 320.5,-468"/>
<text text-anchor="middle" x="283.5" y="-447.5" font-family="Sans" font-size="10.00" fill="#ffffff">EAItemInsert</text>
</g>
<!-- EAItemInsert&#45;&gt;ElementAction -->
<g id="edge2" class="edge">
<title>EAItemInsert&#45;&gt;ElementAction</title>
<path fill="none" stroke="black" d="M247.62,-431.93C244.4,-429.26 241.44,-426.28 239,-423 202.02,-373.12 242.49,-335.92 203,-288 200.72,-285.23 198.08,-282.72 195.22,-280.45"/>
<polygon fill="black" stroke="black" points="196.93,-277.39 186.69,-274.69 193.01,-283.19 196.93,-277.39"/>
</g>
<!-- EAItemMove -->
<g id="node5" class="node">
<title>EAItemMove</title>
<polygon fill="#2980b9" stroke="#2980b9" points="320.5,-414 246.5,-414 246.5,-378 320.5,-378 320.5,-414"/>
<text text-anchor="middle" x="283.5" y="-393.5" font-family="Sans" font-size="10.00" fill="#ffffff">EAItemMove</text>
</g>
<!-- EAItemMove&#45;&gt;ElementAction -->
<g id="edge3" class="edge">
<title>EAItemMove&#45;&gt;ElementAction</title>
<path fill="none" stroke="black" d="M248.57,-377.86C245.08,-375.18 241.8,-372.22 239,-369 213.12,-339.3 230.37,-316.33 203,-288 200.58,-285.5 197.88,-283.19 195.02,-281.08"/>
<polygon fill="black" stroke="black" points="196.87,-278.11 186.57,-275.62 193.07,-283.99 196.87,-278.11"/>
</g>
<!-- EAItemReplace -->
<g id="node6" class="node">
<title>EAItemReplace</title>
<polygon fill="#2980b9" stroke="#2980b9" points="326.5,-360 240.5,-360 240.5,-324 326.5,-324 326.5,-360"/>
<text text-anchor="middle" x="283.5" y="-339.5" font-family="Sans" font-size="10.00" fill="#ffffff">EAItemReplace</text>
</g>
<!-- EAItemReplace&#45;&gt;ElementAction -->
<g id="edge4" class="edge">
<title>EAItemReplace&#45;&gt;ElementAction</title>
<path fill="none" stroke="black" d="M252.33,-323.75C247.82,-320.89 243.26,-317.91 239,-315 222.49,-303.72 220.07,-298.42 203,-288 200.56,-286.51 198.02,-285.03 195.43,-283.59"/>
<polygon fill="black" stroke="black" points="196.99,-280.45 186.52,-278.81 193.68,-286.62 196.99,-280.45"/>
</g>
<!-- EAItemSwap -->
<g id="node7" class="node">
<title>EAItemSwap</title>
<polygon fill="#2980b9" stroke="#2980b9" points="320.5,-306 246.5,-306 246.5,-270 320.5,-270 320.5,-306"/>
<text text-anchor="middle" x="283.5" y="-285.5" font-family="Sans" font-size="10.00" fill="#ffffff">EAItemSwap</text>
</g>
<!-- EAItemSwap&#45;&gt;ElementAction -->
<g id="edge5" class="edge">
<title>EAItemSwap&#45;&gt;ElementAction</title>
<path fill="none" stroke="black" d="M246.32,-280.76C231.06,-277.71 213.05,-274.11 196.61,-270.82"/>
<polygon fill="black" stroke="black" points="197.11,-267.35 186.62,-268.82 195.74,-274.22 197.11,-267.35"/>
</g>
<!-- EAStoryDelete -->
<g id="node8" class="node">
<title>EAStoryDelete</title>
<polygon fill="#2980b9" stroke="#2980b9" points="324.5,-252 242.5,-252 242.5,-216 324.5,-216 324.5,-252"/>
<text text-anchor="middle" x="283.5" y="-231.5" font-family="Sans" font-size="10.00" fill="#ffffff">EAStoryDelete</text>
</g>
<!-- EAStoryDelete&#45;&gt;ElementAction -->
<g id="edge6" class="edge">
<title>EAStoryDelete&#45;&gt;ElementAction</title>
<path fill="none" stroke="black" d="M242.36,-242.03C228.09,-244.88 211.85,-248.13 196.9,-251.12"/>
<polygon fill="black" stroke="black" points="195.91,-247.75 186.79,-253.14 197.28,-254.61 195.91,-247.75"/>
</g>
<!-- EAStoryInsert -->
<g id="node9" class="node">
<title>EAStoryInsert</title>
<polygon fill="#2980b9" stroke="#2980b9" points="322.5,-198 244.5,-198 244.5,-162 322.5,-162 322.5,-198"/>
<text text-anchor="middle" x="283.5" y="-177.5" font-family="Sans" font-size="10.00" fill="#ffffff">EAStoryInsert</text>
</g>
<!-- EAStoryInsert&#45;&gt;ElementAction -->
<g id="edge7" class="edge">
<title>EAStoryInsert&#45;&gt;ElementAction</title>
<path fill="none" stroke="black" d="M252.2,-198.18C232.75,-209.85 207.3,-225.12 186.36,-237.68"/>
<polygon fill="black" stroke="black" points="184.47,-234.74 177.7,-242.88 188.07,-240.74 184.47,-234.74"/>
</g>
<!-- EAStoryMove -->
<g id="node10" class="node">
<title>EAStoryMove</title>
<polygon fill="#2980b9" stroke="#2980b9" points="322,-144 245,-144 245,-108 322,-108 322,-144"/>
<text text-anchor="middle" x="283.5" y="-123.5" font-family="Sans" font-size="10.00" fill="#ffffff">EAStoryMove</text>
</g>
<!-- EAStoryMove&#45;&gt;ElementAction -->
<g id="edge8" class="edge">
<title>EAStoryMove&#45;&gt;ElementAction</title>
<path fill="none" stroke="black" d="M250.78,-144.05C246.67,-146.85 242.63,-149.87 239,-153 210.62,-177.48 183.58,-211.12 166.35,-234.32"/>
<polygon fill="black" stroke="black" points="163.33,-232.53 160.25,-242.66 168.98,-236.66 163.33,-232.53"/>
</g>
<!-- EAStoryReplace -->
<g id="node11" class="node">
<title>EAStoryReplace</title>
<polygon fill="#2980b9" stroke="#2980b9" points="328,-90 239,-90 239,-54 328,-54 328,-90"/>
<text text-anchor="middle" x="283.5" y="-69.5" font-family="Sans" font-size="10.00" fill="#ffffff">EAStoryReplace</text>
</g>
<!-- EAStoryReplace&#45;&gt;ElementAction -->
<g id="edge9" class="edge">
<title>EAStoryReplace&#45;&gt;ElementAction</title>
<path fill="none" stroke="black" d="M249.31,-90.08C245.61,-92.81 242.08,-95.79 239,-99 200.43,-139.2 172.3,-198.77 158.05,-233.36"/>
<polygon fill="black" stroke="black" points="154.72,-232.24 154.24,-242.83 161.22,-234.86 154.72,-232.24"/>
</g>
<!-- EAStorySwap -->
<g id="node12" class="node">
<title>EAStorySwap</title>
<polygon fill="#2980b9" stroke="#2980b9" points="322.5,-36 244.5,-36 244.5,0 322.5,0 322.5,-36"/>
<text text-anchor="middle" x="283.5" y="-15.5" font-family="Sans" font-size="10.00" fill="#ffffff">EAStorySwap</text>
</g>
<!-- EAStorySwap&#45;&gt;ElementAction -->
<g id="edge10" class="edge">
<title>EAStorySwap&#45;&gt;ElementAction</title>
<path fill="none" stroke="black" d="M248.51,-36.09C245.04,-38.78 241.77,-41.76 239,-45 190.21,-102 164.25,-188.82 153.54,-233.03"/>
<polygon fill="black" stroke="black" points="150.12,-232.27 151.25,-242.8 156.94,-233.86 150.12,-232.27"/>
</g>
<!-- ItemDelete -->
<g id="node13" class="node">
<title>ItemDelete</title>
<polygon fill="#2980b9" stroke="#2980b9" points="179,-1035 114,-1035 114,-999 179,-999 179,-1035"/>
<text text-anchor="middle" x="146.5" y="-1014.5" font-family="Sans" font-size="10.00" fill="#ffffff">ItemDelete</text>
</g>
<!-- ItemDelete&#45;&gt;MosFile -->
<g id="edge12" class="edge">
<title>ItemDelete&#45;&gt;MosFile</title>
<path fill="none" stroke="black" d="M113.95,-1007.78C104.97,-1003.69 96,-997.95 90,-990 51.45,-938.92 34.72,-741.27 29.72,-667.22"/>
<polygon fill="black" stroke="black" points="33.21,-666.97 29.06,-657.23 26.22,-667.43 33.21,-666.97"/>
</g>
<!-- ItemInsert -->
<g id="node14" class="node">
<title>ItemInsert</title>
<polygon fill="#2980b9" stroke="#2980b9" points="177,-981 116,-981 116,-945 177,-945 177,-981"/>
<text text-anchor="middle" x="146.5" y="-960.5" font-family="Sans" font-size="10.00" fill="#ffffff">ItemInsert</text>
</g>
<!-- ItemInsert&#45;&gt;MosFile -->
<g id="edge13" class="edge">
<title>ItemInsert&#45;&gt;MosFile</title>
<path fill="none" stroke="black" d="M115.84,-954.43C106.3,-950.3 96.52,-944.37 90,-936 57.26,-893.98 37.56,-732.99 30.72,-667.23"/>
<polygon fill="black" stroke="black" points="34.19,-666.77 29.7,-657.17 27.23,-667.47 34.19,-666.77"/>
</g>
<!-- ItemMoveMultiple -->
<g id="node15" class="node">
<title>ItemMoveMultiple</title>
<polygon fill="#2980b9" stroke="#2980b9" points="193.5,-927 99.5,-927 99.5,-891 193.5,-891 193.5,-927"/>
<text text-anchor="middle" x="146.5" y="-906.5" font-family="Sans" font-size="10.00" fill="#ffffff">ItemMoveMultiple</text>
</g>
<!-- ItemMoveMultiple&#45;&gt;MosFile -->
<g id="edge14" class="edge">
<title>ItemMoveMultiple&#45;&gt;MosFile</title>
<path fill="none" stroke="black" d="M99.43,-890.87C95.92,-888.27 92.71,-885.32 90,-882 38.08,-818.31 29.02,-716.46 27.84,-667.33"/>
<polygon fill="black" stroke="black" points="31.34,-667.07 27.69,-657.12 24.34,-667.17 31.34,-667.07"/>
</g>
<!-- ItemReplace -->
<g id="node16" class="node">
<title>ItemReplace</title>
<polygon fill="#2980b9" stroke="#2980b9" points="182.5,-873 110.5,-873 110.5,-837 182.5,-837 182.5,-873"/>
<text text-anchor="middle" x="146.5" y="-852.5" font-family="Sans" font-size="10.00" fill="#ffffff">ItemReplace</text>
</g>
<!-- ItemReplace&#45;&gt;MosFile -->
<g id="edge15" class="edge">
<title>ItemReplace&#45;&gt;MosFile</title>
<path fill="none" stroke="black" d="M110.29,-843.13C102.79,-839.26 95.5,-834.3 90,-828 49.34,-781.41 35.23,-707.51 30.42,-667.32"/>
<polygon fill="black" stroke="black" points="33.87,-666.72 29.31,-657.16 26.91,-667.47 33.87,-666.72"/>
</g>
<!-- MetaDataReplace -->
<g id="node17" class="node">
<title>MetaDataReplace</title>
<polygon fill="#2980b9" stroke="#2980b9" points="194,-819 99,-819 99,-783 194,-783 194,-819"/>
<text text-anchor="middle" x="146.5" y="-798.5" font-family="Sans" font-size="10.00" fill="#ffffff">MetaDataReplace</text>
</g>
<!-- MetaDataReplace&#45;&gt;MosFile -->
<g id="edge16" class="edge">
<title>MetaDataReplace&#45;&gt;MosFile</title>
<path fill="none" stroke="black" d="M100.86,-782.87C96.93,-780.24 93.22,-777.29 90,-774 60.48,-743.82 43.36,-697.03 34.85,-667.22"/>
<polygon fill="black" stroke="black" points="38.2,-666.17 32.2,-657.44 31.44,-668.01 38.2,-666.17"/>
</g>
<!-- RunningOrder -->
<g id="node18" class="node">
<title>RunningOrder</title>
<polygon fill="#2980b9" stroke="#2980b9" points="185,-765 108,-765 108,-729 185,-729 185,-765"/>
<text text-anchor="middle" x="146.5" y="-744.5" font-family="Sans" font-size="10.00" fill="#ffffff">RunningOrder</text>
</g>
<!-- RunningOrder&#45;&gt;MosFile -->
<g id="edge17" class="edge">
<title>RunningOrder&#45;&gt;MosFile</title>
<path fill="none" stroke="black" d="M107.92,-731.7C101.63,-728.32 95.39,-724.41 90,-720 71.32,-704.73 54.96,-682.77 43.74,-665.57"/>
<polygon fill="black" stroke="black" points="46.67,-663.64 38.36,-657.06 40.75,-667.39 46.67,-663.64"/>
</g>
<!-- RunningOrderEnd -->
<g id="node19" class="node">
<title>RunningOrderEnd</title>
<polygon fill="#2980b9" stroke="#2980b9" points="193.5,-711 99.5,-711 99.5,-675 193.5,-675 193.5,-711"/>
<text text-anchor="middle" x="146.5" y="-690.5" font-family="Sans" font-size="10.00" fill="#ffffff">RunningOrderEnd</text>
</g>
<!-- RunningOrderEnd&#45;&gt;MosFile -->
<g id="edge18" class="edge">
<title>RunningOrderEnd&#45;&gt;MosFile</title>
<path fill="none" stroke="black" d="M106.05,-674.87C92.31,-668.56 77,-661.52 63.59,-655.36"/>
<polygon fill="black" stroke="black" points="64.77,-652.05 54.22,-651.05 61.85,-658.41 64.77,-652.05"/>
</g>
<!-- RunningOrderReplace -->
<g id="node20" class="node">
<title>RunningOrderReplace</title>
<polygon fill="#2980b9" stroke="#2980b9" points="203,-657 90,-657 90,-621 203,-621 203,-657"/>
<text text-anchor="middle" x="146.5" y="-636.5" font-family="Sans" font-size="10.00" fill="#ffffff">RunningOrderReplace</text>
</g>
<!-- RunningOrderReplace&#45;&gt;MosFile -->
<g id="edge19" class="edge">
<title>RunningOrderReplace&#45;&gt;MosFile</title>
<path fill="none" stroke="black" d="M89.85,-639C81.19,-639 72.43,-639 64.35,-639"/>
<polygon fill="black" stroke="black" points="64.17,-635.5 54.17,-639 64.17,-642.5 64.17,-635.5"/>
</g>
<!-- StoryAppend -->
<g id="node21" class="node">
<title>StoryAppend</title>
<polygon fill="#2980b9" stroke="#2980b9" points="183,-603 110,-603 110,-567 183,-567 183,-603"/>
<text text-anchor="middle" x="146.5" y="-582.5" font-family="Sans" font-size="10.00" fill="#ffffff">StoryAppend</text>
</g>
<!-- StoryAppend&#45;&gt;MosFile -->
<g id="edge20" class="edge">
<title>StoryAppend&#45;&gt;MosFile</title>
<path fill="none" stroke="black" d="M109.93,-601.35C95.19,-608.12 78.13,-615.96 63.41,-622.73"/>
<polygon fill="black" stroke="black" points="61.75,-619.64 54.12,-627 64.67,-626 61.75,-619.64"/>
</g>
<!-- StoryDelete -->
<g id="node22" class="node">
<title>StoryDelete</title>
<polygon fill="#2980b9" stroke="#2980b9" points="180.5,-549 112.5,-549 112.5,-513 180.5,-513 180.5,-549"/>
<text text-anchor="middle" x="146.5" y="-528.5" font-family="Sans" font-size="10.00" fill="#ffffff">StoryDelete</text>
</g>
<!-- StoryDelete&#45;&gt;MosFile -->
<g id="edge21" class="edge">
<title>StoryDelete&#45;&gt;MosFile</title>
<path fill="none" stroke="black" d="M112.28,-544.05C104.55,-547.9 96.64,-552.58 90,-558 71.32,-573.27 54.96,-595.23 43.74,-612.43"/>
<polygon fill="black" stroke="black" points="40.75,-610.61 38.36,-620.94 46.67,-614.36 40.75,-610.61"/>
</g>
<!-- StoryInsert -->
<g id="node23" class="node">
<title>StoryInsert</title>
<polygon fill="#2980b9" stroke="#2980b9" points="179,-495 114,-495 114,-459 179,-459 179,-495"/>
<text text-anchor="middle" x="146.5" y="-474.5" font-family="Sans" font-size="10.00" fill="#ffffff">StoryInsert</text>
</g>
<!-- StoryInsert&#45;&gt;MosFile -->
<g id="edge22" class="edge">
<title>StoryInsert&#45;&gt;MosFile</title>
<path fill="none" stroke="black" d="M113.97,-487.77C105.41,-491.84 96.67,-497.18 90,-504 60.48,-534.18 43.36,-580.97 34.85,-610.78"/>
<polygon fill="black" stroke="black" points="31.44,-609.99 32.2,-620.56 38.2,-611.83 31.44,-609.99"/>
</g>
<!-- StoryMove -->
<g id="node24" class="node">
<title>StoryMove</title>
<polygon fill="#2980b9" stroke="#2980b9" points="178.5,-441 114.5,-441 114.5,-405 178.5,-405 178.5,-441"/>
<text text-anchor="middle" x="146.5" y="-420.5" font-family="Sans" font-size="10.00" fill="#ffffff">StoryMove</text>
</g>
<!-- StoryMove&#45;&gt;MosFile -->
<g id="edge23" class="edge">
<title>StoryMove&#45;&gt;MosFile</title>
<path fill="none" stroke="black" d="M114.33,-432.9C105.47,-437 96.48,-442.57 90,-450 49.34,-496.59 35.23,-570.49 30.42,-610.68"/>
<polygon fill="black" stroke="black" points="26.91,-610.53 29.31,-620.84 33.87,-611.28 26.91,-610.53"/>
</g>
<!-- StoryReplace -->
<g id="node25" class="node">
<title>StoryReplace</title>
<polygon fill="#2980b9" stroke="#2980b9" points="184.5,-387 108.5,-387 108.5,-351 184.5,-351 184.5,-387"/>
<text text-anchor="middle" x="146.5" y="-366.5" font-family="Sans" font-size="10.00" fill="#ffffff">StoryReplace</text>
</g>
<!-- StoryReplace&#45;&gt;MosFile -->
<g id="edge24" class="edge">
<title>StoryReplace&#45;&gt;MosFile</title>
<path fill="none" stroke="black" d="M108.26,-381.53C101.4,-385.27 94.87,-390.02 90,-396 38.08,-459.69 29.02,-561.54 27.84,-610.67"/>
<polygon fill="black" stroke="black" points="24.34,-610.83 27.69,-620.88 31.34,-610.93 24.34,-610.83"/>
</g>
<!-- StorySend -->
<g id="node26" class="node">
<title>StorySend</title>
<polygon fill="#2980b9" stroke="#2980b9" points="177.5,-333 115.5,-333 115.5,-297 177.5,-297 177.5,-333"/>
<text text-anchor="middle" x="146.5" y="-312.5" font-family="Sans" font-size="10.00" fill="#ffffff">StorySend</text>
</g>
<!-- StorySend&#45;&gt;MosFile -->
<g id="edge25" class="edge">
<title>StorySend&#45;&gt;MosFile</title>
<path fill="none" stroke="black" d="M115.26,-323.82C105.9,-327.94 96.39,-333.8 90,-342 57.26,-384.02 37.56,-545.01 30.72,-610.77"/>
<polygon fill="black" stroke="black" points="27.23,-610.53 29.7,-620.83 34.19,-611.23 27.23,-610.53"/>
</g>
</g>
</svg>
