<?xml version="1.0" encoding="UTF-8" standalone="no"?>
<!DOCTYPE svg PUBLIC "-//W3C//DTD SVG 1.1//EN"
 "http://www.w3.org/Graphics/SVG/1.1/DTD/svg11.dtd">
<!-- Generated by graphviz version 2.43.0 (0)
 -->
<!-- Title: classes Pages: 1 -->
<svg width="362pt" height="989pt"
 viewBox="0.00 0.00 362.00 989.00" xmlns="http://www.w3.org/2000/svg" xmlns:xlink="http://www.w3.org/1999/xlink">
<g id="graph0" class="graph" transform="scale(1 1) rotate(0) translate(4 985)">
<title>classes</title>
<polygon fill="white" stroke="transparent" points="-4,4 -4,-985 358,-985 358,4 -4,4"/>
<!-- ElementAction -->
<g id="node1" class="node">
<title>ElementAction</title>
<polygon fill="#9ec6e0" stroke="#9ec6e0" points="187,-279 99,-279 99,-243 187,-243 187,-279"/>
<text text-anchor="middle" x="143" y="-258.5" font-family="Sans" font-size="10.00" fill="#000000">ElementAction</text>
</g>
<!-- MosFile -->
<g id="node2" class="node">
<title>MosFile</title>
<polygon fill="#9ec6e0" stroke="#9ec6e0" points="54,-630 0,-630 0,-594 54,-594 54,-630"/>
<text text-anchor="middle" x="27" y="-609.5" font-family="Sans" font-size="10.00" fill="#000000">MosFile</text>
</g>
<!-- ElementAction&#45;&gt;MosFile -->
<g id="edge11" class="edge">
<title>ElementAction&#45;&gt;MosFile</title>
<path fill="none" stroke="black" d="M98.6,-279.26C95.37,-281.84 92.43,-284.74 90,-288 55,-334.97 36.35,-513.74 30.26,-583.7"/>
<polygon fill="black" stroke="black" points="26.75,-583.69 29.4,-593.95 33.73,-584.28 26.75,-583.69"/>
</g>
<!-- EAItemDelete -->
<g id="node3" class="node">
<title>EAItemDelete</title>
<polygon fill="#2980b9" stroke="#2980b9" points="335,-522 251,-522 251,-486 335,-486 335,-522"/>
<text text-anchor="middle" x="293" y="-501.5" font-family="Sans" font-size="10.00" fill="#ffffff">EAItemDelete</text>
</g>
<!-- EAItemDelete&#45;&gt;ElementAction -->
<g id="edge1" class="edge">
<title>EAItemDelete&#45;&gt;ElementAction</title>
<path fill="none" stroke="black" d="M250.85,-491.89C243.68,-488.14 236.95,-483.28 232,-477 179.03,-409.87 247.07,-356.58 196,-288 195.62,-287.49 195.23,-286.99 194.82,-286.5"/>
<polygon fill="black" stroke="black" points="197,-283.73 187.4,-279.26 192.12,-288.74 197,-283.73"/>
</g>
<!-- EAItemInsert -->
<g id="node4" class="node">
<title>EAItemInsert</title>
<polygon fill="#2980b9" stroke="#2980b9" points="333,-468 253,-468 253,-432 333,-432 333,-468"/>
<text text-anchor="middle" x="293" y="-447.5" font-family="Sans" font-size="10.00" fill="#ffffff">EAItemInsert</text>
</g>
<!-- EAItemInsert&#45;&gt;ElementAction -->
<g id="edge2" class="edge">
<title>EAItemInsert&#45;&gt;ElementAction</title>
<path fill="none" stroke="black" d="M252.75,-438.39C244.99,-434.55 237.55,-429.53 232,-423 191.79,-375.68 234.86,-336.43 196,-288 195.42,-287.27 194.81,-286.56 194.17,-285.87"/>
<polygon fill="black" stroke="black" points="196.42,-283.18 186.65,-279.07 191.73,-288.37 196.42,-283.18"/>
</g>
<!-- EAItemMove -->
<g id="node5" class="node">
<title>EAItemMove</title>
<polygon fill="#2980b9" stroke="#2980b9" points="332.5,-414 253.5,-414 253.5,-378 332.5,-378 332.5,-414"/>
<text text-anchor="middle" x="293" y="-393.5" font-family="Sans" font-size="10.00" fill="#ffffff">EAItemMove</text>
</g>
<!-- EAItemMove&#45;&gt;ElementAction -->
<g id="edge3" class="edge">
<title>EAItemMove&#45;&gt;ElementAction</title>
<path fill="none" stroke="black" d="M253.5,-383.7C245.7,-379.9 238.04,-375.07 232,-369 204.21,-341.08 223,-316.69 196,-288 195.23,-287.19 194.44,-286.39 193.61,-285.62"/>
<polygon fill="black" stroke="black" points="195.59,-282.72 185.61,-279.18 191.21,-288.17 195.59,-282.72"/>
</g>
<!-- EAItemReplace -->
<g id="node6" class="node">
<title>EAItemReplace</title>
<polygon fill="#2980b9" stroke="#2980b9" points="338.5,-360 247.5,-360 247.5,-324 338.5,-324 338.5,-360"/>
<text text-anchor="middle" x="293" y="-339.5" font-family="Sans" font-size="10.00" fill="#ffffff">EAItemReplace</text>
</g>
<!-- EAItemReplace&#45;&gt;ElementAction -->
<g id="edge4" class="edge">
<title>EAItemReplace&#45;&gt;ElementAction</title>
<path fill="none" stroke="black" d="M248.81,-323.95C243.05,-321.15 237.31,-318.14 232,-315 214.78,-304.83 212.93,-298.64 196,-288 194.04,-286.77 192.02,-285.54 189.96,-284.33"/>
<polygon fill="black" stroke="black" points="191.22,-281.02 180.79,-279.14 187.77,-287.11 191.22,-281.02"/>
</g>
<!-- EAItemSwap -->
<g id="node7" class="node">
<title>EAItemSwap</title>
<polygon fill="#2980b9" stroke="#2980b9" points="332,-306 254,-306 254,-270 332,-270 332,-306"/>
<text text-anchor="middle" x="293" y="-285.5" font-family="Sans" font-size="10.00" fill="#ffffff">EAItemSwap</text>
</g>
<!-- EAItemSwap&#45;&gt;ElementAction -->
<g id="edge5" class="edge">
<title>EAItemSwap&#45;&gt;ElementAction</title>
<path fill="none" stroke="black" d="M253.89,-281.05C236.61,-277.89 215.88,-274.11 197.11,-270.69"/>
<polygon fill="black" stroke="black" points="197.68,-267.24 187.21,-268.88 196.42,-274.12 197.68,-267.24"/>
</g>
<!-- EAStoryDelete -->
<g id="node8" class="node">
<title>EAStoryDelete</title>
<polygon fill="#2980b9" stroke="#2980b9" points="336.5,-252 249.5,-252 249.5,-216 336.5,-216 336.5,-252"/>
<text text-anchor="middle" x="293" y="-231.5" font-family="Sans" font-size="10.00" fill="#ffffff">EAStoryDelete</text>
</g>
<!-- EAStoryDelete&#45;&gt;ElementAction -->
<g id="edge6" class="edge">
<title>EAStoryDelete&#45;&gt;ElementAction</title>
<path fill="none" stroke="black" d="M249.19,-241.81C232.92,-244.78 214.19,-248.2 197.08,-251.32"/>
<polygon fill="black" stroke="black" points="196.43,-247.88 187.22,-253.11 197.69,-254.76 196.43,-247.88"/>
</g>
<!-- EAStoryInsert -->
<g id="node9" class="node">
<title>EAStoryInsert</title>
<polygon fill="#2980b9" stroke="#2980b9" points="334.5,-198 251.5,-198 251.5,-162 334.5,-162 334.5,-198"/>
<text text-anchor="middle" x="293" y="-177.5" font-family="Sans" font-size="10.00" fill="#ffffff">EAStoryInsert</text>
</g>
<!-- EAStoryInsert&#45;&gt;ElementAction -->
<g id="edge7" class="edge">
<title>EAStoryInsert&#45;&gt;ElementAction</title>
<path fill="none" stroke="black" d="M251.32,-197.46C244.79,-200.5 238.16,-203.74 232,-207 214.65,-216.18 196.04,-227.39 180.42,-237.21"/>
<polygon fill="black" stroke="black" points="178.17,-234.49 171.61,-242.8 181.93,-240.4 178.17,-234.49"/>
</g>
<!-- EAStoryMove -->
<g id="node10" class="node">
<title>EAStoryMove</title>
<polygon fill="#2980b9" stroke="#2980b9" points="334,-144 252,-144 252,-108 334,-108 334,-144"/>
<text text-anchor="middle" x="293" y="-123.5" font-family="Sans" font-size="10.00" fill="#ffffff">EAStoryMove</text>
</g>
<!-- EAStoryMove&#45;&gt;ElementAction -->
<g id="edge8" class="edge">
<title>EAStoryMove&#45;&gt;ElementAction</title>
<path fill="none" stroke="black" d="M251.79,-140.95C244.86,-144.39 237.98,-148.41 232,-153 202.41,-175.73 176.52,-210.29 160.62,-234.17"/>
<polygon fill="black" stroke="black" points="157.56,-232.46 155.03,-242.75 163.42,-236.28 157.56,-232.46"/>
</g>
<!-- EAStoryReplace -->
<g id="node11" class="node">
<title>EAStoryReplace</title>
<polygon fill="#2980b9" stroke="#2980b9" points="340,-90 246,-90 246,-54 340,-54 340,-90"/>
<text text-anchor="middle" x="293" y="-69.5" font-family="Sans" font-size="10.00" fill="#ffffff">EAStoryReplace</text>
</g>
<!-- EAStoryReplace&#45;&gt;ElementAction -->
<g id="edge9" class="edge">
<title>EAStoryReplace&#45;&gt;ElementAction</title>
<path fill="none" stroke="black" d="M245.8,-88.94C240.83,-91.85 236.1,-95.19 232,-99 191.32,-136.75 165.38,-197.67 152.87,-233.07"/>
<polygon fill="black" stroke="black" points="149.48,-232.16 149.56,-242.76 156.1,-234.43 149.48,-232.16"/>
</g>
<!-- EAStorySwap -->
<g id="node12" class="node">
<title>EAStorySwap</title>
<polygon fill="#2980b9" stroke="#2980b9" points="333.5,-36 252.5,-36 252.5,0 333.5,0 333.5,-36"/>
<text text-anchor="middle" x="293" y="-15.5" font-family="Sans" font-size="10.00" fill="#ffffff">EAStorySwap</text>
</g>
<!-- EAStorySwap&#45;&gt;ElementAction -->
<g id="edge10" class="edge">
<title>EAStorySwap&#45;&gt;ElementAction</title>
<path fill="none" stroke="black" d="M252.42,-30.62C244.95,-34.36 237.71,-39.08 232,-45 179.95,-98.96 157.16,-187.86 148.53,-232.93"/>
<polygon fill="black" stroke="black" points="145.06,-232.42 146.72,-242.88 151.95,-233.67 145.06,-232.42"/>
</g>
<!-- ItemDelete -->
<g id="node13" class="node">
<title>ItemDelete</title>
<polygon fill="#2980b9" stroke="#2980b9" points="178.5,-981 107.5,-981 107.5,-945 178.5,-945 178.5,-981"/>
<text text-anchor="middle" x="143" y="-960.5" font-family="Sans" font-size="10.00" fill="#ffffff">ItemDelete</text>
</g>
<!-- ItemDelete&#45;&gt;MosFile -->
<g id="edge12" class="edge">
<title>ItemDelete&#45;&gt;MosFile</title>
<path fill="none" stroke="black" d="M107.34,-950.62C100.74,-946.84 94.5,-942.04 90,-936 55,-889.03 36.35,-710.26 30.26,-640.3"/>
<polygon fill="black" stroke="black" points="33.73,-639.72 29.4,-630.05 26.75,-640.31 33.73,-639.72"/>
</g>
<!-- ItemInsert -->
<g id="node14" class="node">
<title>ItemInsert</title>
<polygon fill="#2980b9" stroke="#2980b9" points="176.5,-927 109.5,-927 109.5,-891 176.5,-891 176.5,-927"/>
<text text-anchor="middle" x="143" y="-906.5" font-family="Sans" font-size="10.00" fill="#ffffff">ItemInsert</text>
</g>
<!-- ItemInsert&#45;&gt;MosFile -->
<g id="edge13" class="edge">
<title>ItemInsert&#45;&gt;MosFile</title>
<path fill="none" stroke="black" d="M109.39,-897.53C102.1,-893.61 95.04,-888.52 90,-882 33.4,-808.89 26.84,-693.31 27.09,-640.29"/>
<polygon fill="black" stroke="black" points="30.59,-640.3 27.22,-630.25 23.59,-640.2 30.59,-640.3"/>
</g>
<!-- ItemMoveMultiple -->
<g id="node15" class="node">
<title>ItemMoveMultiple</title>
<polygon fill="#2980b9" stroke="#2980b9" points="196,-873 90,-873 90,-837 196,-837 196,-873"/>
<text text-anchor="middle" x="143" y="-852.5" font-family="Sans" font-size="10.00" fill="#ffffff">ItemMoveMultiple</text>
</g>
<!-- ItemMoveMultiple&#45;&gt;MosFile -->
<g id="edge14" class="edge">
<title>ItemMoveMultiple&#45;&gt;MosFile</title>
<path fill="none" stroke="black" d="M99.41,-836.87C95.92,-834.26 92.71,-831.31 90,-828 44.47,-772.35 32.36,-684.87 29.15,-640.24"/>
<polygon fill="black" stroke="black" points="32.64,-639.88 28.52,-630.12 25.65,-640.31 32.64,-639.88"/>
</g>
<!-- ItemReplace -->
<g id="node16" class="node">
<title>ItemReplace</title>
<polygon fill="#2980b9" stroke="#2980b9" points="182,-819 104,-819 104,-783 182,-783 182,-819"/>
<text text-anchor="middle" x="143" y="-798.5" font-family="Sans" font-size="10.00" fill="#ffffff">ItemReplace</text>
</g>
<!-- ItemReplace&#45;&gt;MosFile -->
<g id="edge15" class="edge">
<title>ItemReplace&#45;&gt;MosFile</title>
<path fill="none" stroke="black" d="M103.85,-785.43C98.75,-782.19 93.93,-778.4 90,-774 55.47,-735.32 39.34,-675.38 32.48,-640.28"/>
<polygon fill="black" stroke="black" points="35.89,-639.44 30.64,-630.24 29,-640.71 35.89,-639.44"/>
</g>
<!-- MetaDataReplace -->
<g id="node17" class="node">
<title>MetaDataReplace</title>
<polygon fill="#2980b9" stroke="#2980b9" points="195,-765 91,-765 91,-729 195,-729 195,-765"/>
<text text-anchor="middle" x="143" y="-744.5" font-family="Sans" font-size="10.00" fill="#ffffff">MetaDataReplace</text>
</g>
<!-- MetaDataReplace&#45;&gt;MosFile -->
<g id="edge16" class="edge">
<title>MetaDataReplace&#45;&gt;MosFile</title>
<path fill="none" stroke="black" d="M101.25,-728.84C97.22,-726.18 93.38,-723.24 90,-720 66.24,-697.22 48.81,-663.34 38.59,-639.61"/>
<polygon fill="black" stroke="black" points="41.72,-638.02 34.65,-630.13 35.25,-640.71 41.72,-638.02"/>
</g>
<!-- RunningOrder -->
<g id="node18" class="node">
<title>RunningOrder</title>
<polygon fill="#2980b9" stroke="#2980b9" points="184.5,-711 101.5,-711 101.5,-675 184.5,-675 184.5,-711"/>
<text text-anchor="middle" x="143" y="-690.5" font-family="Sans" font-size="10.00" fill="#ffffff">RunningOrder</text>
</g>
<!-- RunningOrder&#45;&gt;MosFile -->
<g id="edge17" class="edge">
<title>RunningOrder&#45;&gt;MosFile</title>
<path fill="none" stroke="black" d="M104.45,-674.87C99.48,-672.08 94.54,-669.09 90,-666 77.37,-657.4 64.47,-646.56 53.72,-636.84"/>
<polygon fill="black" stroke="black" points="56.04,-634.22 46.32,-630.02 51.3,-639.37 56.04,-634.22"/>
</g>
<!-- RunningOrderEnd -->
<g id="node19" class="node">
<title>RunningOrderEnd</title>
<polygon fill="#2980b9" stroke="#2980b9" points="193.5,-657 92.5,-657 92.5,-621 193.5,-621 193.5,-657"/>
<text text-anchor="middle" x="143" y="-636.5" font-family="Sans" font-size="10.00" fill="#ffffff">RunningOrderEnd</text>
</g>
<!-- RunningOrderEnd&#45;&gt;MosFile -->
<g id="edge18" class="edge">
<title>RunningOrderEnd&#45;&gt;MosFile</title>
<path fill="none" stroke="black" d="M92.33,-627.24C82.74,-624.96 72.87,-622.63 63.82,-620.48"/>
<polygon fill="black" stroke="black" points="64.56,-617.06 54.02,-618.16 62.95,-623.87 64.56,-617.06"/>
</g>
<!-- RunningOrderReplace -->
<g id="node20" class="node">
<title>RunningOrderReplace</title>
<polygon fill="#2980b9" stroke="#2980b9" points="354,-711 232,-711 232,-675 354,-675 354,-711"/>
<text text-anchor="middle" x="293" y="-690.5" font-family="Sans" font-size="10.00" fill="#ffffff">RunningOrderReplace</text>
</g>
<!-- RunningOrderReplace&#45;&gt;RunningOrder -->
<g id="edge19" class="edge">
<title>RunningOrderReplace&#45;&gt;RunningOrder</title>
<path fill="none" stroke="black" d="M231.8,-693C219.55,-693 206.77,-693 194.87,-693"/>
<polygon fill="black" stroke="black" points="194.69,-689.5 184.69,-693 194.69,-696.5 194.69,-689.5"/>
</g>
<!-- StoryAppend -->
<g id="node21" class="node">
<title>StoryAppend</title>
<polygon fill="#2980b9" stroke="#2980b9" points="182.5,-603 103.5,-603 103.5,-567 182.5,-567 182.5,-603"/>
<text text-anchor="middle" x="143" y="-582.5" font-family="Sans" font-size="10.00" fill="#ffffff">StoryAppend</text>
</g>
<!-- StoryAppend&#45;&gt;MosFile -->
<g id="edge20" class="edge">
<title>StoryAppend&#45;&gt;MosFile</title>
<path fill="none" stroke="black" d="M103.4,-594.14C90.79,-597.13 76.83,-600.44 64.38,-603.38"/>
<polygon fill="black" stroke="black" points="63.27,-600.05 54.34,-605.76 64.88,-606.86 63.27,-600.05"/>
</g>
<!-- StoryDelete -->
<g id="node22" class="node">
<title>StoryDelete</title>
<polygon fill="#2980b9" stroke="#2980b9" points="180,-549 106,-549 106,-513 180,-513 180,-549"/>
<text text-anchor="middle" x="143" y="-528.5" font-family="Sans" font-size="10.00" fill="#ffffff">StoryDelete</text>
</g>
<!-- StoryDelete&#45;&gt;MosFile -->
<g id="edge21" class="edge">
<title>StoryDelete&#45;&gt;MosFile</title>
<path fill="none" stroke="black" d="M105.83,-548.36C100.4,-551.37 94.96,-554.62 90,-558 77.37,-566.6 64.47,-577.44 53.72,-587.16"/>
<polygon fill="black" stroke="black" points="51.3,-584.63 46.32,-593.98 56.04,-589.78 51.3,-584.63"/>
</g>
<!-- StoryInsert -->
<g id="node23" class="node">
<title>StoryInsert</title>
<polygon fill="#2980b9" stroke="#2980b9" points="178,-495 108,-495 108,-459 178,-459 178,-495"/>
<text text-anchor="middle" x="143" y="-474.5" font-family="Sans" font-size="10.00" fill="#ffffff">StoryInsert</text>
</g>
<!-- StoryInsert&#45;&gt;MosFile -->
<g id="edge22" class="edge">
<title>StoryInsert&#45;&gt;MosFile</title>
<path fill="none" stroke="black" d="M107.95,-491.09C101.54,-494.7 95.21,-499 90,-504 66.24,-526.78 48.81,-560.66 38.59,-584.39"/>
<polygon fill="black" stroke="black" points="35.25,-583.29 34.65,-593.87 41.72,-585.98 35.25,-583.29"/>
</g>
<!-- StoryMove -->
<g id="node24" class="node">
<title>StoryMove</title>
<polygon fill="#2980b9" stroke="#2980b9" points="177.5,-441 108.5,-441 108.5,-405 177.5,-405 177.5,-441"/>
<text text-anchor="middle" x="143" y="-420.5" font-family="Sans" font-size="10.00" fill="#ffffff">StoryMove</text>
</g>
<!-- StoryMove&#45;&gt;MosFile -->
<g id="edge23" class="edge">
<title>StoryMove&#45;&gt;MosFile</title>
<path fill="none" stroke="black" d="M108.39,-435.87C101.65,-439.63 95.08,-444.31 90,-450 55.47,-488.68 39.34,-548.62 32.48,-583.72"/>
<polygon fill="black" stroke="black" points="29,-583.29 30.64,-593.76 35.89,-584.56 29,-583.29"/>
</g>
<!-- StoryReplace -->
<g id="node25" class="node">
<title>StoryReplace</title>
<polygon fill="#2980b9" stroke="#2980b9" points="183.5,-387 102.5,-387 102.5,-351 183.5,-351 183.5,-387"/>
<text text-anchor="middle" x="143" y="-366.5" font-family="Sans" font-size="10.00" fill="#ffffff">StoryReplace</text>
</g>
<!-- StoryReplace&#45;&gt;MosFile -->
<g id="edge24" class="edge">
<title>StoryReplace&#45;&gt;MosFile</title>
<path fill="none" stroke="black" d="M102.46,-384.96C97.8,-388.09 93.48,-391.75 90,-396 44.47,-451.65 32.36,-539.13 29.15,-583.76"/>
<polygon fill="black" stroke="black" points="25.65,-583.69 28.52,-593.88 32.64,-584.12 25.65,-583.69"/>
</g>
<!-- StorySend -->
<g id="node26" class="node">
<title>StorySend</title>
<polygon fill="#2980b9" stroke="#2980b9" points="176,-333 110,-333 110,-297 176,-297 176,-333"/>
<text text-anchor="middle" x="143" y="-312.5" font-family="Sans" font-size="10.00" fill="#ffffff">StorySend</text>
</g>
<!-- StorySend&#45;&gt;MosFile -->
<g id="edge25" class="edge">
<title>StorySend&#45;&gt;MosFile</title>
<path fill="none" stroke="black" d="M109.93,-326.18C102.45,-330.14 95.17,-335.32 90,-342 33.4,-415.11 26.84,-530.69 27.09,-583.71"/>
<polygon fill="black" stroke="black" points="23.59,-583.8 27.22,-593.75 30.59,-583.7 23.59,-583.8"/>
</g>
</g>
</svg>
