<?xml version="1.0" encoding="UTF-8" standalone="no"?>
<!DOCTYPE svg PUBLIC "-//W3C//DTD SVG 1.1//EN"
 "http://www.w3.org/Graphics/SVG/1.1/DTD/svg11.dtd">
<!-- Generated by graphviz version 2.42.3 (20191010.1750)
 -->
<!-- Title: classes Pages: 1 -->
<svg width="339pt" height="1043pt"
 viewBox="0.00 0.00 338.87 1043.00" xmlns="http://www.w3.org/2000/svg" xmlns:xlink="http://www.w3.org/1999/xlink">
<g id="graph0" class="graph" transform="scale(1 1) rotate(0) translate(4 1039)">
<title>classes</title>
<polygon fill="white" stroke="transparent" points="-4,4 -4,-1039 334.87,-1039 334.87,4 -4,4"/>
<!-- MosFile -->
<g id="node1" class="node">
<title>MosFile</title>
<polygon fill="#9ec6e0" stroke="#9ec6e0" points="54,-414 0,-414 0,-378 54,-378 54,-414"/>
<text text-anchor="middle" x="27" y="-393" font-family="Sans" font-size="10.00" fill="#000000">MosFile</text>
</g>
<!-- EADeleteItem -->
<g id="node2" class="node">
<title>EADeleteItem</title>
<polygon fill="#2980b9" stroke="#2980b9" points="324.88,-1035 247.49,-1035 247.49,-999 324.88,-999 324.88,-1035"/>
<text text-anchor="middle" x="286.19" y="-1014" font-family="Sans" font-size="10.00" fill="#ffffff">EADeleteItem</text>
</g>
<!-- ElementAction -->
<g id="node3" class="node">
<title>ElementAction</title>
<polygon fill="#2980b9" stroke="#2980b9" points="188.23,-792 107.27,-792 107.27,-756 188.23,-756 188.23,-792"/>
<text text-anchor="middle" x="147.75" y="-771" font-family="Sans" font-size="10.00" fill="#ffffff">ElementAction</text>
</g>
<!-- EADeleteItem&#45;&gt;ElementAction -->
<g id="edge1" class="edge">
<title>EADeleteItem&#45;&gt;ElementAction</title>
<path fill="none" stroke="black" d="M251.07,-998.91C247.58,-996.22 244.3,-993.24 241.5,-990 192.41,-933.05 165.94,-846.2 154.96,-801.98"/>
<polygon fill="black" stroke="black" points="158.35,-801.11 152.61,-792.21 151.54,-802.75 158.35,-801.11"/>
</g>
<!-- ElementAction&#45;&gt;MosFile -->
<g id="edge11" class="edge">
<title>ElementAction&#45;&gt;MosFile</title>
<path fill="none" stroke="black" d="M107.45,-761.42C100.79,-757.71 94.56,-752.99 90,-747 51.23,-696.09 34.64,-498.33 29.69,-424.24"/>
<polygon fill="black" stroke="black" points="33.18,-423.99 29.05,-414.24 26.2,-424.44 33.18,-423.99"/>
</g>
<!-- EADeleteStory -->
<g id="node4" class="node">
<title>EADeleteStory</title>
<polygon fill="#2980b9" stroke="#2980b9" points="326.77,-981 245.6,-981 245.6,-945 326.77,-945 326.77,-981"/>
<text text-anchor="middle" x="286.19" y="-960" font-family="Sans" font-size="10.00" fill="#ffffff">EADeleteStory</text>
</g>
<!-- EADeleteStory&#45;&gt;ElementAction -->
<g id="edge2" class="edge">
<title>EADeleteStory&#45;&gt;ElementAction</title>
<path fill="none" stroke="black" d="M251.87,-944.91C248.16,-942.19 244.6,-939.2 241.5,-936 202.65,-895.82 174.05,-836.25 159.52,-801.65"/>
<polygon fill="black" stroke="black" points="162.67,-800.1 155.63,-792.18 156.19,-802.76 162.67,-800.1"/>
</g>
<!-- EAInsertItem -->
<g id="node5" class="node">
<title>EAInsertItem</title>
<polygon fill="#2980b9" stroke="#2980b9" points="322.98,-927 249.39,-927 249.39,-891 322.98,-891 322.98,-927"/>
<text text-anchor="middle" x="286.19" y="-906" font-family="Sans" font-size="10.00" fill="#ffffff">EAInsertItem</text>
</g>
<!-- EAInsertItem&#45;&gt;ElementAction -->
<g id="edge3" class="edge">
<title>EAInsertItem&#45;&gt;ElementAction</title>
<path fill="none" stroke="black" d="M253.35,-890.94C249.22,-888.14 245.16,-885.13 241.5,-882 212.73,-857.4 185.18,-823.57 167.69,-800.36"/>
<polygon fill="black" stroke="black" points="170.49,-798.27 161.72,-792.33 164.88,-802.44 170.49,-798.27"/>
</g>
<!-- EAInsertStory -->
<g id="node6" class="node">
<title>EAInsertStory</title>
<polygon fill="#2980b9" stroke="#2980b9" points="324.88,-873 247.5,-873 247.5,-837 324.88,-837 324.88,-873"/>
<text text-anchor="middle" x="286.19" y="-852" font-family="Sans" font-size="10.00" fill="#ffffff">EAInsertStory</text>
</g>
<!-- EAInsertStory&#45;&gt;ElementAction -->
<g id="edge4" class="edge">
<title>EAInsertStory&#45;&gt;ElementAction</title>
<path fill="none" stroke="black" d="M254.57,-836.82C234.91,-825.15 209.19,-809.88 188.03,-797.32"/>
<polygon fill="black" stroke="black" points="189.65,-794.21 179.27,-792.12 186.08,-800.23 189.65,-794.21"/>
</g>
<!-- EAMoveItem -->
<g id="node7" class="node">
<title>EAMoveItem</title>
<polygon fill="#2980b9" stroke="#2980b9" points="322.93,-819 249.44,-819 249.44,-783 322.93,-783 322.93,-819"/>
<text text-anchor="middle" x="286.19" y="-798" font-family="Sans" font-size="10.00" fill="#ffffff">EAMoveItem</text>
</g>
<!-- EAMoveItem&#45;&gt;ElementAction -->
<g id="edge5" class="edge">
<title>EAMoveItem&#45;&gt;ElementAction</title>
<path fill="none" stroke="black" d="M249.34,-793.91C233.78,-790.83 215.29,-787.17 198.44,-783.83"/>
<polygon fill="black" stroke="black" points="198.69,-780.31 188.2,-781.81 197.33,-787.18 198.69,-780.31"/>
</g>
<!-- EAMoveStory -->
<g id="node8" class="node">
<title>EAMoveStory</title>
<polygon fill="#2980b9" stroke="#2980b9" points="324.82,-765 247.55,-765 247.55,-729 324.82,-729 324.82,-765"/>
<text text-anchor="middle" x="286.19" y="-744" font-family="Sans" font-size="10.00" fill="#ffffff">EAMoveStory</text>
</g>
<!-- EAMoveStory&#45;&gt;ElementAction -->
<g id="edge6" class="edge">
<title>EAMoveStory&#45;&gt;ElementAction</title>
<path fill="none" stroke="black" d="M247.54,-754.45C232.26,-757.47 214.39,-761.01 198.09,-764.24"/>
<polygon fill="black" stroke="black" points="197.31,-760.82 188.18,-766.2 198.66,-767.69 197.31,-760.82"/>
</g>
<!-- EAReplaceItem -->
<g id="node9" class="node">
<title>EAReplaceItem</title>
<polygon fill="#2980b9" stroke="#2980b9" points="329.17,-711 243.21,-711 243.21,-675 329.17,-675 329.17,-711"/>
<text text-anchor="middle" x="286.19" y="-690" font-family="Sans" font-size="10.00" fill="#ffffff">EAReplaceItem</text>
</g>
<!-- EAReplaceItem&#45;&gt;ElementAction -->
<g id="edge7" class="edge">
<title>EAReplaceItem&#45;&gt;ElementAction</title>
<path fill="none" stroke="black" d="M254.88,-711.24C250.35,-714.11 245.77,-717.09 241.5,-720 224.98,-731.27 222.62,-736.65 205.5,-747 202.75,-748.67 199.87,-750.31 196.95,-751.9"/>
<polygon fill="black" stroke="black" points="195.3,-748.82 188.06,-756.56 198.54,-755.02 195.3,-748.82"/>
</g>
<!-- EAReplaceStory -->
<g id="node10" class="node">
<title>EAReplaceStory</title>
<polygon fill="#2980b9" stroke="#2980b9" points="331.06,-657 241.32,-657 241.32,-621 331.06,-621 331.06,-657"/>
<text text-anchor="middle" x="286.19" y="-636" font-family="Sans" font-size="10.00" fill="#ffffff">EAReplaceStory</text>
</g>
<!-- EAReplaceStory&#45;&gt;ElementAction -->
<g id="edge8" class="edge">
<title>EAReplaceStory&#45;&gt;ElementAction</title>
<path fill="none" stroke="black" d="M251.11,-657.12C247.61,-659.81 244.32,-662.78 241.5,-666 215.59,-695.68 233,-718.79 205.5,-747 202.87,-749.7 199.92,-752.16 196.78,-754.4"/>
<polygon fill="black" stroke="black" points="194.74,-751.55 188.12,-759.82 198.45,-757.48 194.74,-751.55"/>
</g>
<!-- EASwapItem -->
<g id="node11" class="node">
<title>EASwapItem</title>
<polygon fill="#2980b9" stroke="#2980b9" points="322.99,-603 249.38,-603 249.38,-567 322.99,-567 322.99,-603"/>
<text text-anchor="middle" x="286.19" y="-582" font-family="Sans" font-size="10.00" fill="#ffffff">EASwapItem</text>
</g>
<!-- EASwapItem&#45;&gt;ElementAction -->
<g id="edge9" class="edge">
<title>EASwapItem&#45;&gt;ElementAction</title>
<path fill="none" stroke="black" d="M250.16,-603.05C246.92,-605.73 243.95,-608.71 241.5,-612 204.47,-661.85 245.2,-699.25 205.5,-747 202.95,-750.07 199.96,-752.82 196.72,-755.27"/>
<polygon fill="black" stroke="black" points="194.72,-752.4 188.23,-760.77 198.53,-758.27 194.72,-752.4"/>
</g>
<!-- EASwapStory -->
<g id="node12" class="node">
<title>EASwapStory</title>
<polygon fill="#2980b9" stroke="#2980b9" points="324.88,-549 247.49,-549 247.49,-513 324.88,-513 324.88,-549"/>
<text text-anchor="middle" x="286.19" y="-528" font-family="Sans" font-size="10.00" fill="#ffffff">EASwapStory</text>
</g>
<!-- EASwapStory&#45;&gt;ElementAction -->
<g id="edge10" class="edge">
<title>EASwapStory&#45;&gt;ElementAction</title>
<path fill="none" stroke="black" d="M249.51,-549.23C246.48,-551.85 243.73,-554.77 241.5,-558 193.03,-628.44 257.76,-679.32 205.5,-747 202.91,-750.35 199.81,-753.31 196.4,-755.91"/>
<polygon fill="black" stroke="black" points="194.47,-752.99 187.99,-761.37 198.28,-758.86 194.47,-752.99"/>
</g>
<!-- ItemDelete -->
<g id="node13" class="node">
<title>ItemDelete</title>
<polygon fill="#2980b9" stroke="#2980b9" points="180.11,-738 115.4,-738 115.4,-702 180.11,-702 180.11,-738"/>
<text text-anchor="middle" x="147.75" y="-717" font-family="Sans" font-size="10.00" fill="#ffffff">ItemDelete</text>
</g>
<!-- ItemDelete&#45;&gt;MosFile -->
<g id="edge12" class="edge">
<title>ItemDelete&#45;&gt;MosFile</title>
<path fill="none" stroke="black" d="M115.54,-711.19C106.07,-707.09 96.47,-701.23 90,-693 57.08,-651.13 37.48,-490.05 30.7,-424.25"/>
<polygon fill="black" stroke="black" points="34.17,-423.78 29.69,-414.18 27.2,-424.48 34.17,-423.78"/>
</g>
<!-- ItemInsert -->
<g id="node14" class="node">
<title>ItemInsert</title>
<polygon fill="#2980b9" stroke="#2980b9" points="178.21,-684 117.29,-684 117.29,-648 178.21,-648 178.21,-684"/>
<text text-anchor="middle" x="147.75" y="-663" font-family="Sans" font-size="10.00" fill="#ffffff">ItemInsert</text>
</g>
<!-- ItemInsert&#45;&gt;MosFile -->
<g id="edge13" class="edge">
<title>ItemInsert&#45;&gt;MosFile</title>
<path fill="none" stroke="black" d="M117.23,-657.65C107.31,-653.51 97,-647.51 90,-639 37.81,-575.54 28.87,-473.58 27.78,-424.38"/>
<polygon fill="black" stroke="black" points="31.28,-424.11 27.65,-414.16 24.28,-424.2 31.28,-424.11"/>
</g>
<!-- ItemMoveMultiple -->
<g id="node15" class="node">
<title>ItemMoveMultiple</title>
<polygon fill="#2980b9" stroke="#2980b9" points="195.11,-630 100.39,-630 100.39,-594 195.11,-594 195.11,-630"/>
<text text-anchor="middle" x="147.75" y="-609" font-family="Sans" font-size="10.00" fill="#ffffff">ItemMoveMultiple</text>
</g>
<!-- ItemMoveMultiple&#45;&gt;MosFile -->
<g id="edge14" class="edge">
<title>ItemMoveMultiple&#45;&gt;MosFile</title>
<path fill="none" stroke="black" d="M100.43,-594.15C96.59,-591.48 93.03,-588.44 90,-585 49.14,-538.58 35.1,-464.62 30.36,-424.36"/>
<polygon fill="black" stroke="black" points="33.82,-423.76 29.28,-414.19 26.86,-424.5 33.82,-423.76"/>
</g>
<!-- ItemReplace -->
<g id="node16" class="node">
<title>ItemReplace</title>
<polygon fill="#2980b9" stroke="#2980b9" points="183.89,-576 111.61,-576 111.61,-540 183.89,-540 183.89,-576"/>
<text text-anchor="middle" x="147.75" y="-555" font-family="Sans" font-size="10.00" fill="#ffffff">ItemReplace</text>
</g>
<!-- ItemReplace&#45;&gt;MosFile -->
<g id="edge15" class="edge">
<title>ItemReplace&#45;&gt;MosFile</title>
<path fill="none" stroke="black" d="M111.56,-545.93C103.78,-542.06 96.05,-537.14 90,-531 60.19,-500.78 43.08,-453.61 34.67,-423.78"/>
<polygon fill="black" stroke="black" points="38.02,-422.76 32.05,-414.01 31.26,-424.58 38.02,-422.76"/>
</g>
<!-- MetaDataReplace -->
<g id="node17" class="node">
<title>MetaDataReplace</title>
<polygon fill="#2980b9" stroke="#2980b9" points="195.79,-522 99.71,-522 99.71,-486 195.79,-486 195.79,-522"/>
<text text-anchor="middle" x="147.75" y="-501" font-family="Sans" font-size="10.00" fill="#ffffff">MetaDataReplace</text>
</g>
<!-- MetaDataReplace&#45;&gt;MosFile -->
<g id="edge16" class="edge">
<title>MetaDataReplace&#45;&gt;MosFile</title>
<path fill="none" stroke="black" d="M103,-485.85C98.42,-483.18 93.98,-480.23 90,-477 71.25,-461.81 54.9,-439.85 43.7,-422.62"/>
<polygon fill="black" stroke="black" points="46.62,-420.7 38.33,-414.11 40.7,-424.43 46.62,-420.7"/>
</g>
<!-- RunningOrder -->
<g id="node18" class="node">
<title>RunningOrder</title>
<polygon fill="#2980b9" stroke="#2980b9" points="187.06,-468 108.44,-468 108.44,-432 187.06,-432 187.06,-468"/>
<text text-anchor="middle" x="147.75" y="-447" font-family="Sans" font-size="10.00" fill="#ffffff">RunningOrder</text>
</g>
<!-- RunningOrder&#45;&gt;MosFile -->
<g id="edge17" class="edge">
<title>RunningOrder&#45;&gt;MosFile</title>
<path fill="none" stroke="black" d="M108.2,-432.47C93.89,-425.96 77.74,-418.62 63.7,-412.23"/>
<polygon fill="black" stroke="black" points="64.91,-408.94 54.36,-407.99 62.02,-415.31 64.91,-408.94"/>
</g>
<!-- RunningOrderEnd -->
<g id="node19" class="node">
<title>RunningOrderEnd</title>
<polygon fill="#2980b9" stroke="#2980b9" points="195.86,-414 99.64,-414 99.64,-378 195.86,-378 195.86,-414"/>
<text text-anchor="middle" x="147.75" y="-393" font-family="Sans" font-size="10.00" fill="#ffffff">RunningOrderEnd</text>
</g>
<!-- RunningOrderEnd&#45;&gt;MosFile -->
<g id="edge18" class="edge">
<title>RunningOrderEnd&#45;&gt;MosFile</title>
<path fill="none" stroke="black" d="M99.48,-396C87.81,-396 75.49,-396 64.43,-396"/>
<polygon fill="black" stroke="black" points="64.28,-392.5 54.28,-396 64.28,-399.5 64.28,-392.5"/>
</g>
<!-- RunningOrderReplace -->
<g id="node20" class="node">
<title>RunningOrderReplace</title>
<polygon fill="#2980b9" stroke="#2980b9" points="205.25,-360 90.25,-360 90.25,-324 205.25,-324 205.25,-360"/>
<text text-anchor="middle" x="147.75" y="-339" font-family="Sans" font-size="10.00" fill="#ffffff">RunningOrderReplace</text>
</g>
<!-- RunningOrderReplace&#45;&gt;MosFile -->
<g id="edge19" class="edge">
<title>RunningOrderReplace&#45;&gt;MosFile</title>
<path fill="none" stroke="black" d="M106.88,-360.13C92.75,-366.55 76.97,-373.73 63.26,-379.97"/>
<polygon fill="black" stroke="black" points="61.8,-376.79 54.14,-384.11 64.69,-383.16 61.8,-376.79"/>
</g>
<!-- StoryAppend -->
<g id="node21" class="node">
<title>StoryAppend</title>
<polygon fill="#2980b9" stroke="#2980b9" points="184.57,-306 110.93,-306 110.93,-270 184.57,-270 184.57,-306"/>
<text text-anchor="middle" x="147.75" y="-285" font-family="Sans" font-size="10.00" fill="#ffffff">StoryAppend</text>
</g>
<!-- StoryAppend&#45;&gt;MosFile -->
<g id="edge20" class="edge">
<title>StoryAppend&#45;&gt;MosFile</title>
<path fill="none" stroke="black" d="M110.7,-301.98C103.46,-305.64 96.19,-309.99 90,-315 71.25,-330.19 54.9,-352.15 43.7,-369.38"/>
<polygon fill="black" stroke="black" points="40.7,-367.57 38.33,-377.89 46.62,-371.3 40.7,-367.57"/>
</g>
<!-- StoryDelete -->
<g id="node22" class="node">
<title>StoryDelete</title>
<polygon fill="#2980b9" stroke="#2980b9" points="182,-252 113.5,-252 113.5,-216 182,-216 182,-252"/>
<text text-anchor="middle" x="147.75" y="-231" font-family="Sans" font-size="10.00" fill="#ffffff">StoryDelete</text>
</g>
<!-- StoryDelete&#45;&gt;MosFile -->
<g id="edge21" class="edge">
<title>StoryDelete&#45;&gt;MosFile</title>
<path fill="none" stroke="black" d="M113.33,-245.21C104.96,-249.2 96.51,-254.4 90,-261 60.19,-291.22 43.08,-338.39 34.67,-368.22"/>
<polygon fill="black" stroke="black" points="31.26,-367.42 32.05,-377.99 38.02,-369.24 31.26,-367.42"/>
</g>
<!-- StoryInsert -->
<g id="node23" class="node">
<title>StoryInsert</title>
<polygon fill="#2980b9" stroke="#2980b9" points="180.1,-198 115.4,-198 115.4,-162 180.1,-162 180.1,-198"/>
<text text-anchor="middle" x="147.75" y="-177" font-family="Sans" font-size="10.00" fill="#ffffff">StoryInsert</text>
</g>
<!-- StoryInsert&#45;&gt;MosFile -->
<g id="edge22" class="edge">
<title>StoryInsert&#45;&gt;MosFile</title>
<path fill="none" stroke="black" d="M115.48,-189.5C106.23,-193.62 96.78,-199.3 90,-207 49.14,-253.42 35.1,-327.38 30.36,-367.64"/>
<polygon fill="black" stroke="black" points="26.86,-367.5 29.28,-377.81 33.82,-368.24 26.86,-367.5"/>
</g>
<!-- StoryMove -->
<g id="node24" class="node">
<title>StoryMove</title>
<polygon fill="#2980b9" stroke="#2980b9" points="179.54,-144 115.96,-144 115.96,-108 179.54,-108 179.54,-144"/>
<text text-anchor="middle" x="147.75" y="-123" font-family="Sans" font-size="10.00" fill="#ffffff">StoryMove</text>
</g>
<!-- StoryMove&#45;&gt;MosFile -->
<g id="edge23" class="edge">
<title>StoryMove&#45;&gt;MosFile</title>
<path fill="none" stroke="black" d="M115.75,-134.98C106.3,-139.09 96.65,-144.91 90,-153 37.81,-216.46 28.87,-318.42 27.78,-367.62"/>
<polygon fill="black" stroke="black" points="24.28,-367.8 27.65,-377.84 31.28,-367.89 24.28,-367.8"/>
</g>
<!-- StoryReplace -->
<g id="node25" class="node">
<title>StoryReplace</title>
<polygon fill="#2980b9" stroke="#2980b9" points="185.78,-90 109.72,-90 109.72,-54 185.78,-54 185.78,-90"/>
<text text-anchor="middle" x="147.75" y="-69" font-family="Sans" font-size="10.00" fill="#ffffff">StoryReplace</text>
</g>
<!-- StoryReplace&#45;&gt;MosFile -->
<g id="edge24" class="edge">
<title>StoryReplace&#45;&gt;MosFile</title>
<path fill="none" stroke="black" d="M109.64,-83.61C102.21,-87.45 95.13,-92.48 90,-99 57.08,-140.87 37.48,-301.95 30.7,-367.75"/>
<polygon fill="black" stroke="black" points="27.2,-367.52 29.69,-377.82 34.17,-368.22 27.2,-367.52"/>
</g>
<!-- StorySend -->
<g id="node26" class="node">
<title>StorySend</title>
<polygon fill="#2980b9" stroke="#2980b9" points="178.95,-36 116.56,-36 116.56,0 178.95,0 178.95,-36"/>
<text text-anchor="middle" x="147.75" y="-15" font-family="Sans" font-size="10.00" fill="#ffffff">StorySend</text>
</g>
<!-- StorySend&#45;&gt;MosFile -->
<g id="edge25" class="edge">
<title>StorySend&#45;&gt;MosFile</title>
<path fill="none" stroke="black" d="M116.28,-26.31C106.51,-30.42 96.54,-36.41 90,-45 51.23,-95.91 34.64,-293.67 29.69,-367.76"/>
<polygon fill="black" stroke="black" points="26.2,-367.56 29.05,-377.76 33.18,-368.01 26.2,-367.56"/>
</g>
</g>
</svg>
