<?xml version="1.0" encoding="UTF-8" standalone="no"?>
<!DOCTYPE svg PUBLIC "-//W3C//DTD SVG 1.1//EN"
 "http://www.w3.org/Graphics/SVG/1.1/DTD/svg11.dtd">
<!-- Generated by graphviz version 2.44.1 (20200629.0846)
 -->
<!-- Title: classes Pages: 1 -->
<svg width="355pt" height="1097pt"
 viewBox="0.00 0.00 355.00 1097.00" xmlns="http://www.w3.org/2000/svg" xmlns:xlink="http://www.w3.org/1999/xlink">
<g id="graph0" class="graph" transform="scale(1 1) rotate(0) translate(4 1093)">
<title>classes</title>
<polygon fill="white" stroke="transparent" points="-4,4 -4,-1093 351,-1093 351,4 -4,4"/>
<!-- ElementAction -->
<g id="node1" class="node">
<title>ElementAction</title>
<polygon fill="#9ec6e0" stroke="#9ec6e0" points="184,-279 104,-279 104,-243 184,-243 184,-279"/>
<text text-anchor="middle" x="144" y="-258.5" font-family="Sans" font-size="10.00" fill="#000000">ElementAction</text>
</g>
<!-- MosFile -->
<g id="node2" class="node">
<title>MosFile</title>
<polygon fill="#9ec6e0" stroke="#9ec6e0" points="54,-684 0,-684 0,-648 54,-648 54,-684"/>
<text text-anchor="middle" x="27" y="-663.5" font-family="Sans" font-size="10.00" fill="#000000">MosFile</text>
</g>
<!-- ElementAction&#45;&gt;MosFile -->
<g id="edge11" class="edge">
<title>ElementAction&#45;&gt;MosFile</title>
<path fill="none" stroke="black" d="M103.8,-275.45C98.51,-278.86 93.66,-283 90,-288 49.06,-344.02 33.67,-559.89 29.38,-637.78"/>
<polygon fill="black" stroke="black" points="25.88,-637.65 28.84,-647.82 32.87,-638.02 25.88,-637.65"/>
</g>
<!-- EAItemDelete -->
<g id="node3" class="node">
<title>EAItemDelete</title>
<polygon fill="#2980b9" stroke="#2980b9" points="329.5,-522 251.5,-522 251.5,-486 329.5,-486 329.5,-522"/>
<text text-anchor="middle" x="290.5" y="-501.5" font-family="Sans" font-size="10.00" fill="#ffffff">EAItemDelete</text>
</g>
<!-- EAItemDelete&#45;&gt;ElementAction -->
<g id="edge1" class="edge">
<title>EAItemDelete&#45;&gt;ElementAction</title>
<path fill="none" stroke="black" d="M251.4,-491.39C244.77,-487.67 238.56,-482.96 234,-477 182.04,-409.09 249.34,-356.39 198,-288 196.26,-285.68 194.26,-283.54 192.08,-281.57"/>
<polygon fill="black" stroke="black" points="194.18,-278.77 184.09,-275.53 189.95,-284.36 194.18,-278.77"/>
</g>
<!-- EAItemInsert -->
<g id="node4" class="node">
<title>EAItemInsert</title>
<polygon fill="#2980b9" stroke="#2980b9" points="327.5,-468 253.5,-468 253.5,-432 327.5,-432 327.5,-468"/>
<text text-anchor="middle" x="290.5" y="-447.5" font-family="Sans" font-size="10.00" fill="#ffffff">EAItemInsert</text>
</g>
<!-- EAItemInsert&#45;&gt;ElementAction -->
<g id="edge2" class="edge">
<title>EAItemInsert&#45;&gt;ElementAction</title>
<path fill="none" stroke="black" d="M253.45,-438.05C246.17,-434.22 239.18,-429.28 234,-423 194.51,-375.08 237.05,-336.28 198,-288 196.32,-285.93 194.45,-284 192.43,-282.21"/>
<polygon fill="black" stroke="black" points="194.15,-279.12 184.05,-275.94 189.96,-284.73 194.15,-279.12"/>
</g>
<!-- EAItemMove -->
<g id="node5" class="node">
<title>EAItemMove</title>
<polygon fill="#2980b9" stroke="#2980b9" points="327.5,-414 253.5,-414 253.5,-378 327.5,-378 327.5,-414"/>
<text text-anchor="middle" x="290.5" y="-393.5" font-family="Sans" font-size="10.00" fill="#ffffff">EAItemMove</text>
</g>
<!-- EAItemMove&#45;&gt;ElementAction -->
<g id="edge3" class="edge">
<title>EAItemMove&#45;&gt;ElementAction</title>
<path fill="none" stroke="black" d="M253.3,-382.96C246.28,-379.24 239.43,-374.63 234,-369 206.63,-340.67 225.11,-316.58 198,-288 196.26,-286.16 194.37,-284.43 192.37,-282.8"/>
<polygon fill="black" stroke="black" points="194.39,-279.95 184.21,-277.01 190.34,-285.65 194.39,-279.95"/>
</g>
<!-- EAItemReplace -->
<g id="node6" class="node">
<title>EAItemReplace</title>
<polygon fill="#2980b9" stroke="#2980b9" points="333.5,-360 247.5,-360 247.5,-324 333.5,-324 333.5,-360"/>
<text text-anchor="middle" x="290.5" y="-339.5" font-family="Sans" font-size="10.00" fill="#ffffff">EAItemReplace</text>
</g>
<!-- EAItemReplace&#45;&gt;ElementAction -->
<g id="edge4" class="edge">
<title>EAItemReplace&#45;&gt;ElementAction</title>
<path fill="none" stroke="black" d="M249.89,-323.88C244.46,-321.07 239.03,-318.07 234,-315 216.93,-304.58 214.97,-298.58 198,-288 195.85,-286.66 193.63,-285.33 191.37,-284.02"/>
<polygon fill="black" stroke="black" points="192.95,-280.9 182.51,-279.09 189.55,-287.01 192.95,-280.9"/>
</g>
<!-- EAItemSwap -->
<g id="node7" class="node">
<title>EAItemSwap</title>
<polygon fill="#2980b9" stroke="#2980b9" points="327.5,-306 253.5,-306 253.5,-270 327.5,-270 327.5,-306"/>
<text text-anchor="middle" x="290.5" y="-285.5" font-family="Sans" font-size="10.00" fill="#ffffff">EAItemSwap</text>
</g>
<!-- EAItemSwap&#45;&gt;ElementAction -->
<g id="edge5" class="edge">
<title>EAItemSwap&#45;&gt;ElementAction</title>
<path fill="none" stroke="black" d="M253.41,-281.26C235.47,-277.9 213.53,-273.8 194.08,-270.17"/>
<polygon fill="black" stroke="black" points="194.65,-266.72 184.18,-268.32 193.37,-273.6 194.65,-266.72"/>
</g>
<!-- EAStoryDelete -->
<g id="node8" class="node">
<title>EAStoryDelete</title>
<polygon fill="#2980b9" stroke="#2980b9" points="331.5,-252 249.5,-252 249.5,-216 331.5,-216 331.5,-252"/>
<text text-anchor="middle" x="290.5" y="-231.5" font-family="Sans" font-size="10.00" fill="#ffffff">EAStoryDelete</text>
</g>
<!-- EAStoryDelete&#45;&gt;ElementAction -->
<g id="edge6" class="edge">
<title>EAStoryDelete&#45;&gt;ElementAction</title>
<path fill="none" stroke="black" d="M249.25,-241.52C232.14,-244.72 212.02,-248.48 194.05,-251.83"/>
<polygon fill="black" stroke="black" points="193.23,-248.43 184.04,-253.71 194.51,-255.31 193.23,-248.43"/>
</g>
<!-- EAStoryInsert -->
<g id="node9" class="node">
<title>EAStoryInsert</title>
<polygon fill="#2980b9" stroke="#2980b9" points="329.5,-198 251.5,-198 251.5,-162 329.5,-162 329.5,-198"/>
<text text-anchor="middle" x="290.5" y="-177.5" font-family="Sans" font-size="10.00" fill="#ffffff">EAStoryInsert</text>
</g>
<!-- EAStoryInsert&#45;&gt;ElementAction -->
<g id="edge7" class="edge">
<title>EAStoryInsert&#45;&gt;ElementAction</title>
<path fill="none" stroke="black" d="M251.35,-197.98C245.49,-200.91 239.55,-203.97 234,-207 216.76,-216.4 198.11,-227.55 182.37,-237.27"/>
<polygon fill="black" stroke="black" points="180.11,-234.55 173.46,-242.8 183.81,-240.5 180.11,-234.55"/>
</g>
<!-- EAStoryMove -->
<g id="node10" class="node">
<title>EAStoryMove</title>
<polygon fill="#2980b9" stroke="#2980b9" points="329,-144 252,-144 252,-108 329,-108 329,-144"/>
<text text-anchor="middle" x="290.5" y="-123.5" font-family="Sans" font-size="10.00" fill="#ffffff">EAStoryMove</text>
</g>
<!-- EAStoryMove&#45;&gt;ElementAction -->
<g id="edge8" class="edge">
<title>EAStoryMove&#45;&gt;ElementAction</title>
<path fill="none" stroke="black" d="M251.76,-141.62C245.55,-144.95 239.39,-148.76 234,-153 204.55,-176.2 178.27,-210.66 162.04,-234.39"/>
<polygon fill="black" stroke="black" points="158.99,-232.65 156.32,-242.91 164.8,-236.55 158.99,-232.65"/>
</g>
<!-- EAStoryReplace -->
<g id="node11" class="node">
<title>EAStoryReplace</title>
<polygon fill="#2980b9" stroke="#2980b9" points="335,-90 246,-90 246,-54 335,-54 335,-90"/>
<text text-anchor="middle" x="290.5" y="-69.5" font-family="Sans" font-size="10.00" fill="#ffffff">EAStoryReplace</text>
</g>
<!-- EAStoryReplace&#45;&gt;ElementAction -->
<g id="edge9" class="edge">
<title>EAStoryReplace&#45;&gt;ElementAction</title>
<path fill="none" stroke="black" d="M245.94,-89.84C241.65,-92.55 237.57,-95.6 234,-99 193.69,-137.36 167.16,-198.07 154.23,-233.26"/>
<polygon fill="black" stroke="black" points="150.86,-232.29 150.8,-242.89 157.45,-234.64 150.86,-232.29"/>
</g>
<!-- EAStorySwap -->
<g id="node12" class="node">
<title>EAStorySwap</title>
<polygon fill="#2980b9" stroke="#2980b9" points="329.5,-36 251.5,-36 251.5,0 329.5,0 329.5,-36"/>
<text text-anchor="middle" x="290.5" y="-15.5" font-family="Sans" font-size="10.00" fill="#ffffff">EAStorySwap</text>
</g>
<!-- EAStorySwap&#45;&gt;ElementAction -->
<g id="edge10" class="edge">
<title>EAStorySwap&#45;&gt;ElementAction</title>
<path fill="none" stroke="black" d="M251.45,-31.87C245.06,-35.43 238.92,-39.77 234,-45 182.57,-99.72 158.98,-188.28 149.86,-233.1"/>
<polygon fill="black" stroke="black" points="146.41,-232.52 147.94,-243 153.28,-233.85 146.41,-232.52"/>
</g>
<!-- ItemDelete -->
<g id="node13" class="node">
<title>ItemDelete</title>
<polygon fill="#2980b9" stroke="#2980b9" points="176.5,-1089 111.5,-1089 111.5,-1053 176.5,-1053 176.5,-1089"/>
<text text-anchor="middle" x="144" y="-1068.5" font-family="Sans" font-size="10.00" fill="#ffffff">ItemDelete</text>
</g>
<!-- ItemDelete&#45;&gt;MosFile -->
<g id="edge12" class="edge">
<title>ItemDelete&#45;&gt;MosFile</title>
<path fill="none" stroke="black" d="M111.41,-1060.86C103.3,-1056.82 95.36,-1051.34 90,-1044 49.06,-987.98 33.67,-772.11 29.38,-694.22"/>
<polygon fill="black" stroke="black" points="32.87,-693.98 28.84,-684.18 25.88,-694.35 32.87,-693.98"/>
</g>
<!-- ItemInsert -->
<g id="node14" class="node">
<title>ItemInsert</title>
<polygon fill="#2980b9" stroke="#2980b9" points="174.5,-1035 113.5,-1035 113.5,-999 174.5,-999 174.5,-1035"/>
<text text-anchor="middle" x="144" y="-1014.5" font-family="Sans" font-size="10.00" fill="#ffffff">ItemInsert</text>
</g>
<!-- ItemInsert&#45;&gt;MosFile -->
<g id="edge13" class="edge">
<title>ItemInsert&#45;&gt;MosFile</title>
<path fill="none" stroke="black" d="M113.47,-1007.7C104.71,-1003.58 95.89,-997.84 90,-990 54.81,-943.17 36.27,-764.31 30.24,-694.32"/>
<polygon fill="black" stroke="black" points="33.71,-693.73 29.38,-684.06 26.73,-694.31 33.71,-693.73"/>
</g>
<!-- ItemMoveMultiple -->
<g id="node15" class="node">
<title>ItemMoveMultiple</title>
<polygon fill="#2980b9" stroke="#2980b9" points="191,-981 97,-981 97,-945 191,-945 191,-981"/>
<text text-anchor="middle" x="144" y="-960.5" font-family="Sans" font-size="10.00" fill="#ffffff">ItemMoveMultiple</text>
</g>
<!-- ItemMoveMultiple&#45;&gt;MosFile -->
<g id="edge14" class="edge">
<title>ItemMoveMultiple&#45;&gt;MosFile</title>
<path fill="none" stroke="black" d="M99.15,-944.92C95.73,-942.3 92.6,-939.34 90,-936 33.11,-863.11 26.7,-747.42 27.04,-694.33"/>
<polygon fill="black" stroke="black" points="30.54,-694.33 27.19,-684.28 23.54,-694.23 30.54,-694.33"/>
</g>
<!-- ItemReplace -->
<g id="node16" class="node">
<title>ItemReplace</title>
<polygon fill="#2980b9" stroke="#2980b9" points="180,-927 108,-927 108,-891 180,-891 180,-927"/>
<text text-anchor="middle" x="144" y="-906.5" font-family="Sans" font-size="10.00" fill="#ffffff">ItemReplace</text>
</g>
<!-- ItemReplace&#45;&gt;MosFile -->
<g id="edge15" class="edge">
<title>ItemReplace&#45;&gt;MosFile</title>
<path fill="none" stroke="black" d="M107.82,-896.25C101.17,-892.51 94.8,-887.82 90,-882 44.25,-826.52 32.24,-738.97 29.1,-694.28"/>
<polygon fill="black" stroke="black" points="32.59,-693.92 28.49,-684.14 25.6,-694.34 32.59,-693.92"/>
</g>
<!-- MetaDataReplace -->
<g id="node17" class="node">
<title>MetaDataReplace</title>
<polygon fill="#2980b9" stroke="#2980b9" points="191.5,-873 96.5,-873 96.5,-837 191.5,-837 191.5,-873"/>
<text text-anchor="middle" x="144" y="-852.5" font-family="Sans" font-size="10.00" fill="#ffffff">MetaDataReplace</text>
</g>
<!-- MetaDataReplace&#45;&gt;MosFile -->
<g id="edge16" class="edge">
<title>MetaDataReplace&#45;&gt;MosFile</title>
<path fill="none" stroke="black" d="M100.15,-836.89C96.44,-834.26 92.97,-831.3 90,-828 55.23,-789.35 39.16,-729.15 32.38,-694.05"/>
<polygon fill="black" stroke="black" points="35.79,-693.23 30.56,-684.01 28.9,-694.48 35.79,-693.23"/>
</g>
<!-- ReadyToAir -->
<g id="node18" class="node">
<title>ReadyToAir</title>
<polygon fill="#2980b9" stroke="#2980b9" points="178,-819 110,-819 110,-783 178,-783 178,-819"/>
<text text-anchor="middle" x="144" y="-798.5" font-family="Sans" font-size="10.00" fill="#ffffff">ReadyToAir</text>
</g>
<!-- ReadyToAir&#45;&gt;MosFile -->
<g id="edge17" class="edge">
<title>ReadyToAir&#45;&gt;MosFile</title>
<path fill="none" stroke="black" d="M109.95,-787.9C102.85,-784.11 95.76,-779.48 90,-774 66.15,-751.31 48.74,-717.41 38.54,-693.66"/>
<polygon fill="black" stroke="black" points="41.67,-692.07 34.62,-684.16 35.2,-694.74 41.67,-692.07"/>
</g>
<!-- RunningOrder -->
<g id="node19" class="node">
<title>RunningOrder</title>
<polygon fill="#2980b9" stroke="#2980b9" points="182.5,-765 105.5,-765 105.5,-729 182.5,-729 182.5,-765"/>
<text text-anchor="middle" x="144" y="-744.5" font-family="Sans" font-size="10.00" fill="#ffffff">RunningOrder</text>
</g>
<!-- RunningOrder&#45;&gt;MosFile -->
<g id="edge18" class="edge">
<title>RunningOrder&#45;&gt;MosFile</title>
<path fill="none" stroke="black" d="M105.27,-729.24C100.02,-726.35 94.79,-723.24 90,-720 77.34,-711.45 64.43,-700.61 53.69,-690.89"/>
<polygon fill="black" stroke="black" points="56.01,-688.27 46.29,-684.06 51.26,-693.42 56.01,-688.27"/>
</g>
<!-- RunningOrderControl -->
<g id="node20" class="node">
<title>RunningOrderControl</title>
<polygon fill="#2980b9" stroke="#2980b9" points="198,-711 90,-711 90,-675 198,-675 198,-711"/>
<text text-anchor="middle" x="144" y="-690.5" font-family="Sans" font-size="10.00" fill="#ffffff">RunningOrderControl</text>
</g>
<!-- RunningOrderControl&#45;&gt;MosFile -->
<g id="edge19" class="edge">
<title>RunningOrderControl&#45;&gt;MosFile</title>
<path fill="none" stroke="black" d="M89.88,-680.53C81.19,-678.49 72.36,-676.42 64.2,-674.5"/>
<polygon fill="black" stroke="black" points="64.82,-671.05 54.29,-672.17 63.22,-677.86 64.82,-671.05"/>
</g>
<!-- RunningOrderEnd -->
<g id="node21" class="node">
<title>RunningOrderEnd</title>
<polygon fill="#2980b9" stroke="#2980b9" points="191,-657 97,-657 97,-621 191,-621 191,-657"/>
<text text-anchor="middle" x="144" y="-636.5" font-family="Sans" font-size="10.00" fill="#ffffff">RunningOrderEnd</text>
</g>
<!-- RunningOrderEnd&#45;&gt;MosFile -->
<g id="edge20" class="edge">
<title>RunningOrderEnd&#45;&gt;MosFile</title>
<path fill="none" stroke="black" d="M96.89,-649.83C86.01,-652.38 74.58,-655.06 64.21,-657.5"/>
<polygon fill="black" stroke="black" points="63.2,-654.14 54.27,-659.83 64.8,-660.95 63.2,-654.14"/>
</g>
<!-- RunningOrderReplace -->
<g id="node22" class="node">
<title>RunningOrderReplace</title>
<polygon fill="#2980b9" stroke="#2980b9" points="347,-765 234,-765 234,-729 347,-729 347,-765"/>
<text text-anchor="middle" x="290.5" y="-744.5" font-family="Sans" font-size="10.00" fill="#ffffff">RunningOrderReplace</text>
</g>
<!-- RunningOrderReplace&#45;&gt;RunningOrder -->
<g id="edge21" class="edge">
<title>RunningOrderReplace&#45;&gt;RunningOrder</title>
<path fill="none" stroke="black" d="M233.63,-747C220.22,-747 206.02,-747 193,-747"/>
<polygon fill="black" stroke="black" points="192.85,-743.5 182.85,-747 192.85,-750.5 192.85,-743.5"/>
</g>
<!-- StoryAppend -->
<g id="node23" class="node">
<title>StoryAppend</title>
<polygon fill="#2980b9" stroke="#2980b9" points="180.5,-603 107.5,-603 107.5,-567 180.5,-567 180.5,-603"/>
<text text-anchor="middle" x="144" y="-582.5" font-family="Sans" font-size="10.00" fill="#ffffff">StoryAppend</text>
</g>
<!-- StoryAppend&#45;&gt;MosFile -->
<g id="edge22" class="edge">
<title>StoryAppend&#45;&gt;MosFile</title>
<path fill="none" stroke="black" d="M107.24,-601.69C101.34,-604.88 95.39,-608.36 90,-612 77.34,-620.55 64.43,-631.39 53.69,-641.11"/>
<polygon fill="black" stroke="black" points="51.26,-638.58 46.29,-647.94 56.01,-643.73 51.26,-638.58"/>
</g>
<!-- StoryDelete -->
<g id="node24" class="node">
<title>StoryDelete</title>
<polygon fill="#2980b9" stroke="#2980b9" points="178,-549 110,-549 110,-513 178,-513 178,-549"/>
<text text-anchor="middle" x="144" y="-528.5" font-family="Sans" font-size="10.00" fill="#ffffff">StoryDelete</text>
</g>
<!-- StoryDelete&#45;&gt;MosFile -->
<g id="edge23" class="edge">
<title>StoryDelete&#45;&gt;MosFile</title>
<path fill="none" stroke="black" d="M109.95,-544.1C102.85,-547.89 95.76,-552.52 90,-558 66.15,-580.69 48.74,-614.59 38.54,-638.34"/>
<polygon fill="black" stroke="black" points="35.2,-637.26 34.62,-647.84 41.67,-639.93 35.2,-637.26"/>
</g>
<!-- StoryInsert -->
<g id="node25" class="node">
<title>StoryInsert</title>
<polygon fill="#2980b9" stroke="#2980b9" points="176.5,-495 111.5,-495 111.5,-459 176.5,-459 176.5,-495"/>
<text text-anchor="middle" x="144" y="-474.5" font-family="Sans" font-size="10.00" fill="#ffffff">StoryInsert</text>
</g>
<!-- StoryInsert&#45;&gt;MosFile -->
<g id="edge24" class="edge">
<title>StoryInsert&#45;&gt;MosFile</title>
<path fill="none" stroke="black" d="M111.23,-488.45C103.5,-492.43 95.8,-497.55 90,-504 55.23,-542.65 39.16,-602.85 32.38,-637.95"/>
<polygon fill="black" stroke="black" points="28.9,-637.52 30.56,-647.99 35.79,-638.77 28.9,-637.52"/>
</g>
<!-- StoryMove -->
<g id="node26" class="node">
<title>StoryMove</title>
<polygon fill="#2980b9" stroke="#2980b9" points="176,-441 112,-441 112,-405 176,-405 176,-441"/>
<text text-anchor="middle" x="144" y="-420.5" font-family="Sans" font-size="10.00" fill="#ffffff">StoryMove</text>
</g>
<!-- StoryMove&#45;&gt;MosFile -->
<g id="edge25" class="edge">
<title>StoryMove&#45;&gt;MosFile</title>
<path fill="none" stroke="black" d="M111.95,-433.56C103.85,-437.61 95.78,-442.99 90,-450 44.25,-505.48 32.24,-593.03 29.1,-637.72"/>
<polygon fill="black" stroke="black" points="25.6,-637.66 28.49,-647.86 32.59,-638.08 25.6,-637.66"/>
</g>
<!-- StoryReplace -->
<g id="node27" class="node">
<title>StoryReplace</title>
<polygon fill="#2980b9" stroke="#2980b9" points="182,-387 106,-387 106,-351 182,-351 182,-387"/>
<text text-anchor="middle" x="144" y="-366.5" font-family="Sans" font-size="10.00" fill="#ffffff">StoryReplace</text>
</g>
<!-- StoryReplace&#45;&gt;MosFile -->
<g id="edge26" class="edge">
<title>StoryReplace&#45;&gt;MosFile</title>
<path fill="none" stroke="black" d="M105.95,-382.5C99.92,-386.1 94.26,-390.55 90,-396 33.11,-468.89 26.7,-584.58 27.04,-637.67"/>
<polygon fill="black" stroke="black" points="23.54,-637.77 27.19,-647.72 30.54,-637.67 23.54,-637.77"/>
</g>
<!-- StorySend -->
<g id="node28" class="node">
<title>StorySend</title>
<polygon fill="#2980b9" stroke="#2980b9" points="175,-333 113,-333 113,-297 175,-297 175,-333"/>
<text text-anchor="middle" x="144" y="-312.5" font-family="Sans" font-size="10.00" fill="#ffffff">StorySend</text>
</g>
<!-- StorySend&#45;&gt;MosFile -->
<g id="edge27" class="edge">
<title>StorySend&#45;&gt;MosFile</title>
<path fill="none" stroke="black" d="M112.92,-324.56C104.34,-328.66 95.77,-334.32 90,-342 54.81,-388.83 36.27,-567.69 30.24,-637.68"/>
<polygon fill="black" stroke="black" points="26.73,-637.69 29.38,-647.94 33.71,-638.27 26.73,-637.69"/>
</g>
</g>
</svg>
