<?xml version="1.0" encoding="UTF-8" standalone="no"?>
<!DOCTYPE svg PUBLIC "-//W3C//DTD SVG 1.1//EN"
 "http://www.w3.org/Graphics/SVG/1.1/DTD/svg11.dtd">
<!-- Generated by graphviz version 2.43.0 (0)
 -->
<!-- Title: classes Pages: 1 -->
<svg width="350pt" height="1043pt"
 viewBox="0.00 0.00 350.00 1043.00" xmlns="http://www.w3.org/2000/svg" xmlns:xlink="http://www.w3.org/1999/xlink">
<g id="graph0" class="graph" transform="scale(1 1) rotate(0) translate(4 1039)">
<title>classes</title>
<polygon fill="white" stroke="transparent" points="-4,4 -4,-1039 346,-1039 346,4 -4,4"/>
<!-- ElementAction -->
<g id="node1" class="node">
<title>ElementAction</title>
<polygon fill="#9ec6e0" stroke="#9ec6e0" points="195,-279 107,-279 107,-243 195,-243 195,-279"/>
<text text-anchor="middle" x="151" y="-258.5" font-family="Sans" font-size="10.00" fill="#000000">ElementAction</text>
</g>
<!-- MosFile -->
<g id="node2" class="node">
<title>MosFile</title>
<polygon fill="#9ec6e0" stroke="#9ec6e0" points="54,-657 0,-657 0,-621 54,-621 54,-657"/>
<text text-anchor="middle" x="27" y="-636.5" font-family="Sans" font-size="10.00" fill="#000000">MosFile</text>
</g>
<!-- ElementAction&#45;&gt;MosFile -->
<g id="edge11" class="edge">
<title>ElementAction&#45;&gt;MosFile</title>
<path fill="none" stroke="black" d="M106.95,-274.05C100.49,-277.66 94.49,-282.23 90,-288 50.69,-338.5 34.43,-536.51 29.63,-610.71"/>
<polygon fill="black" stroke="black" points="26.14,-610.53 29.01,-620.73 33.12,-610.97 26.14,-610.53"/>
</g>
<!-- EAItemDelete -->
<g id="node3" class="node">
<title>EAItemDelete</title>
<polygon fill="#2980b9" stroke="#2980b9" points="337,-522 253,-522 253,-486 337,-486 337,-522"/>
<text text-anchor="middle" x="295" y="-501.5" font-family="Sans" font-size="10.00" fill="#ffffff">EAItemDelete</text>
</g>
<!-- EAItemDelete&#45;&gt;ElementAction -->
<g id="edge1" class="edge">
<title>EAItemDelete&#45;&gt;ElementAction</title>
<path fill="none" stroke="black" d="M256.44,-485.97C253.25,-483.31 250.35,-480.33 248,-477 198.73,-407.11 264.97,-355.13 212,-288 209.63,-285 206.86,-282.32 203.82,-279.93"/>
<polygon fill="black" stroke="black" points="205.55,-276.88 195.29,-274.27 201.68,-282.71 205.55,-276.88"/>
</g>
<!-- EAItemInsert -->
<g id="node4" class="node">
<title>EAItemInsert</title>
<polygon fill="#2980b9" stroke="#2980b9" points="335,-468 255,-468 255,-432 335,-432 335,-468"/>
<text text-anchor="middle" x="295" y="-447.5" font-family="Sans" font-size="10.00" fill="#ffffff">EAItemInsert</text>
</g>
<!-- EAItemInsert&#45;&gt;ElementAction -->
<g id="edge2" class="edge">
<title>EAItemInsert&#45;&gt;ElementAction</title>
<path fill="none" stroke="black" d="M256.68,-431.79C253.44,-429.17 250.47,-426.24 248,-423 210.4,-373.58 252.21,-335.32 212,-288 209.56,-285.13 206.76,-282.56 203.73,-280.24"/>
<polygon fill="black" stroke="black" points="205.54,-277.24 195.25,-274.72 201.71,-283.11 205.54,-277.24"/>
</g>
<!-- EAItemMove -->
<g id="node5" class="node">
<title>EAItemMove</title>
<polygon fill="#2980b9" stroke="#2980b9" points="334.5,-414 255.5,-414 255.5,-378 334.5,-378 334.5,-414"/>
<text text-anchor="middle" x="295" y="-393.5" font-family="Sans" font-size="10.00" fill="#ffffff">EAItemMove</text>
</g>
<!-- EAItemMove&#45;&gt;ElementAction -->
<g id="edge3" class="edge">
<title>EAItemMove&#45;&gt;ElementAction</title>
<path fill="none" stroke="black" d="M257.65,-377.71C254.14,-375.08 250.84,-372.18 248,-369 221.75,-339.62 239.79,-315.92 212,-288 209.51,-285.5 206.74,-283.2 203.8,-281.1"/>
<polygon fill="black" stroke="black" points="205.49,-278.03 195.15,-275.7 201.78,-283.97 205.49,-278.03"/>
</g>
<!-- EAItemReplace -->
<g id="node6" class="node">
<title>EAItemReplace</title>
<polygon fill="#2980b9" stroke="#2980b9" points="340.5,-360 249.5,-360 249.5,-324 340.5,-324 340.5,-360"/>
<text text-anchor="middle" x="295" y="-339.5" font-family="Sans" font-size="10.00" fill="#ffffff">EAItemReplace</text>
</g>
<!-- EAItemReplace&#45;&gt;ElementAction -->
<g id="edge4" class="edge">
<title>EAItemReplace&#45;&gt;ElementAction</title>
<path fill="none" stroke="black" d="M262.04,-323.87C257.28,-320.99 252.47,-317.98 248,-315 231.35,-303.92 229.22,-298.17 212,-288 209.51,-286.53 206.93,-285.09 204.29,-283.68"/>
<polygon fill="black" stroke="black" points="205.69,-280.47 195.19,-279.05 202.52,-286.7 205.69,-280.47"/>
</g>
<!-- EAItemSwap -->
<g id="node7" class="node">
<title>EAItemSwap</title>
<polygon fill="#2980b9" stroke="#2980b9" points="334,-306 256,-306 256,-270 334,-270 334,-306"/>
<text text-anchor="middle" x="295" y="-285.5" font-family="Sans" font-size="10.00" fill="#ffffff">EAItemSwap</text>
</g>
<!-- EAItemSwap&#45;&gt;ElementAction -->
<g id="edge5" class="edge">
<title>EAItemSwap&#45;&gt;ElementAction</title>
<path fill="none" stroke="black" d="M255.95,-280.76C240.44,-277.82 222.23,-274.35 205.42,-271.16"/>
<polygon fill="black" stroke="black" points="205.65,-267.64 195.18,-269.21 204.35,-274.52 205.65,-267.64"/>
</g>
<!-- EAStoryDelete -->
<g id="node8" class="node">
<title>EAStoryDelete</title>
<polygon fill="#2980b9" stroke="#2980b9" points="338.5,-252 251.5,-252 251.5,-216 338.5,-216 338.5,-252"/>
<text text-anchor="middle" x="295" y="-231.5" font-family="Sans" font-size="10.00" fill="#ffffff">EAStoryDelete</text>
</g>
<!-- EAStoryDelete&#45;&gt;ElementAction -->
<g id="edge6" class="edge">
<title>EAStoryDelete&#45;&gt;ElementAction</title>
<path fill="none" stroke="black" d="M251.4,-242.1C236.79,-244.88 220.26,-248.02 204.93,-250.94"/>
<polygon fill="black" stroke="black" points="204.24,-247.51 195.07,-252.81 205.54,-254.38 204.24,-247.51"/>
</g>
<!-- EAStoryInsert -->
<g id="node9" class="node">
<title>EAStoryInsert</title>
<polygon fill="#2980b9" stroke="#2980b9" points="336.5,-198 253.5,-198 253.5,-162 336.5,-162 336.5,-198"/>
<text text-anchor="middle" x="295" y="-177.5" font-family="Sans" font-size="10.00" fill="#ffffff">EAStoryInsert</text>
</g>
<!-- EAStoryInsert&#45;&gt;ElementAction -->
<g id="edge7" class="edge">
<title>EAStoryInsert&#45;&gt;ElementAction</title>
<path fill="none" stroke="black" d="M262.13,-198.18C241.58,-209.9 214.66,-225.26 192.58,-237.85"/>
<polygon fill="black" stroke="black" points="190.71,-234.89 183.76,-242.88 194.18,-240.97 190.71,-234.89"/>
</g>
<!-- EAStoryMove -->
<g id="node10" class="node">
<title>EAStoryMove</title>
<polygon fill="#2980b9" stroke="#2980b9" points="336,-144 254,-144 254,-108 336,-108 336,-144"/>
<text text-anchor="middle" x="295" y="-123.5" font-family="Sans" font-size="10.00" fill="#ffffff">EAStoryMove</text>
</g>
<!-- EAStoryMove&#45;&gt;ElementAction -->
<g id="edge8" class="edge">
<title>EAStoryMove&#45;&gt;ElementAction</title>
<path fill="none" stroke="black" d="M260.01,-144.29C255.83,-147.02 251.72,-149.94 248,-153 218.13,-177.53 189.44,-211.65 171.33,-234.94"/>
<polygon fill="black" stroke="black" points="168.46,-232.92 165.15,-242.99 174.02,-237.18 168.46,-232.92"/>
</g>
<!-- EAStoryReplace -->
<g id="node11" class="node">
<title>EAStoryReplace</title>
<polygon fill="#2980b9" stroke="#2980b9" points="342,-90 248,-90 248,-54 342,-54 342,-90"/>
<text text-anchor="middle" x="295" y="-69.5" font-family="Sans" font-size="10.00" fill="#ffffff">EAStoryReplace</text>
</g>
<!-- EAStoryReplace&#45;&gt;ElementAction -->
<g id="edge9" class="edge">
<title>EAStoryReplace&#45;&gt;ElementAction</title>
<path fill="none" stroke="black" d="M258.48,-90.3C254.74,-92.95 251.15,-95.86 248,-99 207.94,-138.89 178.2,-198.81 163.11,-233.5"/>
<polygon fill="black" stroke="black" points="159.77,-232.42 159.08,-242.99 166.21,-235.16 159.77,-232.42"/>
</g>
<!-- EAStorySwap -->
<g id="node12" class="node">
<title>EAStorySwap</title>
<polygon fill="#2980b9" stroke="#2980b9" points="335.5,-36 254.5,-36 254.5,0 335.5,0 335.5,-36"/>
<text text-anchor="middle" x="295" y="-15.5" font-family="Sans" font-size="10.00" fill="#ffffff">EAStorySwap</text>
</g>
<!-- EAStorySwap&#45;&gt;ElementAction -->
<g id="edge10" class="edge">
<title>EAStorySwap&#45;&gt;ElementAction</title>
<path fill="none" stroke="black" d="M257.65,-36.29C254.14,-38.92 250.84,-41.82 248,-45 197.63,-101.38 170.04,-188.48 158.53,-232.88"/>
<polygon fill="black" stroke="black" points="155.1,-232.15 156.07,-242.7 161.89,-233.85 155.1,-232.15"/>
</g>
<!-- ItemDelete -->
<g id="node13" class="node">
<title>ItemDelete</title>
<polygon fill="#2980b9" stroke="#2980b9" points="186.5,-1035 115.5,-1035 115.5,-999 186.5,-999 186.5,-1035"/>
<text text-anchor="middle" x="151" y="-1014.5" font-family="Sans" font-size="10.00" fill="#ffffff">ItemDelete</text>
</g>
<!-- ItemDelete&#45;&gt;MosFile -->
<g id="edge12" class="edge">
<title>ItemDelete&#45;&gt;MosFile</title>
<path fill="none" stroke="black" d="M115.31,-1008.03C105.81,-1003.99 96.38,-998.2 90,-990 50.69,-939.5 34.43,-741.49 29.63,-667.29"/>
<polygon fill="black" stroke="black" points="33.12,-667.03 29.01,-657.27 26.14,-667.47 33.12,-667.03"/>
</g>
<!-- ItemInsert -->
<g id="node14" class="node">
<title>ItemInsert</title>
<polygon fill="#2980b9" stroke="#2980b9" points="184.5,-981 117.5,-981 117.5,-945 184.5,-945 184.5,-981"/>
<text text-anchor="middle" x="151" y="-960.5" font-family="Sans" font-size="10.00" fill="#ffffff">ItemInsert</text>
</g>
<!-- ItemInsert&#45;&gt;MosFile -->
<g id="edge13" class="edge">
<title>ItemInsert&#45;&gt;MosFile</title>
<path fill="none" stroke="black" d="M117.35,-954.69C107.24,-950.61 96.94,-944.64 90,-936 56.64,-894.48 37.29,-733.2 30.64,-667.3"/>
<polygon fill="black" stroke="black" points="34.11,-666.82 29.65,-657.21 27.14,-667.51 34.11,-666.82"/>
</g>
<!-- ItemMoveMultiple -->
<g id="node15" class="node">
<title>ItemMoveMultiple</title>
<polygon fill="#2980b9" stroke="#2980b9" points="204,-927 98,-927 98,-891 204,-891 204,-927"/>
<text text-anchor="middle" x="151" y="-906.5" font-family="Sans" font-size="10.00" fill="#ffffff">ItemMoveMultiple</text>
</g>
<!-- ItemMoveMultiple&#45;&gt;MosFile -->
<g id="edge14" class="edge">
<title>ItemMoveMultiple&#45;&gt;MosFile</title>
<path fill="none" stroke="black" d="M99.65,-890.84C96.08,-888.25 92.79,-885.32 90,-882 37.14,-819.09 28.52,-716.87 27.64,-667.49"/>
<polygon fill="black" stroke="black" points="31.14,-667.2 27.56,-657.23 24.14,-667.26 31.14,-667.2"/>
</g>
<!-- ItemReplace -->
<g id="node16" class="node">
<title>ItemReplace</title>
<polygon fill="#2980b9" stroke="#2980b9" points="190,-873 112,-873 112,-837 190,-837 190,-873"/>
<text text-anchor="middle" x="151" y="-852.5" font-family="Sans" font-size="10.00" fill="#ffffff">ItemReplace</text>
</g>
<!-- ItemReplace&#45;&gt;MosFile -->
<g id="edge15" class="edge">
<title>ItemReplace&#45;&gt;MosFile</title>
<path fill="none" stroke="black" d="M111.96,-843.6C103.86,-839.72 95.96,-834.62 90,-828 48.56,-781.92 34.75,-707.57 30.2,-667.22"/>
<polygon fill="black" stroke="black" points="33.68,-666.86 29.19,-657.27 26.72,-667.57 33.68,-666.86"/>
</g>
<!-- MetaDataReplace -->
<g id="node17" class="node">
<title>MetaDataReplace</title>
<polygon fill="#2980b9" stroke="#2980b9" points="203,-819 99,-819 99,-783 203,-783 203,-819"/>
<text text-anchor="middle" x="151" y="-798.5" font-family="Sans" font-size="10.00" fill="#ffffff">MetaDataReplace</text>
</g>
<!-- MetaDataReplace&#45;&gt;MosFile -->
<g id="edge16" class="edge">
<title>MetaDataReplace&#45;&gt;MosFile</title>
<path fill="none" stroke="black" d="M101.16,-782.84C97.12,-780.23 93.32,-777.3 90,-774 59.87,-744.1 42.85,-696.84 34.54,-666.91"/>
<polygon fill="black" stroke="black" points="37.89,-665.88 31.96,-657.1 31.12,-667.66 37.89,-665.88"/>
</g>
<!-- RunningOrder -->
<g id="node18" class="node">
<title>RunningOrder</title>
<polygon fill="#2980b9" stroke="#2980b9" points="192.5,-765 109.5,-765 109.5,-729 192.5,-729 192.5,-765"/>
<text text-anchor="middle" x="151" y="-744.5" font-family="Sans" font-size="10.00" fill="#ffffff">RunningOrder</text>
</g>
<!-- RunningOrder&#45;&gt;MosFile -->
<g id="edge17" class="edge">
<title>RunningOrder&#45;&gt;MosFile</title>
<path fill="none" stroke="black" d="M109.36,-732.04C102.55,-728.62 95.82,-724.61 90,-720 71.09,-705.01 54.75,-683.03 43.59,-665.75"/>
<polygon fill="black" stroke="black" points="46.52,-663.83 38.25,-657.2 40.58,-667.54 46.52,-663.83"/>
</g>
<!-- RunningOrderEnd -->
<g id="node19" class="node">
<title>RunningOrderEnd</title>
<polygon fill="#2980b9" stroke="#2980b9" points="201.5,-711 100.5,-711 100.5,-675 201.5,-675 201.5,-711"/>
<text text-anchor="middle" x="151" y="-690.5" font-family="Sans" font-size="10.00" fill="#ffffff">RunningOrderEnd</text>
</g>
<!-- RunningOrderEnd&#45;&gt;MosFile -->
<g id="edge18" class="edge">
<title>RunningOrderEnd&#45;&gt;MosFile</title>
<path fill="none" stroke="black" d="M109.04,-674.87C94.3,-668.35 77.81,-661.05 63.57,-654.74"/>
<polygon fill="black" stroke="black" points="64.68,-651.41 54.12,-650.56 61.85,-657.81 64.68,-651.41"/>
</g>
<!-- RunningOrderReplace -->
<g id="node20" class="node">
<title>RunningOrderReplace</title>
<polygon fill="#2980b9" stroke="#2980b9" points="212,-657 90,-657 90,-621 212,-621 212,-657"/>
<text text-anchor="middle" x="151" y="-636.5" font-family="Sans" font-size="10.00" fill="#ffffff">RunningOrderReplace</text>
</g>
<!-- RunningOrderReplace&#45;&gt;MosFile -->
<g id="edge19" class="edge">
<title>RunningOrderReplace&#45;&gt;MosFile</title>
<path fill="none" stroke="black" d="M89.71,-639C81.03,-639 72.33,-639 64.31,-639"/>
<polygon fill="black" stroke="black" points="64.23,-635.5 54.23,-639 64.23,-642.5 64.23,-635.5"/>
</g>
<!-- StoryAppend -->
<g id="node21" class="node">
<title>StoryAppend</title>
<polygon fill="#2980b9" stroke="#2980b9" points="190.5,-603 111.5,-603 111.5,-567 190.5,-567 190.5,-603"/>
<text text-anchor="middle" x="151" y="-582.5" font-family="Sans" font-size="10.00" fill="#ffffff">StoryAppend</text>
</g>
<!-- StoryAppend&#45;&gt;MosFile -->
<g id="edge20" class="edge">
<title>StoryAppend&#45;&gt;MosFile</title>
<path fill="none" stroke="black" d="M111.4,-602.09C96.05,-608.88 78.51,-616.64 63.48,-623.29"/>
<polygon fill="black" stroke="black" points="61.75,-620.23 54.02,-627.48 64.58,-626.63 61.75,-620.23"/>
</g>
<!-- StoryDelete -->
<g id="node22" class="node">
<title>StoryDelete</title>
<polygon fill="#2980b9" stroke="#2980b9" points="188,-549 114,-549 114,-513 188,-513 188,-549"/>
<text text-anchor="middle" x="151" y="-528.5" font-family="Sans" font-size="10.00" fill="#ffffff">StoryDelete</text>
</g>
<!-- StoryDelete&#45;&gt;MosFile -->
<g id="edge21" class="edge">
<title>StoryDelete&#45;&gt;MosFile</title>
<path fill="none" stroke="black" d="M113.76,-543.84C105.49,-547.68 97.07,-552.4 90,-558 71.09,-572.99 54.75,-594.97 43.59,-612.25"/>
<polygon fill="black" stroke="black" points="40.58,-610.46 38.25,-620.8 46.52,-614.17 40.58,-610.46"/>
</g>
<!-- StoryInsert -->
<g id="node23" class="node">
<title>StoryInsert</title>
<polygon fill="#2980b9" stroke="#2980b9" points="186,-495 116,-495 116,-459 186,-459 186,-495"/>
<text text-anchor="middle" x="151" y="-474.5" font-family="Sans" font-size="10.00" fill="#ffffff">StoryInsert</text>
</g>
<!-- StoryInsert&#45;&gt;MosFile -->
<g id="edge22" class="edge">
<title>StoryInsert&#45;&gt;MosFile</title>
<path fill="none" stroke="black" d="M115.93,-487.34C106.67,-491.39 97.22,-496.84 90,-504 59.87,-533.9 42.85,-581.16 34.54,-611.09"/>
<polygon fill="black" stroke="black" points="31.12,-610.34 31.96,-620.9 37.89,-612.12 31.12,-610.34"/>
</g>
<!-- StoryMove -->
<g id="node24" class="node">
<title>StoryMove</title>
<polygon fill="#2980b9" stroke="#2980b9" points="185.5,-441 116.5,-441 116.5,-405 185.5,-405 185.5,-441"/>
<text text-anchor="middle" x="151" y="-420.5" font-family="Sans" font-size="10.00" fill="#ffffff">StoryMove</text>
</g>
<!-- StoryMove&#45;&gt;MosFile -->
<g id="edge23" class="edge">
<title>StoryMove&#45;&gt;MosFile</title>
<path fill="none" stroke="black" d="M116.33,-432.42C106.75,-436.5 97.03,-442.19 90,-450 48.56,-496.08 34.75,-570.43 30.2,-610.78"/>
<polygon fill="black" stroke="black" points="26.72,-610.43 29.19,-620.73 33.68,-611.14 26.72,-610.43"/>
</g>
<!-- StoryReplace -->
<g id="node25" class="node">
<title>StoryReplace</title>
<polygon fill="#2980b9" stroke="#2980b9" points="191.5,-387 110.5,-387 110.5,-351 191.5,-351 191.5,-387"/>
<text text-anchor="middle" x="151" y="-366.5" font-family="Sans" font-size="10.00" fill="#ffffff">StoryReplace</text>
</g>
<!-- StoryReplace&#45;&gt;MosFile -->
<g id="edge24" class="edge">
<title>StoryReplace&#45;&gt;MosFile</title>
<path fill="none" stroke="black" d="M110.39,-380.72C102.75,-384.54 95.44,-389.53 90,-396 37.14,-458.91 28.52,-561.13 27.64,-610.51"/>
<polygon fill="black" stroke="black" points="24.14,-610.74 27.56,-620.77 31.14,-610.8 24.14,-610.74"/>
</g>
<!-- StorySend -->
<g id="node26" class="node">
<title>StorySend</title>
<polygon fill="#2980b9" stroke="#2980b9" points="184,-333 118,-333 118,-297 184,-297 184,-333"/>
<text text-anchor="middle" x="151" y="-312.5" font-family="Sans" font-size="10.00" fill="#ffffff">StorySend</text>
</g>
<!-- StorySend&#45;&gt;MosFile -->
<g id="edge25" class="edge">
<title>StorySend&#45;&gt;MosFile</title>
<path fill="none" stroke="black" d="M117.97,-323.06C107.66,-327.15 97.08,-333.18 90,-342 56.64,-383.52 37.29,-544.8 30.64,-610.7"/>
<polygon fill="black" stroke="black" points="27.14,-610.49 29.65,-620.79 34.11,-611.18 27.14,-610.49"/>
</g>
</g>
</svg>
