<?xml version="1.0" encoding="UTF-8" standalone="no"?>
<!DOCTYPE svg PUBLIC "-//W3C//DTD SVG 1.1//EN"
 "http://www.w3.org/Graphics/SVG/1.1/DTD/svg11.dtd">
<!-- Generated by graphviz version 2.43.0 (0)
 -->
<!-- Title: %3 Pages: 1 -->
<svg width="375pt" height="1043pt"
 viewBox="0.00 0.00 375.00 1043.00" xmlns="http://www.w3.org/2000/svg" xmlns:xlink="http://www.w3.org/1999/xlink">
<g id="graph0" class="graph" transform="scale(1 1) rotate(0) translate(4 1039)">
<title>%3</title>
<polygon fill="white" stroke="transparent" points="-4,4 -4,-1039 371,-1039 371,4 -4,4"/>
<!-- MosFile -->
<g id="node1" class="node">
<title>MosFile</title>
<polygon fill="#9ec6e0" stroke="#9ec6e0" points="54,-630 0,-630 0,-594 54,-594 54,-630"/>
<text text-anchor="middle" x="27" y="-609.5" font-family="Sans" font-size="10.00" fill="#000000">MosFile</text>
</g>
<!-- RunningOrder -->
<g id="node2" class="node">
<title>RunningOrder</title>
<polygon fill="#2980b9" stroke="#2980b9" points="191,-1035 108,-1035 108,-999 191,-999 191,-1035"/>
<text text-anchor="middle" x="149.5" y="-1014.5" font-family="Sans" font-size="10.00" fill="#ffffff">RunningOrder</text>
</g>
<!-- RunningOrder&#45;&gt;MosFile -->
<g id="edge1" class="edge">
<title>RunningOrder&#45;&gt;MosFile</title>
<path fill="none" stroke="black" d="M107.94,-1004.66C101.08,-1000.93 94.67,-996.14 90,-990 47.98,-934.78 33.27,-718.4 29.26,-640.31"/>
<polygon fill="black" stroke="black" points="32.76,-640.05 28.77,-630.23 25.76,-640.39 32.76,-640.05"/>
</g>
<!-- StorySend -->
<g id="node3" class="node">
<title>StorySend</title>
<polygon fill="#2980b9" stroke="#2980b9" points="182.5,-981 116.5,-981 116.5,-945 182.5,-945 182.5,-981"/>
<text text-anchor="middle" x="149.5" y="-960.5" font-family="Sans" font-size="10.00" fill="#ffffff">StorySend</text>
</g>
<!-- StorySend&#45;&gt;MosFile -->
<g id="edge2" class="edge">
<title>StorySend&#45;&gt;MosFile</title>
<path fill="none" stroke="black" d="M116.26,-954.46C106.5,-950.37 96.62,-944.46 90,-936 53.91,-889.86 35.91,-710.59 30.13,-640.4"/>
<polygon fill="black" stroke="black" points="33.6,-639.8 29.31,-630.11 26.62,-640.36 33.6,-639.8"/>
</g>
<!-- MetaDataReplace -->
<g id="node4" class="node">
<title>MetaDataReplace</title>
<polygon fill="#2980b9" stroke="#2980b9" points="201.5,-927 97.5,-927 97.5,-891 201.5,-891 201.5,-927"/>
<text text-anchor="middle" x="149.5" y="-906.5" font-family="Sans" font-size="10.00" fill="#ffffff">MetaDataReplace</text>
</g>
<!-- MetaDataReplace&#45;&gt;MosFile -->
<g id="edge3" class="edge">
<title>MetaDataReplace&#45;&gt;MosFile</title>
<path fill="none" stroke="black" d="M99.59,-890.99C96.02,-888.37 92.75,-885.39 90,-882 59.75,-844.75 38.99,-701.56 31.31,-640.19"/>
<polygon fill="black" stroke="black" points="34.75,-639.56 30.06,-630.06 27.81,-640.41 34.75,-639.56"/>
</g>
<!-- StoryAppend -->
<g id="node5" class="node">
<title>StoryAppend</title>
<polygon fill="#2980b9" stroke="#2980b9" points="189,-873 110,-873 110,-837 189,-837 189,-873"/>
<text text-anchor="middle" x="149.5" y="-852.5" font-family="Sans" font-size="10.00" fill="#ffffff">StoryAppend</text>
</g>
<!-- StoryAppend&#45;&gt;MosFile -->
<g id="edge4" class="edge">
<title>StoryAppend&#45;&gt;MosFile</title>
<path fill="none" stroke="black" d="M109.71,-842.84C102.36,-839.06 95.32,-834.2 90,-828 43.19,-773.42 31.64,-685.47 28.85,-640.49"/>
<polygon fill="black" stroke="black" points="32.33,-640.09 28.32,-630.29 25.34,-640.45 32.33,-640.09"/>
</g>
<!-- StoryDelete -->
<g id="node6" class="node">
<title>StoryDelete</title>
<polygon fill="#2980b9" stroke="#2980b9" points="186.5,-819 112.5,-819 112.5,-783 186.5,-783 186.5,-819"/>
<text text-anchor="middle" x="149.5" y="-798.5" font-family="Sans" font-size="10.00" fill="#ffffff">StoryDelete</text>
</g>
<!-- StoryDelete&#45;&gt;MosFile -->
<g id="edge5" class="edge">
<title>StoryDelete&#45;&gt;MosFile</title>
<path fill="none" stroke="black" d="M112.24,-789.53C104.12,-785.62 96.11,-780.54 90,-774 54.49,-736.03 38.68,-675.6 32.14,-640.27"/>
<polygon fill="black" stroke="black" points="35.55,-639.42 30.4,-630.16 28.65,-640.61 35.55,-639.42"/>
</g>
<!-- ItemDelete -->
<g id="node7" class="node">
<title>ItemDelete</title>
<polygon fill="#2980b9" stroke="#2980b9" points="185,-765 114,-765 114,-729 185,-729 185,-765"/>
<text text-anchor="middle" x="149.5" y="-744.5" font-family="Sans" font-size="10.00" fill="#ffffff">ItemDelete</text>
</g>
<!-- ItemDelete&#45;&gt;MosFile -->
<g id="edge6" class="edge">
<title>ItemDelete&#45;&gt;MosFile</title>
<path fill="none" stroke="black" d="M113.84,-735.26C105.41,-731.31 96.85,-726.27 90,-720 65.72,-697.78 48.39,-663.79 38.33,-639.89"/>
<polygon fill="black" stroke="black" points="41.46,-638.29 34.47,-630.33 34.97,-640.91 41.46,-638.29"/>
</g>
<!-- StoryInsert -->
<g id="node8" class="node">
<title>StoryInsert</title>
<polygon fill="#2980b9" stroke="#2980b9" points="184.5,-711 114.5,-711 114.5,-675 184.5,-675 184.5,-711"/>
<text text-anchor="middle" x="149.5" y="-690.5" font-family="Sans" font-size="10.00" fill="#ffffff">StoryInsert</text>
</g>
<!-- StoryInsert&#45;&gt;MosFile -->
<g id="edge7" class="edge">
<title>StoryInsert&#45;&gt;MosFile</title>
<path fill="none" stroke="black" d="M114.22,-679.16C106.04,-675.32 97.51,-670.86 90,-666 77.08,-657.64 64.04,-646.74 53.28,-636.92"/>
<polygon fill="black" stroke="black" points="55.58,-634.28 45.88,-630.02 50.81,-639.4 55.58,-634.28"/>
</g>
<!-- ItemInsert -->
<g id="node9" class="node">
<title>ItemInsert</title>
<polygon fill="#2980b9" stroke="#2980b9" points="183,-657 116,-657 116,-621 183,-621 183,-657"/>
<text text-anchor="middle" x="149.5" y="-636.5" font-family="Sans" font-size="10.00" fill="#ffffff">ItemInsert</text>
</g>
<!-- ItemInsert&#45;&gt;MosFile -->
<g id="edge8" class="edge">
<title>ItemInsert&#45;&gt;MosFile</title>
<path fill="none" stroke="black" d="M115.89,-631.69C99.84,-628.1 80.46,-623.75 63.98,-620.06"/>
<polygon fill="black" stroke="black" points="64.68,-616.63 54.15,-617.86 63.15,-623.46 64.68,-616.63"/>
</g>
<!-- StoryMove -->
<g id="node10" class="node">
<title>StoryMove</title>
<polygon fill="#2980b9" stroke="#2980b9" points="184,-603 115,-603 115,-567 184,-567 184,-603"/>
<text text-anchor="middle" x="149.5" y="-582.5" font-family="Sans" font-size="10.00" fill="#ffffff">StoryMove</text>
</g>
<!-- StoryMove&#45;&gt;MosFile -->
<g id="edge9" class="edge">
<title>StoryMove&#45;&gt;MosFile</title>
<path fill="none" stroke="black" d="M114.93,-592.52C99.17,-596.05 80.35,-600.27 64.25,-603.88"/>
<polygon fill="black" stroke="black" points="63.13,-600.54 54.13,-606.14 64.66,-607.37 63.13,-600.54"/>
</g>
<!-- ItemMoveMultiple -->
<g id="node11" class="node">
<title>ItemMoveMultiple</title>
<polygon fill="#2980b9" stroke="#2980b9" points="202.5,-549 96.5,-549 96.5,-513 202.5,-513 202.5,-549"/>
<text text-anchor="middle" x="149.5" y="-528.5" font-family="Sans" font-size="10.00" fill="#ffffff">ItemMoveMultiple</text>
</g>
<!-- ItemMoveMultiple&#45;&gt;MosFile -->
<g id="edge10" class="edge">
<title>ItemMoveMultiple&#45;&gt;MosFile</title>
<path fill="none" stroke="black" d="M105.56,-549.09C100.2,-551.85 94.88,-554.84 90,-558 77.08,-566.36 64.04,-577.26 53.28,-587.08"/>
<polygon fill="black" stroke="black" points="50.81,-584.6 45.88,-593.98 55.58,-589.72 50.81,-584.6"/>
</g>
<!-- StoryReplace -->
<g id="node12" class="node">
<title>StoryReplace</title>
<polygon fill="#2980b9" stroke="#2980b9" points="190,-495 109,-495 109,-459 190,-459 190,-495"/>
<text text-anchor="middle" x="149.5" y="-474.5" font-family="Sans" font-size="10.00" fill="#ffffff">StoryReplace</text>
</g>
<!-- StoryReplace&#45;&gt;MosFile -->
<g id="edge11" class="edge">
<title>StoryReplace&#45;&gt;MosFile</title>
<path fill="none" stroke="black" d="M108.96,-491.15C102.17,-494.68 95.53,-498.94 90,-504 65.72,-526.22 48.39,-560.21 38.33,-584.11"/>
<polygon fill="black" stroke="black" points="34.97,-583.09 34.47,-593.67 41.46,-585.71 34.97,-583.09"/>
</g>
<!-- ItemReplace -->
<g id="node13" class="node">
<title>ItemReplace</title>
<polygon fill="#2980b9" stroke="#2980b9" points="188.5,-441 110.5,-441 110.5,-405 188.5,-405 188.5,-441"/>
<text text-anchor="middle" x="149.5" y="-420.5" font-family="Sans" font-size="10.00" fill="#ffffff">ItemReplace</text>
</g>
<!-- ItemReplace&#45;&gt;MosFile -->
<g id="edge12" class="edge">
<title>ItemReplace&#45;&gt;MosFile</title>
<path fill="none" stroke="black" d="M110.41,-435.37C102.93,-439.15 95.65,-443.95 90,-450 54.49,-487.97 38.68,-548.4 32.14,-583.73"/>
<polygon fill="black" stroke="black" points="28.65,-583.39 30.4,-593.84 35.55,-584.58 28.65,-583.39"/>
</g>
<!-- ReadyToAir -->
<g id="node14" class="node">
<title>ReadyToAir</title>
<polygon fill="#2980b9" stroke="#2980b9" points="185,-387 114,-387 114,-351 185,-351 185,-387"/>
<text text-anchor="middle" x="149.5" y="-366.5" font-family="Sans" font-size="10.00" fill="#ffffff">ReadyToAir</text>
</g>
<!-- ReadyToAir&#45;&gt;MosFile -->
<g id="edge13" class="edge">
<title>ReadyToAir&#45;&gt;MosFile</title>
<path fill="none" stroke="black" d="M113.96,-379.11C105.12,-383.13 96.34,-388.61 90,-396 43.19,-450.58 31.64,-538.53 28.85,-583.51"/>
<polygon fill="black" stroke="black" points="25.34,-583.55 28.32,-593.71 32.33,-583.91 25.34,-583.55"/>
</g>
<!-- RunningOrderReplace -->
<g id="node15" class="node">
<title>RunningOrderReplace</title>
<polygon fill="#2980b9" stroke="#2980b9" points="367,-1035 245,-1035 245,-999 367,-999 367,-1035"/>
<text text-anchor="middle" x="306" y="-1014.5" font-family="Sans" font-size="10.00" fill="#ffffff">RunningOrderReplace</text>
</g>
<!-- RunningOrderReplace&#45;&gt;RunningOrder -->
<g id="edge14" class="edge">
<title>RunningOrderReplace&#45;&gt;RunningOrder</title>
<path fill="none" stroke="black" d="M244.82,-1017C230.51,-1017 215.37,-1017 201.51,-1017"/>
<polygon fill="black" stroke="black" points="201.2,-1013.5 191.2,-1017 201.2,-1020.5 201.2,-1013.5"/>
</g>
<!-- RunningOrderEnd -->
<g id="node16" class="node">
<title>RunningOrderEnd</title>
<polygon fill="#2980b9" stroke="#2980b9" points="200,-333 99,-333 99,-297 200,-297 200,-333"/>
<text text-anchor="middle" x="149.5" y="-312.5" font-family="Sans" font-size="10.00" fill="#ffffff">RunningOrderEnd</text>
</g>
<!-- RunningOrderEnd&#45;&gt;MosFile -->
<g id="edge15" class="edge">
<title>RunningOrderEnd&#45;&gt;MosFile</title>
<path fill="none" stroke="black" d="M99.59,-333.01C96.02,-335.63 92.75,-338.61 90,-342 59.75,-379.25 38.99,-522.44 31.31,-583.81"/>
<polygon fill="black" stroke="black" points="27.81,-583.59 30.06,-593.94 34.75,-584.44 27.81,-583.59"/>
</g>
<!-- ElementAction -->
<g id="node17" class="node">
<title>ElementAction</title>
<polygon fill="#9ec6e0" stroke="#9ec6e0" points="193.5,-279 105.5,-279 105.5,-243 193.5,-243 193.5,-279"/>
<text text-anchor="middle" x="149.5" y="-258.5" font-family="Sans" font-size="10.00" fill="#000000">ElementAction</text>
</g>
<!-- ElementAction&#45;&gt;MosFile -->
<g id="edge16" class="edge">
<title>ElementAction&#45;&gt;MosFile</title>
<path fill="none" stroke="black" d="M105.41,-274.95C99.54,-278.42 94.13,-282.71 90,-288 53.91,-334.14 35.91,-513.41 30.13,-583.6"/>
<polygon fill="black" stroke="black" points="26.62,-583.64 29.31,-593.89 33.6,-584.2 26.62,-583.64"/>
</g>
<!-- EAStoryReplace -->
<g id="node18" class="node">
<title>EAStoryReplace</title>
<polygon fill="#2980b9" stroke="#2980b9" points="353,-522 259,-522 259,-486 353,-486 353,-522"/>
<text text-anchor="middle" x="306" y="-501.5" font-family="Sans" font-size="10.00" fill="#ffffff">EAStoryReplace</text>
</g>
<!-- EAStoryReplace&#45;&gt;ElementAction -->
<g id="edge17" class="edge">
<title>EAStoryReplace&#45;&gt;ElementAction</title>
<path fill="none" stroke="black" d="M258.73,-488.96C253.52,-485.69 248.75,-481.75 245,-477 192.03,-409.87 261.65,-355.38 209,-288 206.93,-285.36 204.55,-282.96 201.95,-280.79"/>
<polygon fill="black" stroke="black" points="203.8,-277.82 193.6,-274.95 199.78,-283.55 203.8,-277.82"/>
</g>
<!-- EAItemReplace -->
<g id="node19" class="node">
<title>EAItemReplace</title>
<polygon fill="#2980b9" stroke="#2980b9" points="351.5,-468 260.5,-468 260.5,-432 351.5,-432 351.5,-468"/>
<text text-anchor="middle" x="306" y="-447.5" font-family="Sans" font-size="10.00" fill="#ffffff">EAItemReplace</text>
</g>
<!-- EAItemReplace&#45;&gt;ElementAction -->
<g id="edge18" class="edge">
<title>EAItemReplace&#45;&gt;ElementAction</title>
<path fill="none" stroke="black" d="M260.24,-435.41C254.53,-432.05 249.22,-427.96 245,-423 204.79,-375.68 248.98,-335.51 209,-288 206.88,-285.48 204.46,-283.17 201.86,-281.08"/>
<polygon fill="black" stroke="black" points="203.79,-278.16 193.56,-275.39 199.83,-283.93 203.79,-278.16"/>
</g>
<!-- EAStoryDelete -->
<g id="node20" class="node">
<title>EAStoryDelete</title>
<polygon fill="#2980b9" stroke="#2980b9" points="349.5,-414 262.5,-414 262.5,-378 349.5,-378 349.5,-414"/>
<text text-anchor="middle" x="306" y="-393.5" font-family="Sans" font-size="10.00" fill="#ffffff">EAStoryDelete</text>
</g>
<!-- EAStoryDelete&#45;&gt;ElementAction -->
<g id="edge19" class="edge">
<title>EAStoryDelete&#45;&gt;ElementAction</title>
<path fill="none" stroke="black" d="M262.46,-381.63C256.09,-378.19 250,-374.02 245,-369 217.21,-341.08 236.66,-316.05 209,-288 206.94,-285.91 204.68,-283.96 202.3,-282.15"/>
<polygon fill="black" stroke="black" points="204.05,-279.11 193.77,-276.52 200.19,-284.95 204.05,-279.11"/>
</g>
<!-- EAItemDelete -->
<g id="node21" class="node">
<title>EAItemDelete</title>
<polygon fill="#2980b9" stroke="#2980b9" points="348,-360 264,-360 264,-324 348,-324 348,-360"/>
<text text-anchor="middle" x="306" y="-339.5" font-family="Sans" font-size="10.00" fill="#ffffff">EAItemDelete</text>
</g>
<!-- EAItemDelete&#45;&gt;ElementAction -->
<g id="edge20" class="edge">
<title>EAItemDelete&#45;&gt;ElementAction</title>
<path fill="none" stroke="black" d="M263.72,-324.88C257.33,-321.82 250.9,-318.48 245,-315 227.78,-304.83 226.18,-298.25 209,-288 206.65,-286.6 204.21,-285.22 201.73,-283.87"/>
<polygon fill="black" stroke="black" points="203.09,-280.63 192.6,-279.12 199.86,-286.84 203.09,-280.63"/>
</g>
<!-- EAStoryInsert -->
<g id="node22" class="node">
<title>EAStoryInsert</title>
<polygon fill="#2980b9" stroke="#2980b9" points="347.5,-306 264.5,-306 264.5,-270 347.5,-270 347.5,-306"/>
<text text-anchor="middle" x="306" y="-285.5" font-family="Sans" font-size="10.00" fill="#ffffff">EAStoryInsert</text>
</g>
<!-- EAStoryInsert&#45;&gt;ElementAction -->
<g id="edge21" class="edge">
<title>EAStoryInsert&#45;&gt;ElementAction</title>
<path fill="none" stroke="black" d="M264.41,-280.91C245.74,-277.64 223.37,-273.73 203.41,-270.25"/>
<polygon fill="black" stroke="black" points="203.98,-266.79 193.52,-268.52 202.77,-273.69 203.98,-266.79"/>
</g>
<!-- EAItemInsert -->
<g id="node23" class="node">
<title>EAItemInsert</title>
<polygon fill="#2980b9" stroke="#2980b9" points="346,-252 266,-252 266,-216 346,-216 346,-252"/>
<text text-anchor="middle" x="306" y="-231.5" font-family="Sans" font-size="10.00" fill="#ffffff">EAItemInsert</text>
</g>
<!-- EAItemInsert&#45;&gt;ElementAction -->
<g id="edge22" class="edge">
<title>EAItemInsert&#45;&gt;ElementAction</title>
<path fill="none" stroke="black" d="M265.61,-240.88C246.8,-244.17 224,-248.15 203.68,-251.71"/>
<polygon fill="black" stroke="black" points="202.87,-248.3 193.62,-253.46 204.07,-255.19 202.87,-248.3"/>
</g>
<!-- EAStorySwap -->
<g id="node24" class="node">
<title>EAStorySwap</title>
<polygon fill="#2980b9" stroke="#2980b9" points="346.5,-198 265.5,-198 265.5,-162 346.5,-162 346.5,-198"/>
<text text-anchor="middle" x="306" y="-177.5" font-family="Sans" font-size="10.00" fill="#ffffff">EAStorySwap</text>
</g>
<!-- EAStorySwap&#45;&gt;ElementAction -->
<g id="edge23" class="edge">
<title>EAStorySwap&#45;&gt;ElementAction</title>
<path fill="none" stroke="black" d="M265.32,-196.36C258.41,-199.63 251.39,-203.23 245,-207 227.78,-217.17 226.18,-223.75 209,-234 206.65,-235.4 204.21,-236.78 201.73,-238.13"/>
<polygon fill="black" stroke="black" points="199.86,-235.16 192.6,-242.88 203.09,-241.37 199.86,-235.16"/>
</g>
<!-- EAItemSwap -->
<g id="node25" class="node">
<title>EAItemSwap</title>
<polygon fill="#2980b9" stroke="#2980b9" points="345,-144 267,-144 267,-108 345,-108 345,-144"/>
<text text-anchor="middle" x="306" y="-123.5" font-family="Sans" font-size="10.00" fill="#ffffff">EAItemSwap</text>
</g>
<!-- EAItemSwap&#45;&gt;ElementAction -->
<g id="edge24" class="edge">
<title>EAItemSwap&#45;&gt;ElementAction</title>
<path fill="none" stroke="black" d="M266.81,-138.15C258.9,-141.97 251.12,-146.85 245,-153 217.21,-180.92 236.66,-205.95 209,-234 206.94,-236.09 204.68,-238.04 202.3,-239.85"/>
<polygon fill="black" stroke="black" points="200.19,-237.05 193.77,-245.48 204.05,-242.89 200.19,-237.05"/>
</g>
<!-- EAStoryMove -->
<g id="node26" class="node">
<title>EAStoryMove</title>
<polygon fill="#2980b9" stroke="#2980b9" points="347,-90 265,-90 265,-54 347,-54 347,-90"/>
<text text-anchor="middle" x="306" y="-69.5" font-family="Sans" font-size="10.00" fill="#ffffff">EAStoryMove</text>
</g>
<!-- EAStoryMove&#45;&gt;ElementAction -->
<g id="edge25" class="edge">
<title>EAStoryMove&#45;&gt;ElementAction</title>
<path fill="none" stroke="black" d="M264.82,-84.08C257.4,-87.85 250.33,-92.73 245,-99 204.79,-146.32 248.98,-186.49 209,-234 206.88,-236.52 204.46,-238.83 201.86,-240.92"/>
<polygon fill="black" stroke="black" points="199.83,-238.07 193.56,-246.61 203.79,-243.84 199.83,-238.07"/>
</g>
<!-- EAItemMove -->
<g id="node27" class="node">
<title>EAItemMove</title>
<polygon fill="#2980b9" stroke="#2980b9" points="345.5,-36 266.5,-36 266.5,0 345.5,0 345.5,-36"/>
<text text-anchor="middle" x="306" y="-15.5" font-family="Sans" font-size="10.00" fill="#ffffff">EAItemMove</text>
</g>
<!-- EAItemMove&#45;&gt;ElementAction -->
<g id="edge26" class="edge">
<title>EAItemMove&#45;&gt;ElementAction</title>
<path fill="none" stroke="black" d="M266.32,-28.86C258.25,-32.77 250.52,-38.01 245,-45 192.03,-112.13 261.65,-166.62 209,-234 206.93,-236.64 204.55,-239.04 201.95,-241.21"/>
<polygon fill="black" stroke="black" points="199.78,-238.45 193.6,-247.05 203.8,-244.18 199.78,-238.45"/>
</g>
<!-- RunningOrderControl -->
<g id="node28" class="node">
<title>RunningOrderControl</title>
<polygon fill="#2980b9" stroke="#2980b9" points="209,-225 90,-225 90,-189 209,-189 209,-225"/>
<text text-anchor="middle" x="149.5" y="-204.5" font-family="Sans" font-size="10.00" fill="#ffffff">RunningOrderControl</text>
</g>
<!-- RunningOrderControl&#45;&gt;MosFile -->
<g id="edge27" class="edge">
<title>RunningOrderControl&#45;&gt;MosFile</title>
<path fill="none" stroke="black" d="M99.08,-225.03C95.67,-227.64 92.57,-230.62 90,-234 47.98,-289.22 33.27,-505.6 29.26,-583.69"/>
<polygon fill="black" stroke="black" points="25.76,-583.61 28.77,-593.77 32.76,-583.95 25.76,-583.61"/>
</g>
</g>
</svg>
