<?xml version="1.0" encoding="UTF-8" standalone="no"?>
<!DOCTYPE svg PUBLIC "-//W3C//DTD SVG 1.1//EN"
 "http://www.w3.org/Graphics/SVG/1.1/DTD/svg11.dtd">
<!-- Generated by graphviz version 2.43.0 (0)
 -->
<!-- Title: classes Pages: 1 -->
<svg width="375pt" height="1097pt"
 viewBox="0.00 0.00 375.00 1097.00" xmlns="http://www.w3.org/2000/svg" xmlns:xlink="http://www.w3.org/1999/xlink">
<g id="graph0" class="graph" transform="scale(1 1) rotate(0) translate(4 1093)">
<title>classes</title>
<polygon fill="white" stroke="transparent" points="-4,4 -4,-1093 371,-1093 371,4 -4,4"/>
<!-- ElementAction -->
<g id="node1" class="node">
<title>ElementAction</title>
<polygon fill="#9ec6e0" stroke="#9ec6e0" points="193.5,-279 105.5,-279 105.5,-243 193.5,-243 193.5,-279"/>
<text text-anchor="middle" x="149.5" y="-258.5" font-family="Sans" font-size="10.00" fill="#000000">ElementAction</text>
</g>
<!-- MosFile -->
<g id="node2" class="node">
<title>MosFile</title>
<polygon fill="#9ec6e0" stroke="#9ec6e0" points="54,-684 0,-684 0,-648 54,-648 54,-684"/>
<text text-anchor="middle" x="27" y="-663.5" font-family="Sans" font-size="10.00" fill="#000000">MosFile</text>
</g>
<!-- ElementAction&#45;&gt;MosFile -->
<g id="edge11" class="edge">
<title>ElementAction&#45;&gt;MosFile</title>
<path fill="none" stroke="black" d="M105.28,-274.85C99.44,-278.34 94.06,-282.66 90,-288 47.98,-343.22 33.27,-559.6 29.26,-637.69"/>
<polygon fill="black" stroke="black" points="25.76,-637.61 28.77,-647.77 32.76,-637.95 25.76,-637.61"/>
</g>
<!-- EAItemDelete -->
<g id="node3" class="node">
<title>EAItemDelete</title>
<polygon fill="#2980b9" stroke="#2980b9" points="348,-522 264,-522 264,-486 348,-486 348,-522"/>
<text text-anchor="middle" x="306" y="-501.5" font-family="Sans" font-size="10.00" fill="#ffffff">EAItemDelete</text>
</g>
<!-- EAItemDelete&#45;&gt;ElementAction -->
<g id="edge1" class="edge">
<title>EAItemDelete&#45;&gt;ElementAction</title>
<path fill="none" stroke="black" d="M263.85,-491.89C256.68,-488.14 249.95,-483.28 245,-477 192.03,-409.87 261.65,-355.38 209,-288 206.93,-285.36 204.55,-282.96 201.95,-280.79"/>
<polygon fill="black" stroke="black" points="203.8,-277.82 193.6,-274.95 199.78,-283.55 203.8,-277.82"/>
</g>
<!-- EAItemInsert -->
<g id="node4" class="node">
<title>EAItemInsert</title>
<polygon fill="#2980b9" stroke="#2980b9" points="346,-468 266,-468 266,-432 346,-432 346,-468"/>
<text text-anchor="middle" x="306" y="-447.5" font-family="Sans" font-size="10.00" fill="#ffffff">EAItemInsert</text>
</g>
<!-- EAItemInsert&#45;&gt;ElementAction -->
<g id="edge2" class="edge">
<title>EAItemInsert&#45;&gt;ElementAction</title>
<path fill="none" stroke="black" d="M265.75,-438.39C257.99,-434.55 250.55,-429.53 245,-423 204.79,-375.68 248.98,-335.51 209,-288 206.88,-285.48 204.46,-283.17 201.86,-281.08"/>
<polygon fill="black" stroke="black" points="203.79,-278.16 193.56,-275.39 199.83,-283.93 203.79,-278.16"/>
</g>
<!-- EAItemMove -->
<g id="node5" class="node">
<title>EAItemMove</title>
<polygon fill="#2980b9" stroke="#2980b9" points="345.5,-414 266.5,-414 266.5,-378 345.5,-378 345.5,-414"/>
<text text-anchor="middle" x="306" y="-393.5" font-family="Sans" font-size="10.00" fill="#ffffff">EAItemMove</text>
</g>
<!-- EAItemMove&#45;&gt;ElementAction -->
<g id="edge3" class="edge">
<title>EAItemMove&#45;&gt;ElementAction</title>
<path fill="none" stroke="black" d="M266.5,-383.7C258.7,-379.9 251.04,-375.07 245,-369 217.21,-341.08 236.66,-316.05 209,-288 206.94,-285.91 204.68,-283.96 202.3,-282.15"/>
<polygon fill="black" stroke="black" points="204.05,-279.11 193.77,-276.52 200.19,-284.95 204.05,-279.11"/>
</g>
<!-- EAItemReplace -->
<g id="node6" class="node">
<title>EAItemReplace</title>
<polygon fill="#2980b9" stroke="#2980b9" points="351.5,-360 260.5,-360 260.5,-324 351.5,-324 351.5,-360"/>
<text text-anchor="middle" x="306" y="-339.5" font-family="Sans" font-size="10.00" fill="#ffffff">EAItemReplace</text>
</g>
<!-- EAItemReplace&#45;&gt;ElementAction -->
<g id="edge4" class="edge">
<title>EAItemReplace&#45;&gt;ElementAction</title>
<path fill="none" stroke="black" d="M261.81,-323.95C256.05,-321.15 250.31,-318.14 245,-315 227.78,-304.83 226.18,-298.25 209,-288 206.65,-286.6 204.21,-285.22 201.73,-283.87"/>
<polygon fill="black" stroke="black" points="203.09,-280.63 192.6,-279.12 199.86,-286.84 203.09,-280.63"/>
</g>
<!-- EAItemSwap -->
<g id="node7" class="node">
<title>EAItemSwap</title>
<polygon fill="#2980b9" stroke="#2980b9" points="345,-306 267,-306 267,-270 345,-270 345,-306"/>
<text text-anchor="middle" x="306" y="-285.5" font-family="Sans" font-size="10.00" fill="#ffffff">EAItemSwap</text>
</g>
<!-- EAItemSwap&#45;&gt;ElementAction -->
<g id="edge5" class="edge">
<title>EAItemSwap&#45;&gt;ElementAction</title>
<path fill="none" stroke="black" d="M266.81,-281.33C247.76,-278 224.42,-273.92 203.66,-270.29"/>
<polygon fill="black" stroke="black" points="204.16,-266.82 193.7,-268.55 202.95,-273.72 204.16,-266.82"/>
</g>
<!-- EAStoryDelete -->
<g id="node8" class="node">
<title>EAStoryDelete</title>
<polygon fill="#2980b9" stroke="#2980b9" points="349.5,-252 262.5,-252 262.5,-216 349.5,-216 349.5,-252"/>
<text text-anchor="middle" x="306" y="-231.5" font-family="Sans" font-size="10.00" fill="#ffffff">EAStoryDelete</text>
</g>
<!-- EAStoryDelete&#45;&gt;ElementAction -->
<g id="edge6" class="edge">
<title>EAStoryDelete&#45;&gt;ElementAction</title>
<path fill="none" stroke="black" d="M262.37,-241.45C244.2,-244.62 222.81,-248.36 203.62,-251.72"/>
<polygon fill="black" stroke="black" points="202.77,-248.31 193.52,-253.48 203.98,-255.21 202.77,-248.31"/>
</g>
<!-- EAStoryInsert -->
<g id="node9" class="node">
<title>EAStoryInsert</title>
<polygon fill="#2980b9" stroke="#2980b9" points="347.5,-198 264.5,-198 264.5,-162 347.5,-162 347.5,-198"/>
<text text-anchor="middle" x="306" y="-177.5" font-family="Sans" font-size="10.00" fill="#ffffff">EAStoryInsert</text>
</g>
<!-- EAStoryInsert&#45;&gt;ElementAction -->
<g id="edge7" class="edge">
<title>EAStoryInsert&#45;&gt;ElementAction</title>
<path fill="none" stroke="black" d="M264.4,-197.63C257.87,-200.65 251.21,-203.84 245,-207 226.39,-216.48 206.23,-227.84 189.33,-237.69"/>
<polygon fill="black" stroke="black" points="187.16,-234.9 180.31,-242.98 190.71,-240.94 187.16,-234.9"/>
</g>
<!-- EAStoryMove -->
<g id="node10" class="node">
<title>EAStoryMove</title>
<polygon fill="#2980b9" stroke="#2980b9" points="347,-144 265,-144 265,-108 347,-108 347,-144"/>
<text text-anchor="middle" x="306" y="-123.5" font-family="Sans" font-size="10.00" fill="#ffffff">EAStoryMove</text>
</g>
<!-- EAStoryMove&#45;&gt;ElementAction -->
<g id="edge8" class="edge">
<title>EAStoryMove&#45;&gt;ElementAction</title>
<path fill="none" stroke="black" d="M264.92,-141.13C257.98,-144.55 251.06,-148.51 245,-153 213.97,-175.98 185.88,-210.71 168.54,-234.55"/>
<polygon fill="black" stroke="black" points="165.61,-232.62 162.65,-242.8 171.31,-236.69 165.61,-232.62"/>
</g>
<!-- EAStoryReplace -->
<g id="node11" class="node">
<title>EAStoryReplace</title>
<polygon fill="#2980b9" stroke="#2980b9" points="353,-90 259,-90 259,-54 353,-54 353,-90"/>
<text text-anchor="middle" x="306" y="-69.5" font-family="Sans" font-size="10.00" fill="#ffffff">EAStoryReplace</text>
</g>
<!-- EAStoryReplace&#45;&gt;ElementAction -->
<g id="edge9" class="edge">
<title>EAStoryReplace&#45;&gt;ElementAction</title>
<path fill="none" stroke="black" d="M258.91,-89.07C253.93,-91.96 249.16,-95.26 245,-99 203.04,-136.77 174.57,-197.69 160.56,-233.07"/>
<polygon fill="black" stroke="black" points="157.16,-232.17 156.84,-242.76 163.69,-234.68 157.16,-232.17"/>
</g>
<!-- EAStorySwap -->
<g id="node12" class="node">
<title>EAStorySwap</title>
<polygon fill="#2980b9" stroke="#2980b9" points="346.5,-36 265.5,-36 265.5,0 346.5,0 346.5,-36"/>
<text text-anchor="middle" x="306" y="-15.5" font-family="Sans" font-size="10.00" fill="#ffffff">EAStorySwap</text>
</g>
<!-- EAStorySwap&#45;&gt;ElementAction -->
<g id="edge10" class="edge">
<title>EAStorySwap&#45;&gt;ElementAction</title>
<path fill="none" stroke="black" d="M265.22,-30.89C257.86,-34.59 250.7,-39.24 245,-45 191.69,-98.87 166.06,-187.81 155.96,-232.91"/>
<polygon fill="black" stroke="black" points="152.5,-232.36 153.82,-242.87 159.34,-233.82 152.5,-232.36"/>
</g>
<!-- ItemDelete -->
<g id="node13" class="node">
<title>ItemDelete</title>
<polygon fill="#2980b9" stroke="#2980b9" points="185,-1089 114,-1089 114,-1053 185,-1053 185,-1089"/>
<text text-anchor="middle" x="149.5" y="-1068.5" font-family="Sans" font-size="10.00" fill="#ffffff">ItemDelete</text>
</g>
<!-- ItemDelete&#45;&gt;MosFile -->
<g id="edge12" class="edge">
<title>ItemDelete&#45;&gt;MosFile</title>
<path fill="none" stroke="black" d="M113.99,-1061.64C104.94,-1057.6 96.03,-1051.92 90,-1044 47.98,-988.78 33.27,-772.4 29.26,-694.31"/>
<polygon fill="black" stroke="black" points="32.76,-694.05 28.77,-684.23 25.76,-694.39 32.76,-694.05"/>
</g>
<!-- ItemInsert -->
<g id="node14" class="node">
<title>ItemInsert</title>
<polygon fill="#2980b9" stroke="#2980b9" points="183,-1035 116,-1035 116,-999 183,-999 183,-1035"/>
<text text-anchor="middle" x="149.5" y="-1014.5" font-family="Sans" font-size="10.00" fill="#ffffff">ItemInsert</text>
</g>
<!-- ItemInsert&#45;&gt;MosFile -->
<g id="edge13" class="edge">
<title>ItemInsert&#45;&gt;MosFile</title>
<path fill="none" stroke="black" d="M115.96,-1008.33C106.29,-1004.25 96.55,-998.37 90,-990 53.91,-943.86 35.91,-764.59 30.13,-694.4"/>
<polygon fill="black" stroke="black" points="33.6,-693.8 29.31,-684.11 26.62,-694.36 33.6,-693.8"/>
</g>
<!-- ItemMoveMultiple -->
<g id="node15" class="node">
<title>ItemMoveMultiple</title>
<polygon fill="#2980b9" stroke="#2980b9" points="202.5,-981 96.5,-981 96.5,-945 202.5,-945 202.5,-981"/>
<text text-anchor="middle" x="149.5" y="-960.5" font-family="Sans" font-size="10.00" fill="#ffffff">ItemMoveMultiple</text>
</g>
<!-- ItemMoveMultiple&#45;&gt;MosFile -->
<g id="edge14" class="edge">
<title>ItemMoveMultiple&#45;&gt;MosFile</title>
<path fill="none" stroke="black" d="M99.59,-944.99C96.02,-942.37 92.75,-939.39 90,-936 59.75,-898.75 38.99,-755.56 31.31,-694.19"/>
<polygon fill="black" stroke="black" points="34.75,-693.56 30.06,-684.06 27.81,-694.41 34.75,-693.56"/>
</g>
<!-- ItemReplace -->
<g id="node16" class="node">
<title>ItemReplace</title>
<polygon fill="#2980b9" stroke="#2980b9" points="188.5,-927 110.5,-927 110.5,-891 188.5,-891 188.5,-927"/>
<text text-anchor="middle" x="149.5" y="-906.5" font-family="Sans" font-size="10.00" fill="#ffffff">ItemReplace</text>
</g>
<!-- ItemReplace&#45;&gt;MosFile -->
<g id="edge15" class="edge">
<title>ItemReplace&#45;&gt;MosFile</title>
<path fill="none" stroke="black" d="M110.31,-897.14C102.74,-893.32 95.46,-888.37 90,-882 43.19,-827.42 31.64,-739.47 28.85,-694.49"/>
<polygon fill="black" stroke="black" points="32.33,-694.09 28.32,-684.29 25.34,-694.45 32.33,-694.09"/>
</g>
<!-- MetaDataReplace -->
<g id="node17" class="node">
<title>MetaDataReplace</title>
<polygon fill="#2980b9" stroke="#2980b9" points="201.5,-873 97.5,-873 97.5,-837 201.5,-837 201.5,-873"/>
<text text-anchor="middle" x="149.5" y="-852.5" font-family="Sans" font-size="10.00" fill="#ffffff">MetaDataReplace</text>
</g>
<!-- MetaDataReplace&#45;&gt;MosFile -->
<g id="edge16" class="edge">
<title>MetaDataReplace&#45;&gt;MosFile</title>
<path fill="none" stroke="black" d="M100.65,-836.94C96.76,-834.32 93.13,-831.35 90,-828 54.49,-790.03 38.68,-729.6 32.14,-694.27"/>
<polygon fill="black" stroke="black" points="35.55,-693.42 30.4,-684.16 28.65,-694.61 35.55,-693.42"/>
</g>
<!-- ReadyToAir -->
<g id="node18" class="node">
<title>ReadyToAir</title>
<polygon fill="#2980b9" stroke="#2980b9" points="185,-819 114,-819 114,-783 185,-783 185,-819"/>
<text text-anchor="middle" x="149.5" y="-798.5" font-family="Sans" font-size="10.00" fill="#ffffff">ReadyToAir</text>
</g>
<!-- ReadyToAir&#45;&gt;MosFile -->
<g id="edge17" class="edge">
<title>ReadyToAir&#45;&gt;MosFile</title>
<path fill="none" stroke="black" d="M113.84,-789.26C105.41,-785.31 96.85,-780.27 90,-774 65.72,-751.78 48.39,-717.79 38.33,-693.89"/>
<polygon fill="black" stroke="black" points="41.46,-692.29 34.47,-684.33 34.97,-694.91 41.46,-692.29"/>
</g>
<!-- RunningOrder -->
<g id="node19" class="node">
<title>RunningOrder</title>
<polygon fill="#2980b9" stroke="#2980b9" points="191,-765 108,-765 108,-729 191,-729 191,-765"/>
<text text-anchor="middle" x="149.5" y="-744.5" font-family="Sans" font-size="10.00" fill="#ffffff">RunningOrder</text>
</g>
<!-- RunningOrder&#45;&gt;MosFile -->
<g id="edge18" class="edge">
<title>RunningOrder&#45;&gt;MosFile</title>
<path fill="none" stroke="black" d="M107.73,-730.01C101.63,-726.95 95.54,-723.59 90,-720 77.08,-711.64 64.04,-700.74 53.28,-690.92"/>
<polygon fill="black" stroke="black" points="55.58,-688.28 45.88,-684.02 50.81,-693.4 55.58,-688.28"/>
</g>
<!-- RunningOrderControl -->
<g id="node20" class="node">
<title>RunningOrderControl</title>
<polygon fill="#2980b9" stroke="#2980b9" points="209,-711 90,-711 90,-675 209,-675 209,-711"/>
<text text-anchor="middle" x="149.5" y="-690.5" font-family="Sans" font-size="10.00" fill="#ffffff">RunningOrderControl</text>
</g>
<!-- RunningOrderControl&#45;&gt;MosFile -->
<g id="edge19" class="edge">
<title>RunningOrderControl&#45;&gt;MosFile</title>
<path fill="none" stroke="black" d="M89.66,-679.82C80.92,-677.86 72.15,-675.89 64.07,-674.08"/>
<polygon fill="black" stroke="black" points="64.78,-670.65 54.26,-671.88 63.25,-677.49 64.78,-670.65"/>
</g>
<!-- RunningOrderEnd -->
<g id="node21" class="node">
<title>RunningOrderEnd</title>
<polygon fill="#2980b9" stroke="#2980b9" points="200,-657 99,-657 99,-621 200,-621 200,-657"/>
<text text-anchor="middle" x="149.5" y="-636.5" font-family="Sans" font-size="10.00" fill="#ffffff">RunningOrderEnd</text>
</g>
<!-- RunningOrderEnd&#45;&gt;MosFile -->
<g id="edge20" class="edge">
<title>RunningOrderEnd&#45;&gt;MosFile</title>
<path fill="none" stroke="black" d="M98.79,-650.14C87.2,-652.74 75.07,-655.45 64.19,-657.89"/>
<polygon fill="black" stroke="black" points="63.19,-654.53 54.2,-660.13 64.72,-661.36 63.19,-654.53"/>
</g>
<!-- RunningOrderReplace -->
<g id="node22" class="node">
<title>RunningOrderReplace</title>
<polygon fill="#2980b9" stroke="#2980b9" points="367,-765 245,-765 245,-729 367,-729 367,-765"/>
<text text-anchor="middle" x="306" y="-744.5" font-family="Sans" font-size="10.00" fill="#ffffff">RunningOrderReplace</text>
</g>
<!-- RunningOrderReplace&#45;&gt;RunningOrder -->
<g id="edge21" class="edge">
<title>RunningOrderReplace&#45;&gt;RunningOrder</title>
<path fill="none" stroke="black" d="M244.82,-747C230.51,-747 215.37,-747 201.51,-747"/>
<polygon fill="black" stroke="black" points="201.2,-743.5 191.2,-747 201.2,-750.5 201.2,-743.5"/>
</g>
<!-- StoryAppend -->
<g id="node23" class="node">
<title>StoryAppend</title>
<polygon fill="#2980b9" stroke="#2980b9" points="189,-603 110,-603 110,-567 189,-567 189,-603"/>
<text text-anchor="middle" x="149.5" y="-582.5" font-family="Sans" font-size="10.00" fill="#ffffff">StoryAppend</text>
</g>
<!-- StoryAppend&#45;&gt;MosFile -->
<g id="edge22" class="edge">
<title>StoryAppend&#45;&gt;MosFile</title>
<path fill="none" stroke="black" d="M109.9,-600.91C103.09,-604.25 96.2,-607.99 90,-612 77.08,-620.36 64.04,-631.26 53.28,-641.08"/>
<polygon fill="black" stroke="black" points="50.81,-638.6 45.88,-647.98 55.58,-643.72 50.81,-638.6"/>
</g>
<!-- StoryDelete -->
<g id="node24" class="node">
<title>StoryDelete</title>
<polygon fill="#2980b9" stroke="#2980b9" points="186.5,-549 112.5,-549 112.5,-513 186.5,-513 186.5,-549"/>
<text text-anchor="middle" x="149.5" y="-528.5" font-family="Sans" font-size="10.00" fill="#ffffff">StoryDelete</text>
</g>
<!-- StoryDelete&#45;&gt;MosFile -->
<g id="edge23" class="edge">
<title>StoryDelete&#45;&gt;MosFile</title>
<path fill="none" stroke="black" d="M112.32,-543.47C104.38,-547.3 96.44,-552.11 90,-558 65.72,-580.22 48.39,-614.21 38.33,-638.11"/>
<polygon fill="black" stroke="black" points="34.97,-637.09 34.47,-647.67 41.46,-639.71 34.97,-637.09"/>
</g>
<!-- StoryInsert -->
<g id="node25" class="node">
<title>StoryInsert</title>
<polygon fill="#2980b9" stroke="#2980b9" points="184.5,-495 114.5,-495 114.5,-459 184.5,-459 184.5,-495"/>
<text text-anchor="middle" x="149.5" y="-474.5" font-family="Sans" font-size="10.00" fill="#ffffff">StoryInsert</text>
</g>
<!-- StoryInsert&#45;&gt;MosFile -->
<g id="edge24" class="edge">
<title>StoryInsert&#45;&gt;MosFile</title>
<path fill="none" stroke="black" d="M114.37,-487.47C105.53,-491.5 96.65,-496.89 90,-504 54.49,-541.97 38.68,-602.4 32.14,-637.73"/>
<polygon fill="black" stroke="black" points="28.65,-637.39 30.4,-647.84 35.55,-638.58 28.65,-637.39"/>
</g>
<!-- StoryMove -->
<g id="node26" class="node">
<title>StoryMove</title>
<polygon fill="#2980b9" stroke="#2980b9" points="184,-441 115,-441 115,-405 184,-405 184,-441"/>
<text text-anchor="middle" x="149.5" y="-420.5" font-family="Sans" font-size="10.00" fill="#ffffff">StoryMove</text>
</g>
<!-- StoryMove&#45;&gt;MosFile -->
<g id="edge25" class="edge">
<title>StoryMove&#45;&gt;MosFile</title>
<path fill="none" stroke="black" d="M114.87,-432.7C105.73,-436.75 96.55,-442.36 90,-450 43.19,-504.58 31.64,-592.53 28.85,-637.51"/>
<polygon fill="black" stroke="black" points="25.34,-637.55 28.32,-647.71 32.33,-637.91 25.34,-637.55"/>
</g>
<!-- StoryReplace -->
<g id="node27" class="node">
<title>StoryReplace</title>
<polygon fill="#2980b9" stroke="#2980b9" points="190,-387 109,-387 109,-351 190,-351 190,-387"/>
<text text-anchor="middle" x="149.5" y="-366.5" font-family="Sans" font-size="10.00" fill="#ffffff">StoryReplace</text>
</g>
<!-- StoryReplace&#45;&gt;MosFile -->
<g id="edge26" class="edge">
<title>StoryReplace&#45;&gt;MosFile</title>
<path fill="none" stroke="black" d="M108.85,-381.26C101.74,-385.01 95.01,-389.83 90,-396 59.75,-433.25 38.99,-576.44 31.31,-637.81"/>
<polygon fill="black" stroke="black" points="27.81,-637.59 30.06,-647.94 34.75,-638.44 27.81,-637.59"/>
</g>
<!-- StorySend -->
<g id="node28" class="node">
<title>StorySend</title>
<polygon fill="#2980b9" stroke="#2980b9" points="182.5,-333 116.5,-333 116.5,-297 182.5,-297 182.5,-333"/>
<text text-anchor="middle" x="149.5" y="-312.5" font-family="Sans" font-size="10.00" fill="#ffffff">StorySend</text>
</g>
<!-- StorySend&#45;&gt;MosFile -->
<g id="edge27" class="edge">
<title>StorySend&#45;&gt;MosFile</title>
<path fill="none" stroke="black" d="M116.26,-323.54C106.5,-327.63 96.62,-333.54 90,-342 53.91,-388.14 35.91,-567.41 30.13,-637.6"/>
<polygon fill="black" stroke="black" points="26.62,-637.64 29.31,-647.89 33.6,-638.2 26.62,-637.64"/>
</g>
</g>
</svg>
