<?xml version="1.0" encoding="UTF-8" standalone="no"?>
<!DOCTYPE svg PUBLIC "-//W3C//DTD SVG 1.1//EN"
 "http://www.w3.org/Graphics/SVG/1.1/DTD/svg11.dtd">
<!-- Generated by graphviz version 2.47.3 (20210619.1520)
 -->
<!-- Pages: 1 -->
<svg width="355pt" height="1043pt"
 viewBox="0.00 0.00 355.00 1043.00" xmlns="http://www.w3.org/2000/svg" xmlns:xlink="http://www.w3.org/1999/xlink">
<g id="graph0" class="graph" transform="scale(1 1) rotate(0) translate(4 1039)">
<polygon fill="white" stroke="transparent" points="-4,4 -4,-1039 351,-1039 351,4 -4,4"/>
<!-- MosFile -->
<g id="node1" class="node">
<title>MosFile</title>
<polygon fill="#9ec6e0" stroke="#9ec6e0" points="54,-630 0,-630 0,-594 54,-594 54,-630"/>
<text text-anchor="middle" x="27" y="-609.5" font-family="Sans" font-size="10.00" fill="#000000">MosFile</text>
</g>
<!-- RunningOrder -->
<g id="node2" class="node">
<title>RunningOrder</title>
<polygon fill="#2980b9" stroke="#2980b9" points="182.5,-1035 105.5,-1035 105.5,-999 182.5,-999 182.5,-1035"/>
<text text-anchor="middle" x="144" y="-1014.5" font-family="Sans" font-size="10.00" fill="#ffffff">RunningOrder</text>
</g>
<!-- RunningOrder&#45;&gt;MosFile -->
<g id="edge1" class="edge">
<title>RunningOrder&#45;&gt;MosFile</title>
<path fill="none" stroke="black" d="M105.4,-1003.55C99.49,-999.96 94.02,-995.5 90,-990 49.06,-933.98 33.67,-718.11 29.38,-640.22"/>
<polygon fill="black" stroke="black" points="32.87,-639.98 28.84,-630.18 25.88,-640.35 32.87,-639.98"/>
</g>
<!-- StorySend -->
<g id="node3" class="node">
<title>StorySend</title>
<polygon fill="#2980b9" stroke="#2980b9" points="175,-981 113,-981 113,-945 175,-945 175,-981"/>
<text text-anchor="middle" x="144" y="-960.5" font-family="Sans" font-size="10.00" fill="#ffffff">StorySend</text>
</g>
<!-- StorySend&#45;&gt;MosFile -->
<g id="edge2" class="edge">
<title>StorySend&#45;&gt;MosFile</title>
<path fill="none" stroke="black" d="M112.92,-953.44C104.34,-949.34 95.77,-943.68 90,-936 54.81,-889.17 36.27,-710.31 30.24,-640.32"/>
<polygon fill="black" stroke="black" points="33.71,-639.73 29.38,-630.06 26.73,-640.31 33.71,-639.73"/>
</g>
<!-- MetaDataReplace -->
<g id="node4" class="node">
<title>MetaDataReplace</title>
<polygon fill="#2980b9" stroke="#2980b9" points="191.5,-927 96.5,-927 96.5,-891 191.5,-891 191.5,-927"/>
<text text-anchor="middle" x="144" y="-906.5" font-family="Sans" font-size="10.00" fill="#ffffff">MetaDataReplace</text>
</g>
<!-- MetaDataReplace&#45;&gt;MosFile -->
<g id="edge3" class="edge">
<title>MetaDataReplace&#45;&gt;MosFile</title>
<path fill="none" stroke="black" d="M99.15,-890.92C95.73,-888.3 92.6,-885.34 90,-882 33.11,-809.11 26.7,-693.42 27.04,-640.33"/>
<polygon fill="black" stroke="black" points="30.54,-640.33 27.19,-630.28 23.54,-640.23 30.54,-640.33"/>
</g>
<!-- StoryAppend -->
<g id="node5" class="node">
<title>StoryAppend</title>
<polygon fill="#2980b9" stroke="#2980b9" points="180.5,-873 107.5,-873 107.5,-837 180.5,-837 180.5,-873"/>
<text text-anchor="middle" x="144" y="-852.5" font-family="Sans" font-size="10.00" fill="#ffffff">StoryAppend</text>
</g>
<!-- StoryAppend&#45;&gt;MosFile -->
<g id="edge4" class="edge">
<title>StoryAppend&#45;&gt;MosFile</title>
<path fill="none" stroke="black" d="M107.28,-841.94C100.82,-838.25 94.66,-833.66 90,-828 44.25,-772.52 32.24,-684.97 29.1,-640.28"/>
<polygon fill="black" stroke="black" points="32.59,-639.92 28.49,-630.14 25.6,-640.34 32.59,-639.92"/>
</g>
<!-- StoryDelete -->
<g id="node6" class="node">
<title>StoryDelete</title>
<polygon fill="#2980b9" stroke="#2980b9" points="178,-819 110,-819 110,-783 178,-783 178,-819"/>
<text text-anchor="middle" x="144" y="-798.5" font-family="Sans" font-size="10.00" fill="#ffffff">StoryDelete</text>
</g>
<!-- StoryDelete&#45;&gt;MosFile -->
<g id="edge5" class="edge">
<title>StoryDelete&#45;&gt;MosFile</title>
<path fill="none" stroke="black" d="M109.85,-788.82C102.59,-784.96 95.46,-780.07 90,-774 55.23,-735.35 39.16,-675.15 32.38,-640.05"/>
<polygon fill="black" stroke="black" points="35.79,-639.23 30.56,-630.01 28.9,-640.48 35.79,-639.23"/>
</g>
<!-- ItemDelete -->
<g id="node7" class="node">
<title>ItemDelete</title>
<polygon fill="#2980b9" stroke="#2980b9" points="176.5,-765 111.5,-765 111.5,-729 176.5,-729 176.5,-765"/>
<text text-anchor="middle" x="144" y="-744.5" font-family="Sans" font-size="10.00" fill="#ffffff">ItemDelete</text>
</g>
<!-- ItemDelete&#45;&gt;MosFile -->
<g id="edge6" class="edge">
<title>ItemDelete&#45;&gt;MosFile</title>
<path fill="none" stroke="black" d="M111.33,-734.62C103.78,-730.7 96.14,-725.84 90,-720 66.15,-697.31 48.74,-663.41 38.54,-639.66"/>
<polygon fill="black" stroke="black" points="41.67,-638.07 34.62,-630.16 35.2,-640.74 41.67,-638.07"/>
</g>
<!-- StoryInsert -->
<g id="node8" class="node">
<title>StoryInsert</title>
<polygon fill="#2980b9" stroke="#2980b9" points="176.5,-711 111.5,-711 111.5,-675 176.5,-675 176.5,-711"/>
<text text-anchor="middle" x="144" y="-690.5" font-family="Sans" font-size="10.00" fill="#ffffff">StoryInsert</text>
</g>
<!-- StoryInsert&#45;&gt;MosFile -->
<g id="edge7" class="edge">
<title>StoryInsert&#45;&gt;MosFile</title>
<path fill="none" stroke="black" d="M111.44,-678.53C104.2,-674.77 96.68,-670.51 90,-666 77.34,-657.45 64.43,-646.61 53.69,-636.89"/>
<polygon fill="black" stroke="black" points="56.01,-634.27 46.29,-630.06 51.26,-639.42 56.01,-634.27"/>
</g>
<!-- ItemInsert -->
<g id="node9" class="node">
<title>ItemInsert</title>
<polygon fill="#2980b9" stroke="#2980b9" points="174.5,-657 113.5,-657 113.5,-621 174.5,-621 174.5,-657"/>
<text text-anchor="middle" x="144" y="-636.5" font-family="Sans" font-size="10.00" fill="#ffffff">ItemInsert</text>
</g>
<!-- ItemInsert&#45;&gt;MosFile -->
<g id="edge8" class="edge">
<title>ItemInsert&#45;&gt;MosFile</title>
<path fill="none" stroke="black" d="M113.38,-632.05C98.43,-628.53 80.15,-624.24 64.34,-620.53"/>
<polygon fill="black" stroke="black" points="64.91,-617.07 54.38,-618.19 63.31,-623.89 64.91,-617.07"/>
</g>
<!-- StoryMove -->
<g id="node10" class="node">
<title>StoryMove</title>
<polygon fill="#2980b9" stroke="#2980b9" points="176,-603 112,-603 112,-567 176,-567 176,-603"/>
<text text-anchor="middle" x="144" y="-582.5" font-family="Sans" font-size="10.00" fill="#ffffff">StoryMove</text>
</g>
<!-- StoryMove&#45;&gt;MosFile -->
<g id="edge9" class="edge">
<title>StoryMove&#45;&gt;MosFile</title>
<path fill="none" stroke="black" d="M111.88,-592.31C97.18,-595.76 79.54,-599.9 64.24,-603.49"/>
<polygon fill="black" stroke="black" points="63.02,-600.18 54.09,-605.88 64.62,-607 63.02,-600.18"/>
</g>
<!-- ItemMoveMultiple -->
<g id="node11" class="node">
<title>ItemMoveMultiple</title>
<polygon fill="#2980b9" stroke="#2980b9" points="191,-549 97,-549 97,-513 191,-513 191,-549"/>
<text text-anchor="middle" x="144" y="-528.5" font-family="Sans" font-size="10.00" fill="#ffffff">ItemMoveMultiple</text>
</g>
<!-- ItemMoveMultiple&#45;&gt;MosFile -->
<g id="edge10" class="edge">
<title>ItemMoveMultiple&#45;&gt;MosFile</title>
<path fill="none" stroke="black" d="M104.71,-549.07C99.65,-551.87 94.62,-554.88 90,-558 77.34,-566.55 64.43,-577.39 53.69,-587.11"/>
<polygon fill="black" stroke="black" points="51.26,-584.58 46.29,-593.94 56.01,-589.73 51.26,-584.58"/>
</g>
<!-- StoryReplace -->
<g id="node12" class="node">
<title>StoryReplace</title>
<polygon fill="#2980b9" stroke="#2980b9" points="182,-495 106,-495 106,-459 182,-459 182,-495"/>
<text text-anchor="middle" x="144" y="-474.5" font-family="Sans" font-size="10.00" fill="#ffffff">StoryReplace</text>
</g>
<!-- StoryReplace&#45;&gt;MosFile -->
<g id="edge11" class="edge">
<title>StoryReplace&#45;&gt;MosFile</title>
<path fill="none" stroke="black" d="M105.81,-492.41C100.14,-495.73 94.64,-499.59 90,-504 66.15,-526.69 48.74,-560.59 38.54,-584.34"/>
<polygon fill="black" stroke="black" points="35.2,-583.26 34.62,-593.84 41.67,-585.93 35.2,-583.26"/>
</g>
<!-- ItemReplace -->
<g id="node13" class="node">
<title>ItemReplace</title>
<polygon fill="#2980b9" stroke="#2980b9" points="180,-441 108,-441 108,-405 180,-405 180,-441"/>
<text text-anchor="middle" x="144" y="-420.5" font-family="Sans" font-size="10.00" fill="#ffffff">ItemReplace</text>
</g>
<!-- ItemReplace&#45;&gt;MosFile -->
<g id="edge12" class="edge">
<title>ItemReplace&#45;&gt;MosFile</title>
<path fill="none" stroke="black" d="M107.93,-436.23C101.34,-439.92 94.97,-444.47 90,-450 55.23,-488.65 39.16,-548.85 32.38,-583.95"/>
<polygon fill="black" stroke="black" points="28.9,-583.52 30.56,-593.99 35.79,-584.77 28.9,-583.52"/>
</g>
<!-- ReadyToAir -->
<g id="node14" class="node">
<title>ReadyToAir</title>
<polygon fill="#2980b9" stroke="#2980b9" points="178,-387 110,-387 110,-351 178,-351 178,-387"/>
<text text-anchor="middle" x="144" y="-366.5" font-family="Sans" font-size="10.00" fill="#ffffff">ReadyToAir</text>
</g>
<!-- ReadyToAir&#45;&gt;MosFile -->
<g id="edge13" class="edge">
<title>ReadyToAir&#45;&gt;MosFile</title>
<path fill="none" stroke="black" d="M109.75,-380.7C102.4,-384.6 95.26,-389.63 90,-396 44.25,-451.48 32.24,-539.03 29.1,-583.72"/>
<polygon fill="black" stroke="black" points="25.6,-583.66 28.49,-593.86 32.59,-584.08 25.6,-583.66"/>
</g>
<!-- RunningOrderReplace -->
<g id="node15" class="node">
<title>RunningOrderReplace</title>
<polygon fill="#2980b9" stroke="#2980b9" points="347,-1035 234,-1035 234,-999 347,-999 347,-1035"/>
<text text-anchor="middle" x="290.5" y="-1014.5" font-family="Sans" font-size="10.00" fill="#ffffff">RunningOrderReplace</text>
</g>
<!-- RunningOrderReplace&#45;&gt;RunningOrder -->
<g id="edge14" class="edge">
<title>RunningOrderReplace&#45;&gt;RunningOrder</title>
<path fill="none" stroke="black" d="M233.63,-1017C220.22,-1017 206.02,-1017 193,-1017"/>
<polygon fill="black" stroke="black" points="192.85,-1013.5 182.85,-1017 192.85,-1020.5 192.85,-1013.5"/>
</g>
<!-- RunningOrderEnd -->
<g id="node16" class="node">
<title>RunningOrderEnd</title>
<polygon fill="#2980b9" stroke="#2980b9" points="191,-333 97,-333 97,-297 191,-297 191,-333"/>
<text text-anchor="middle" x="144" y="-312.5" font-family="Sans" font-size="10.00" fill="#ffffff">RunningOrderEnd</text>
</g>
<!-- RunningOrderEnd&#45;&gt;MosFile -->
<g id="edge15" class="edge">
<title>RunningOrderEnd&#45;&gt;MosFile</title>
<path fill="none" stroke="black" d="M99.15,-333.08C95.73,-335.7 92.6,-338.66 90,-342 33.11,-414.89 26.7,-530.58 27.04,-583.67"/>
<polygon fill="black" stroke="black" points="23.54,-583.77 27.19,-593.72 30.54,-583.67 23.54,-583.77"/>
</g>
<!-- ElementAction -->
<g id="node17" class="node">
<title>ElementAction</title>
<polygon fill="#9ec6e0" stroke="#9ec6e0" points="184,-279 104,-279 104,-243 184,-243 184,-279"/>
<text text-anchor="middle" x="144" y="-258.5" font-family="Sans" font-size="10.00" fill="#000000">ElementAction</text>
</g>
<!-- ElementAction&#45;&gt;MosFile -->
<g id="edge16" class="edge">
<title>ElementAction&#45;&gt;MosFile</title>
<path fill="none" stroke="black" d="M103.91,-275.53C98.61,-278.93 93.72,-283.05 90,-288 54.81,-334.83 36.27,-513.69 30.24,-583.68"/>
<polygon fill="black" stroke="black" points="26.73,-583.69 29.38,-593.94 33.71,-584.27 26.73,-583.69"/>
</g>
<!-- EAStoryReplace -->
<g id="node18" class="node">
<title>EAStoryReplace</title>
<polygon fill="#2980b9" stroke="#2980b9" points="335,-522 246,-522 246,-486 335,-486 335,-522"/>
<text text-anchor="middle" x="290.5" y="-501.5" font-family="Sans" font-size="10.00" fill="#ffffff">EAStoryReplace</text>
</g>
<!-- EAStoryReplace&#45;&gt;ElementAction -->
<g id="edge17" class="edge">
<title>EAStoryReplace&#45;&gt;ElementAction</title>
<path fill="none" stroke="black" d="M245.85,-487.95C241.36,-484.88 237.26,-481.25 234,-477 182.04,-409.09 249.34,-356.39 198,-288 196.26,-285.68 194.26,-283.54 192.08,-281.57"/>
<polygon fill="black" stroke="black" points="194.18,-278.77 184.09,-275.53 189.95,-284.36 194.18,-278.77"/>
</g>
<!-- EAItemReplace -->
<g id="node19" class="node">
<title>EAItemReplace</title>
<polygon fill="#2980b9" stroke="#2980b9" points="333.5,-468 247.5,-468 247.5,-432 333.5,-432 333.5,-468"/>
<text text-anchor="middle" x="290.5" y="-447.5" font-family="Sans" font-size="10.00" fill="#ffffff">EAItemReplace</text>
</g>
<!-- EAItemReplace&#45;&gt;ElementAction -->
<g id="edge18" class="edge">
<title>EAItemReplace&#45;&gt;ElementAction</title>
<path fill="none" stroke="black" d="M247.24,-434.44C242.28,-431.25 237.68,-427.47 234,-423 194.51,-375.08 237.05,-336.28 198,-288 196.32,-285.93 194.45,-284 192.43,-282.21"/>
<polygon fill="black" stroke="black" points="194.15,-279.12 184.05,-275.94 189.96,-284.73 194.15,-279.12"/>
</g>
<!-- EAStoryDelete -->
<g id="node20" class="node">
<title>EAStoryDelete</title>
<polygon fill="#2980b9" stroke="#2980b9" points="331.5,-414 249.5,-414 249.5,-378 331.5,-378 331.5,-414"/>
<text text-anchor="middle" x="290.5" y="-393.5" font-family="Sans" font-size="10.00" fill="#ffffff">EAStoryDelete</text>
</g>
<!-- EAStoryDelete&#45;&gt;ElementAction -->
<g id="edge19" class="edge">
<title>EAStoryDelete&#45;&gt;ElementAction</title>
<path fill="none" stroke="black" d="M249.29,-380.72C243.71,-377.43 238.39,-373.55 234,-369 206.63,-340.67 225.11,-316.58 198,-288 196.26,-286.16 194.37,-284.43 192.37,-282.8"/>
<polygon fill="black" stroke="black" points="194.39,-279.95 184.21,-277.01 190.34,-285.65 194.39,-279.95"/>
</g>
<!-- EAItemDelete -->
<g id="node21" class="node">
<title>EAItemDelete</title>
<polygon fill="#2980b9" stroke="#2980b9" points="329.5,-360 251.5,-360 251.5,-324 329.5,-324 329.5,-360"/>
<text text-anchor="middle" x="290.5" y="-339.5" font-family="Sans" font-size="10.00" fill="#ffffff">EAItemDelete</text>
</g>
<!-- EAItemDelete&#45;&gt;ElementAction -->
<g id="edge20" class="edge">
<title>EAItemDelete&#45;&gt;ElementAction</title>
<path fill="none" stroke="black" d="M251.37,-324.65C245.45,-321.61 239.49,-318.35 234,-315 216.93,-304.58 214.97,-298.58 198,-288 195.85,-286.66 193.63,-285.33 191.37,-284.02"/>
<polygon fill="black" stroke="black" points="192.95,-280.9 182.51,-279.09 189.55,-287.01 192.95,-280.9"/>
</g>
<!-- EAStoryInsert -->
<g id="node22" class="node">
<title>EAStoryInsert</title>
<polygon fill="#2980b9" stroke="#2980b9" points="329.5,-306 251.5,-306 251.5,-270 329.5,-270 329.5,-306"/>
<text text-anchor="middle" x="290.5" y="-285.5" font-family="Sans" font-size="10.00" fill="#ffffff">EAStoryInsert</text>
</g>
<!-- EAStoryInsert&#45;&gt;ElementAction -->
<g id="edge21" class="edge">
<title>EAStoryInsert&#45;&gt;ElementAction</title>
<path fill="none" stroke="black" d="M251.16,-280.84C233.66,-277.57 212.73,-273.66 194.1,-270.18"/>
<polygon fill="black" stroke="black" points="194.5,-266.69 184.03,-268.29 193.21,-273.57 194.5,-266.69"/>
</g>
<!-- EAItemInsert -->
<g id="node23" class="node">
<title>EAItemInsert</title>
<polygon fill="#2980b9" stroke="#2980b9" points="327.5,-252 253.5,-252 253.5,-216 327.5,-216 327.5,-252"/>
<text text-anchor="middle" x="290.5" y="-231.5" font-family="Sans" font-size="10.00" fill="#ffffff">EAItemInsert</text>
</g>
<!-- EAItemInsert&#45;&gt;ElementAction -->
<g id="edge22" class="edge">
<title>EAItemInsert&#45;&gt;ElementAction</title>
<path fill="none" stroke="black" d="M253.41,-240.74C235.47,-244.1 213.53,-248.2 194.08,-251.83"/>
<polygon fill="black" stroke="black" points="193.37,-248.4 184.18,-253.68 194.65,-255.28 193.37,-248.4"/>
</g>
<!-- EAStorySwap -->
<g id="node24" class="node">
<title>EAStorySwap</title>
<polygon fill="#2980b9" stroke="#2980b9" points="329.5,-198 251.5,-198 251.5,-162 329.5,-162 329.5,-198"/>
<text text-anchor="middle" x="290.5" y="-177.5" font-family="Sans" font-size="10.00" fill="#ffffff">EAStorySwap</text>
</g>
<!-- EAStorySwap&#45;&gt;ElementAction -->
<g id="edge23" class="edge">
<title>EAStorySwap&#45;&gt;ElementAction</title>
<path fill="none" stroke="black" d="M251.37,-197.35C245.45,-200.39 239.49,-203.65 234,-207 216.93,-217.42 214.97,-223.42 198,-234 195.85,-235.34 193.63,-236.67 191.37,-237.98"/>
<polygon fill="black" stroke="black" points="189.55,-234.99 182.51,-242.91 192.95,-241.1 189.55,-234.99"/>
</g>
<!-- EAItemSwap -->
<g id="node25" class="node">
<title>EAItemSwap</title>
<polygon fill="#2980b9" stroke="#2980b9" points="327.5,-144 253.5,-144 253.5,-108 327.5,-108 327.5,-144"/>
<text text-anchor="middle" x="290.5" y="-123.5" font-family="Sans" font-size="10.00" fill="#ffffff">EAItemSwap</text>
</g>
<!-- EAItemSwap&#45;&gt;ElementAction -->
<g id="edge24" class="edge">
<title>EAItemSwap&#45;&gt;ElementAction</title>
<path fill="none" stroke="black" d="M253.3,-139.04C246.28,-142.76 239.43,-147.37 234,-153 206.63,-181.33 225.11,-205.42 198,-234 196.26,-235.84 194.37,-237.57 192.37,-239.2"/>
<polygon fill="black" stroke="black" points="190.34,-236.35 184.21,-244.99 194.39,-242.05 190.34,-236.35"/>
</g>
<!-- EAStoryMove -->
<g id="node26" class="node">
<title>EAStoryMove</title>
<polygon fill="#2980b9" stroke="#2980b9" points="329,-90 252,-90 252,-54 329,-54 329,-90"/>
<text text-anchor="middle" x="290.5" y="-69.5" font-family="Sans" font-size="10.00" fill="#ffffff">EAStoryMove</text>
</g>
<!-- EAStoryMove&#45;&gt;ElementAction -->
<g id="edge25" class="edge">
<title>EAStoryMove&#45;&gt;ElementAction</title>
<path fill="none" stroke="black" d="M251.73,-84.88C245.08,-88.57 238.77,-93.21 234,-99 194.51,-146.92 237.05,-185.72 198,-234 196.32,-236.07 194.45,-238 192.43,-239.79"/>
<polygon fill="black" stroke="black" points="189.96,-237.27 184.05,-246.06 194.15,-242.88 189.96,-237.27"/>
</g>
<!-- EAItemMove -->
<g id="node27" class="node">
<title>EAItemMove</title>
<polygon fill="#2980b9" stroke="#2980b9" points="327.5,-36 253.5,-36 253.5,0 327.5,0 327.5,-36"/>
<text text-anchor="middle" x="290.5" y="-15.5" font-family="Sans" font-size="10.00" fill="#ffffff">EAItemMove</text>
</g>
<!-- EAItemMove&#45;&gt;ElementAction -->
<g id="edge26" class="edge">
<title>EAItemMove&#45;&gt;ElementAction</title>
<path fill="none" stroke="black" d="M253.4,-29.53C246.03,-33.39 239.01,-38.45 234,-45 182.04,-112.91 249.34,-165.61 198,-234 196.26,-236.32 194.26,-238.46 192.08,-240.43"/>
<polygon fill="black" stroke="black" points="189.95,-237.64 184.09,-246.47 194.18,-243.23 189.95,-237.64"/>
</g>
<!-- RunningOrderControl -->
<g id="node28" class="node">
<title>RunningOrderControl</title>
<polygon fill="#2980b9" stroke="#2980b9" points="198,-225 90,-225 90,-189 198,-189 198,-225"/>
<text text-anchor="middle" x="144" y="-204.5" font-family="Sans" font-size="10.00" fill="#ffffff">RunningOrderControl</text>
</g>
<!-- RunningOrderControl&#45;&gt;MosFile -->
<g id="edge27" class="edge">
<title>RunningOrderControl&#45;&gt;MosFile</title>
<path fill="none" stroke="black" d="M98.68,-225.11C95.41,-227.71 92.44,-230.67 90,-234 49.06,-290.02 33.67,-505.89 29.38,-583.78"/>
<polygon fill="black" stroke="black" points="25.88,-583.65 28.84,-593.82 32.87,-584.02 25.88,-583.65"/>
</g>
</g>
</svg>
