<?xml version="1.0" encoding="UTF-8" standalone="no"?>
<!DOCTYPE svg PUBLIC "-//W3C//DTD SVG 1.1//EN"
 "http://www.w3.org/Graphics/SVG/1.1/DTD/svg11.dtd">
<!-- Generated by graphviz version 2.44.1 (20200629.0846)
 -->
<!-- Title: classes Pages: 1 -->
<svg width="342pt" height="1043pt"
 viewBox="0.00 0.00 342.00 1043.00" xmlns="http://www.w3.org/2000/svg" xmlns:xlink="http://www.w3.org/1999/xlink">
<g id="graph0" class="graph" transform="scale(1 1) rotate(0) translate(4 1039)">
<title>classes</title>
<polygon fill="white" stroke="transparent" points="-4,4 -4,-1039 338,-1039 338,4 -4,4"/>
<!-- ElementAction -->
<g id="node1" class="node">
<title>ElementAction</title>
<polygon fill="#9ec6e0" stroke="#9ec6e0" points="177.5,-279 97.5,-279 97.5,-243 177.5,-243 177.5,-279"/>
<text text-anchor="middle" x="137.5" y="-258.5" font-family="Sans" font-size="10.00" fill="#000000">ElementAction</text>
</g>
<!-- MosFile -->
<g id="node2" class="node">
<title>MosFile</title>
<polygon fill="#9ec6e0" stroke="#9ec6e0" points="54,-657 0,-657 0,-621 54,-621 54,-657"/>
<text text-anchor="middle" x="27" y="-636.5" font-family="Sans" font-size="10.00" fill="#000000">MosFile</text>
</g>
<!-- ElementAction&#45;&gt;MosFile -->
<g id="edge11" class="edge">
<title>ElementAction&#45;&gt;MosFile</title>
<path fill="none" stroke="black" d="M98.05,-279.32C95.01,-281.9 92.25,-284.79 90,-288 53.43,-340.35 35.52,-536.46 29.96,-610.48"/>
<polygon fill="black" stroke="black" points="26.44,-610.65 29.2,-620.88 33.42,-611.16 26.44,-610.65"/>
</g>
<!-- EAItemDelete -->
<g id="node3" class="node">
<title>EAItemDelete</title>
<polygon fill="#2980b9" stroke="#2980b9" points="316.5,-522 238.5,-522 238.5,-486 316.5,-486 316.5,-522"/>
<text text-anchor="middle" x="277.5" y="-501.5" font-family="Sans" font-size="10.00" fill="#ffffff">EAItemDelete</text>
</g>
<!-- EAItemDelete&#45;&gt;ElementAction -->
<g id="edge1" class="edge">
<title>EAItemDelete&#45;&gt;ElementAction</title>
<path fill="none" stroke="black" d="M238.4,-491.39C231.77,-487.67 225.56,-482.96 221,-477 169.04,-409.09 234.44,-357.77 185,-288 184.65,-287.5 184.28,-287.01 183.9,-286.52"/>
<polygon fill="black" stroke="black" points="186.39,-284.07 176.9,-279.35 181.38,-288.95 186.39,-284.07"/>
</g>
<!-- EAItemInsert -->
<g id="node4" class="node">
<title>EAItemInsert</title>
<polygon fill="#2980b9" stroke="#2980b9" points="314.5,-468 240.5,-468 240.5,-432 314.5,-432 314.5,-468"/>
<text text-anchor="middle" x="277.5" y="-447.5" font-family="Sans" font-size="10.00" fill="#ffffff">EAItemInsert</text>
</g>
<!-- EAItemInsert&#45;&gt;ElementAction -->
<g id="edge2" class="edge">
<title>EAItemInsert&#45;&gt;ElementAction</title>
<path fill="none" stroke="black" d="M240.45,-438.05C233.17,-434.22 226.18,-429.28 221,-423 181.51,-375.08 222.71,-337.33 185,-288 184.53,-287.39 184.05,-286.79 183.54,-286.2"/>
<polygon fill="black" stroke="black" points="185.86,-283.57 176.22,-279.17 181.01,-288.62 185.86,-283.57"/>
</g>
<!-- EAItemMove -->
<g id="node5" class="node">
<title>EAItemMove</title>
<polygon fill="#2980b9" stroke="#2980b9" points="314.5,-414 240.5,-414 240.5,-378 314.5,-378 314.5,-414"/>
<text text-anchor="middle" x="277.5" y="-393.5" font-family="Sans" font-size="10.00" fill="#ffffff">EAItemMove</text>
</g>
<!-- EAItemMove&#45;&gt;ElementAction -->
<g id="edge3" class="edge">
<title>EAItemMove&#45;&gt;ElementAction</title>
<path fill="none" stroke="black" d="M240.3,-382.96C233.28,-379.24 226.43,-374.63 221,-369 193.63,-340.67 211.31,-317.32 185,-288 184.37,-287.3 183.72,-286.62 183.05,-285.94"/>
<polygon fill="black" stroke="black" points="185.11,-283.1 175.24,-279.25 180.56,-288.41 185.11,-283.1"/>
</g>
<!-- EAItemReplace -->
<g id="node6" class="node">
<title>EAItemReplace</title>
<polygon fill="#2980b9" stroke="#2980b9" points="320.5,-360 234.5,-360 234.5,-324 320.5,-324 320.5,-360"/>
<text text-anchor="middle" x="277.5" y="-339.5" font-family="Sans" font-size="10.00" fill="#ffffff">EAItemReplace</text>
</g>
<!-- EAItemReplace&#45;&gt;ElementAction -->
<g id="edge4" class="edge">
<title>EAItemReplace&#45;&gt;ElementAction</title>
<path fill="none" stroke="black" d="M236.89,-323.88C231.46,-321.07 226.03,-318.07 221,-315 203.93,-304.58 201.68,-299.04 185,-288 183.17,-286.79 181.28,-285.57 179.35,-284.35"/>
<polygon fill="black" stroke="black" points="181.17,-281.36 170.82,-279.11 177.51,-287.32 181.17,-281.36"/>
</g>
<!-- EAItemSwap -->
<g id="node7" class="node">
<title>EAItemSwap</title>
<polygon fill="#2980b9" stroke="#2980b9" points="314.5,-306 240.5,-306 240.5,-270 314.5,-270 314.5,-306"/>
<text text-anchor="middle" x="277.5" y="-285.5" font-family="Sans" font-size="10.00" fill="#ffffff">EAItemSwap</text>
</g>
<!-- EAItemSwap&#45;&gt;ElementAction -->
<g id="edge5" class="edge">
<title>EAItemSwap&#45;&gt;ElementAction</title>
<path fill="none" stroke="black" d="M240.24,-280.91C224.22,-277.77 205.13,-274.04 187.84,-270.65"/>
<polygon fill="black" stroke="black" points="188.39,-267.2 177.91,-268.71 187.05,-274.07 188.39,-267.2"/>
</g>
<!-- EAStoryDelete -->
<g id="node8" class="node">
<title>EAStoryDelete</title>
<polygon fill="#2980b9" stroke="#2980b9" points="318.5,-252 236.5,-252 236.5,-216 318.5,-216 318.5,-252"/>
<text text-anchor="middle" x="277.5" y="-231.5" font-family="Sans" font-size="10.00" fill="#ffffff">EAStoryDelete</text>
</g>
<!-- EAStoryDelete&#45;&gt;ElementAction -->
<g id="edge6" class="edge">
<title>EAStoryDelete&#45;&gt;ElementAction</title>
<path fill="none" stroke="black" d="M236.21,-241.88C221.07,-244.84 203.69,-248.25 187.82,-251.35"/>
<polygon fill="black" stroke="black" points="186.79,-247.99 177.65,-253.34 188.13,-254.86 186.79,-247.99"/>
</g>
<!-- EAStoryInsert -->
<g id="node9" class="node">
<title>EAStoryInsert</title>
<polygon fill="#2980b9" stroke="#2980b9" points="316.5,-198 238.5,-198 238.5,-162 316.5,-162 316.5,-198"/>
<text text-anchor="middle" x="277.5" y="-177.5" font-family="Sans" font-size="10.00" fill="#ffffff">EAStoryInsert</text>
</g>
<!-- EAStoryInsert&#45;&gt;ElementAction -->
<g id="edge7" class="edge">
<title>EAStoryInsert&#45;&gt;ElementAction</title>
<path fill="none" stroke="black" d="M238.25,-197.82C232.41,-200.76 226.5,-203.88 221,-207 204.85,-216.17 187.57,-227.26 173.02,-237"/>
<polygon fill="black" stroke="black" points="170.67,-234.37 164.35,-242.87 174.59,-240.16 170.67,-234.37"/>
</g>
<!-- EAStoryMove -->
<g id="node10" class="node">
<title>EAStoryMove</title>
<polygon fill="#2980b9" stroke="#2980b9" points="316,-144 239,-144 239,-108 316,-108 316,-144"/>
<text text-anchor="middle" x="277.5" y="-123.5" font-family="Sans" font-size="10.00" fill="#ffffff">EAStoryMove</text>
</g>
<!-- EAStoryMove&#45;&gt;ElementAction -->
<g id="edge8" class="edge">
<title>EAStoryMove&#45;&gt;ElementAction</title>
<path fill="none" stroke="black" d="M238.92,-141.3C232.62,-144.68 226.39,-148.59 221,-153 192.95,-175.95 168.86,-210.24 154.07,-234"/>
<polygon fill="black" stroke="black" points="150.89,-232.49 148.69,-242.86 156.88,-236.13 150.89,-232.49"/>
</g>
<!-- EAStoryReplace -->
<g id="node11" class="node">
<title>EAStoryReplace</title>
<polygon fill="#2980b9" stroke="#2980b9" points="322,-90 233,-90 233,-54 322,-54 322,-90"/>
<text text-anchor="middle" x="277.5" y="-69.5" font-family="Sans" font-size="10.00" fill="#ffffff">EAStoryReplace</text>
</g>
<!-- EAStoryReplace&#45;&gt;ElementAction -->
<g id="edge9" class="edge">
<title>EAStoryReplace&#45;&gt;ElementAction</title>
<path fill="none" stroke="black" d="M232.83,-89.73C228.56,-92.46 224.52,-95.55 221,-99 181.95,-137.34 157.95,-198.06 146.53,-233.25"/>
<polygon fill="black" stroke="black" points="143.16,-232.3 143.51,-242.88 149.84,-234.39 143.16,-232.3"/>
</g>
<!-- EAStorySwap -->
<g id="node12" class="node">
<title>EAStorySwap</title>
<polygon fill="#2980b9" stroke="#2980b9" points="316.5,-36 238.5,-36 238.5,0 316.5,0 316.5,-36"/>
<text text-anchor="middle" x="277.5" y="-15.5" font-family="Sans" font-size="10.00" fill="#ffffff">EAStorySwap</text>
</g>
<!-- EAStorySwap&#45;&gt;ElementAction -->
<g id="edge10" class="edge">
<title>EAStorySwap&#45;&gt;ElementAction</title>
<path fill="none" stroke="black" d="M238.34,-31.76C231.96,-35.33 225.85,-39.71 221,-45 170.93,-99.68 150.17,-187.89 142.48,-232.79"/>
<polygon fill="black" stroke="black" points="139.02,-232.28 140.88,-242.71 145.93,-233.4 139.02,-232.28"/>
</g>
<!-- ItemDelete -->
<g id="node13" class="node">
<title>ItemDelete</title>
<polygon fill="#2980b9" stroke="#2980b9" points="170,-1035 105,-1035 105,-999 170,-999 170,-1035"/>
<text text-anchor="middle" x="137.5" y="-1014.5" font-family="Sans" font-size="10.00" fill="#ffffff">ItemDelete</text>
</g>
<!-- ItemDelete&#45;&gt;MosFile -->
<g id="edge12" class="edge">
<title>ItemDelete&#45;&gt;MosFile</title>
<path fill="none" stroke="black" d="M104.93,-1003.75C99.21,-1000.06 93.85,-995.51 90,-990 53.43,-937.65 35.52,-741.54 29.96,-667.52"/>
<polygon fill="black" stroke="black" points="33.42,-666.84 29.2,-657.12 26.44,-667.35 33.42,-666.84"/>
</g>
<!-- ItemInsert -->
<g id="node14" class="node">
<title>ItemInsert</title>
<polygon fill="#2980b9" stroke="#2980b9" points="168,-981 107,-981 107,-945 168,-945 168,-981"/>
<text text-anchor="middle" x="137.5" y="-960.5" font-family="Sans" font-size="10.00" fill="#ffffff">ItemInsert</text>
</g>
<!-- ItemInsert&#45;&gt;MosFile -->
<g id="edge13" class="edge">
<title>ItemInsert&#45;&gt;MosFile</title>
<path fill="none" stroke="black" d="M106.98,-950.85C100.55,-946.96 94.37,-942.06 90,-936 58.82,-892.81 38.21,-732.5 30.93,-667.08"/>
<polygon fill="black" stroke="black" points="34.4,-666.63 29.84,-657.07 27.44,-667.39 34.4,-666.63"/>
</g>
<!-- ItemMoveMultiple -->
<g id="node15" class="node">
<title>ItemMoveMultiple</title>
<polygon fill="#2980b9" stroke="#2980b9" points="184.5,-927 90.5,-927 90.5,-891 184.5,-891 184.5,-927"/>
<text text-anchor="middle" x="137.5" y="-906.5" font-family="Sans" font-size="10.00" fill="#ffffff">ItemMoveMultiple</text>
</g>
<!-- ItemMoveMultiple&#45;&gt;MosFile -->
<g id="edge14" class="edge">
<title>ItemMoveMultiple&#45;&gt;MosFile</title>
<path fill="none" stroke="black" d="M98.74,-890.86C95.48,-888.22 92.48,-885.28 90,-882 40.57,-816.61 30.31,-715.98 28.34,-667.3"/>
<polygon fill="black" stroke="black" points="31.84,-667.07 28.03,-657.19 24.84,-667.29 31.84,-667.07"/>
</g>
<!-- ItemReplace -->
<g id="node16" class="node">
<title>ItemReplace</title>
<polygon fill="#2980b9" stroke="#2980b9" points="173.5,-873 101.5,-873 101.5,-837 173.5,-837 173.5,-873"/>
<text text-anchor="middle" x="137.5" y="-852.5" font-family="Sans" font-size="10.00" fill="#ffffff">ItemReplace</text>
</g>
<!-- ItemReplace&#45;&gt;MosFile -->
<g id="edge15" class="edge">
<title>ItemReplace&#45;&gt;MosFile</title>
<path fill="none" stroke="black" d="M101.26,-838.41C97.08,-835.38 93.17,-831.92 90,-828 51.17,-780.07 36.34,-707.01 30.93,-667.23"/>
<polygon fill="black" stroke="black" points="34.38,-666.65 29.66,-657.17 27.44,-667.52 34.38,-666.65"/>
</g>
<!-- MetaDataReplace -->
<g id="node17" class="node">
<title>MetaDataReplace</title>
<polygon fill="#2980b9" stroke="#2980b9" points="185,-819 90,-819 90,-783 185,-783 185,-819"/>
<text text-anchor="middle" x="137.5" y="-798.5" font-family="Sans" font-size="10.00" fill="#ffffff">MetaDataReplace</text>
</g>
<!-- MetaDataReplace&#45;&gt;MosFile -->
<g id="edge16" class="edge">
<title>MetaDataReplace&#45;&gt;MosFile</title>
<path fill="none" stroke="black" d="M99.79,-782.72C96.24,-780.09 92.89,-777.18 90,-774 61.61,-742.75 44.17,-696.27 35.29,-666.81"/>
<polygon fill="black" stroke="black" points="38.64,-665.79 32.51,-657.15 31.92,-667.73 38.64,-665.79"/>
</g>
<!-- ReadyToAir -->
<g id="node18" class="node">
<title>ReadyToAir</title>
<polygon fill="#2980b9" stroke="#2980b9" points="171.5,-765 103.5,-765 103.5,-729 171.5,-729 171.5,-765"/>
<text text-anchor="middle" x="137.5" y="-744.5" font-family="Sans" font-size="10.00" fill="#ffffff">ReadyToAir</text>
</g>
<!-- ReadyToAir&#45;&gt;MosFile -->
<g id="edge17" class="edge">
<title>ReadyToAir&#45;&gt;MosFile</title>
<path fill="none" stroke="black" d="M103.37,-729.95C98.67,-726.92 94.06,-723.58 90,-720 72,-704.16 55.7,-682.41 44.33,-665.44"/>
<polygon fill="black" stroke="black" points="47.25,-663.52 38.85,-657.06 41.39,-667.35 47.25,-663.52"/>
</g>
<!-- RunningOrder -->
<g id="node19" class="node">
<title>RunningOrder</title>
<polygon fill="#2980b9" stroke="#2980b9" points="176,-711 99,-711 99,-675 176,-675 176,-711"/>
<text text-anchor="middle" x="137.5" y="-690.5" font-family="Sans" font-size="10.00" fill="#ffffff">RunningOrder</text>
</g>
<!-- RunningOrder&#45;&gt;MosFile -->
<g id="edge18" class="edge">
<title>RunningOrder&#45;&gt;MosFile</title>
<path fill="none" stroke="black" d="M100.07,-674.87C88.22,-668.97 75.09,-662.43 63.32,-656.58"/>
<polygon fill="black" stroke="black" points="64.73,-653.37 54.22,-652.05 61.61,-659.64 64.73,-653.37"/>
</g>
<!-- RunningOrderEnd -->
<g id="node20" class="node">
<title>RunningOrderEnd</title>
<polygon fill="#2980b9" stroke="#2980b9" points="184.5,-657 90.5,-657 90.5,-621 184.5,-621 184.5,-657"/>
<text text-anchor="middle" x="137.5" y="-636.5" font-family="Sans" font-size="10.00" fill="#ffffff">RunningOrderEnd</text>
</g>
<!-- RunningOrderEnd&#45;&gt;MosFile -->
<g id="edge19" class="edge">
<title>RunningOrderEnd&#45;&gt;MosFile</title>
<path fill="none" stroke="black" d="M90.49,-639C81.8,-639 72.82,-639 64.47,-639"/>
<polygon fill="black" stroke="black" points="64.3,-635.5 54.3,-639 64.3,-642.5 64.3,-635.5"/>
</g>
<!-- RunningOrderReplace -->
<g id="node21" class="node">
<title>RunningOrderReplace</title>
<polygon fill="#2980b9" stroke="#2980b9" points="334,-711 221,-711 221,-675 334,-675 334,-711"/>
<text text-anchor="middle" x="277.5" y="-690.5" font-family="Sans" font-size="10.00" fill="#ffffff">RunningOrderReplace</text>
</g>
<!-- RunningOrderReplace&#45;&gt;RunningOrder -->
<g id="edge20" class="edge">
<title>RunningOrderReplace&#45;&gt;RunningOrder</title>
<path fill="none" stroke="black" d="M220.77,-693C209.43,-693 197.6,-693 186.55,-693"/>
<polygon fill="black" stroke="black" points="186.25,-689.5 176.25,-693 186.25,-696.5 186.25,-689.5"/>
</g>
<!-- StoryAppend -->
<g id="node22" class="node">
<title>StoryAppend</title>
<polygon fill="#2980b9" stroke="#2980b9" points="174,-603 101,-603 101,-567 174,-567 174,-603"/>
<text text-anchor="middle" x="137.5" y="-582.5" font-family="Sans" font-size="10.00" fill="#ffffff">StoryAppend</text>
</g>
<!-- StoryAppend&#45;&gt;MosFile -->
<g id="edge21" class="edge">
<title>StoryAppend&#45;&gt;MosFile</title>
<path fill="none" stroke="black" d="M100.97,-602.68C88.98,-608.65 75.59,-615.32 63.59,-621.29"/>
<polygon fill="black" stroke="black" points="61.71,-618.32 54.31,-625.9 64.82,-624.58 61.71,-618.32"/>
</g>
<!-- StoryDelete -->
<g id="node23" class="node">
<title>StoryDelete</title>
<polygon fill="#2980b9" stroke="#2980b9" points="171.5,-549 103.5,-549 103.5,-513 171.5,-513 171.5,-549"/>
<text text-anchor="middle" x="137.5" y="-528.5" font-family="Sans" font-size="10.00" fill="#ffffff">StoryDelete</text>
</g>
<!-- StoryDelete&#45;&gt;MosFile -->
<g id="edge22" class="edge">
<title>StoryDelete&#45;&gt;MosFile</title>
<path fill="none" stroke="black" d="M103.37,-548.05C98.67,-551.08 94.06,-554.42 90,-558 72,-573.84 55.7,-595.59 44.33,-612.56"/>
<polygon fill="black" stroke="black" points="41.39,-610.65 38.85,-620.94 47.25,-614.48 41.39,-610.65"/>
</g>
<!-- StoryInsert -->
<g id="node24" class="node">
<title>StoryInsert</title>
<polygon fill="#2980b9" stroke="#2980b9" points="170,-495 105,-495 105,-459 170,-459 170,-495"/>
<text text-anchor="middle" x="137.5" y="-474.5" font-family="Sans" font-size="10.00" fill="#ffffff">StoryInsert</text>
</g>
<!-- StoryInsert&#45;&gt;MosFile -->
<g id="edge23" class="edge">
<title>StoryInsert&#45;&gt;MosFile</title>
<path fill="none" stroke="black" d="M104.53,-492.01C99.24,-495.44 94.14,-499.44 90,-504 61.61,-535.25 44.17,-581.73 35.29,-611.19"/>
<polygon fill="black" stroke="black" points="31.92,-610.27 32.51,-620.85 38.64,-612.21 31.92,-610.27"/>
</g>
<!-- StoryMove -->
<g id="node25" class="node">
<title>StoryMove</title>
<polygon fill="#2980b9" stroke="#2980b9" points="169.5,-441 105.5,-441 105.5,-405 169.5,-405 169.5,-441"/>
<text text-anchor="middle" x="137.5" y="-420.5" font-family="Sans" font-size="10.00" fill="#ffffff">StoryMove</text>
</g>
<!-- StoryMove&#45;&gt;MosFile -->
<g id="edge24" class="edge">
<title>StoryMove&#45;&gt;MosFile</title>
<path fill="none" stroke="black" d="M105.04,-437.01C99.45,-440.6 94.11,-444.92 90,-450 51.17,-497.93 36.34,-570.99 30.93,-610.77"/>
<polygon fill="black" stroke="black" points="27.44,-610.48 29.66,-620.83 34.38,-611.35 27.44,-610.48"/>
</g>
<!-- StoryReplace -->
<g id="node26" class="node">
<title>StoryReplace</title>
<polygon fill="#2980b9" stroke="#2980b9" points="175.5,-387 99.5,-387 99.5,-351 175.5,-351 175.5,-387"/>
<text text-anchor="middle" x="137.5" y="-366.5" font-family="Sans" font-size="10.00" fill="#ffffff">StoryReplace</text>
</g>
<!-- StoryReplace&#45;&gt;MosFile -->
<g id="edge25" class="edge">
<title>StoryReplace&#45;&gt;MosFile</title>
<path fill="none" stroke="black" d="M99.19,-386.78C95.75,-389.51 92.59,-392.57 90,-396 40.57,-461.39 30.31,-562.02 28.34,-610.7"/>
<polygon fill="black" stroke="black" points="24.84,-610.71 28.03,-620.81 31.84,-610.93 24.84,-610.71"/>
</g>
<!-- StorySend -->
<g id="node27" class="node">
<title>StorySend</title>
<polygon fill="#2980b9" stroke="#2980b9" points="168.5,-333 106.5,-333 106.5,-297 168.5,-297 168.5,-333"/>
<text text-anchor="middle" x="137.5" y="-312.5" font-family="Sans" font-size="10.00" fill="#ffffff">StorySend</text>
</g>
<!-- StorySend&#45;&gt;MosFile -->
<g id="edge26" class="edge">
<title>StorySend&#45;&gt;MosFile</title>
<path fill="none" stroke="black" d="M106.02,-327.74C99.94,-331.53 94.15,-336.25 90,-342 58.82,-385.19 38.21,-545.5 30.93,-610.92"/>
<polygon fill="black" stroke="black" points="27.44,-610.61 29.84,-620.93 34.4,-611.37 27.44,-610.61"/>
</g>
</g>
</svg>
