<?xml version="1.0" encoding="UTF-8" standalone="no"?>
<!DOCTYPE svg PUBLIC "-//W3C//DTD SVG 1.1//EN"
 "http://www.w3.org/Graphics/SVG/1.1/DTD/svg11.dtd">
<!-- Generated by graphviz version 2.43.0 (0)
 -->
<!-- Title: %3 Pages: 1 -->
<svg width="375pt" height="1070pt"
 viewBox="0.00 0.00 375.00 1070.00" xmlns="http://www.w3.org/2000/svg" xmlns:xlink="http://www.w3.org/1999/xlink">
<g id="graph0" class="graph" transform="scale(1 1) rotate(0) translate(4 1066)">
<title>%3</title>
<polygon fill="white" stroke="transparent" points="-4,4 -4,-1066 371,-1066 371,4 -4,4"/>
<!-- MosFile -->
<g id="node1" class="node">
<title>MosFile</title>
<polygon fill="#9ec6e0" stroke="#9ec6e0" points="54,-657 0,-657 0,-621 54,-621 54,-657"/>
<text text-anchor="middle" x="27" y="-636.5" font-family="Sans" font-size="10.00" fill="#000000">MosFile</text>
</g>
<!-- RunningOrder -->
<g id="node2" class="node">
<title>RunningOrder</title>
<polygon fill="#2980b9" stroke="#2980b9" points="191,-1062 108,-1062 108,-1026 191,-1026 191,-1062"/>
<text text-anchor="middle" x="149.5" y="-1041.5" font-family="Sans" font-size="10.00" fill="#ffffff">RunningOrder</text>
</g>
<!-- RunningOrder&#45;&gt;MosFile -->
<g id="edge1" class="edge">
<title>RunningOrder&#45;&gt;MosFile</title>
<path fill="none" stroke="black" d="M107.94,-1031.66C101.08,-1027.93 94.67,-1023.14 90,-1017 47.98,-961.78 33.27,-745.4 29.26,-667.31"/>
<polygon fill="black" stroke="black" points="32.76,-667.05 28.77,-657.23 25.76,-667.39 32.76,-667.05"/>
</g>
<!-- StorySend -->
<g id="node3" class="node">
<title>StorySend</title>
<polygon fill="#2980b9" stroke="#2980b9" points="182.5,-1008 116.5,-1008 116.5,-972 182.5,-972 182.5,-1008"/>
<text text-anchor="middle" x="149.5" y="-987.5" font-family="Sans" font-size="10.00" fill="#ffffff">StorySend</text>
</g>
<!-- StorySend&#45;&gt;MosFile -->
<g id="edge2" class="edge">
<title>StorySend&#45;&gt;MosFile</title>
<path fill="none" stroke="black" d="M116.26,-981.46C106.5,-977.37 96.62,-971.46 90,-963 53.91,-916.86 35.91,-737.59 30.13,-667.4"/>
<polygon fill="black" stroke="black" points="33.6,-666.8 29.31,-657.11 26.62,-667.36 33.6,-666.8"/>
</g>
<!-- MetaDataReplace -->
<g id="node4" class="node">
<title>MetaDataReplace</title>
<polygon fill="#2980b9" stroke="#2980b9" points="201.5,-954 97.5,-954 97.5,-918 201.5,-918 201.5,-954"/>
<text text-anchor="middle" x="149.5" y="-933.5" font-family="Sans" font-size="10.00" fill="#ffffff">MetaDataReplace</text>
</g>
<!-- MetaDataReplace&#45;&gt;MosFile -->
<g id="edge3" class="edge">
<title>MetaDataReplace&#45;&gt;MosFile</title>
<path fill="none" stroke="black" d="M99.59,-917.99C96.02,-915.37 92.75,-912.39 90,-909 59.75,-871.75 38.99,-728.56 31.31,-667.19"/>
<polygon fill="black" stroke="black" points="34.75,-666.56 30.06,-657.06 27.81,-667.41 34.75,-666.56"/>
</g>
<!-- StoryAppend -->
<g id="node5" class="node">
<title>StoryAppend</title>
<polygon fill="#2980b9" stroke="#2980b9" points="189,-900 110,-900 110,-864 189,-864 189,-900"/>
<text text-anchor="middle" x="149.5" y="-879.5" font-family="Sans" font-size="10.00" fill="#ffffff">StoryAppend</text>
</g>
<!-- StoryAppend&#45;&gt;MosFile -->
<g id="edge4" class="edge">
<title>StoryAppend&#45;&gt;MosFile</title>
<path fill="none" stroke="black" d="M109.71,-869.84C102.36,-866.06 95.32,-861.2 90,-855 43.19,-800.42 31.64,-712.47 28.85,-667.49"/>
<polygon fill="black" stroke="black" points="32.33,-667.09 28.32,-657.29 25.34,-667.45 32.33,-667.09"/>
</g>
<!-- StoryDelete -->
<g id="node6" class="node">
<title>StoryDelete</title>
<polygon fill="#2980b9" stroke="#2980b9" points="186.5,-846 112.5,-846 112.5,-810 186.5,-810 186.5,-846"/>
<text text-anchor="middle" x="149.5" y="-825.5" font-family="Sans" font-size="10.00" fill="#ffffff">StoryDelete</text>
</g>
<!-- StoryDelete&#45;&gt;MosFile -->
<g id="edge5" class="edge">
<title>StoryDelete&#45;&gt;MosFile</title>
<path fill="none" stroke="black" d="M112.24,-816.53C104.12,-812.62 96.11,-807.54 90,-801 54.49,-763.03 38.68,-702.6 32.14,-667.27"/>
<polygon fill="black" stroke="black" points="35.55,-666.42 30.4,-657.16 28.65,-667.61 35.55,-666.42"/>
</g>
<!-- ItemDelete -->
<g id="node7" class="node">
<title>ItemDelete</title>
<polygon fill="#2980b9" stroke="#2980b9" points="185,-792 114,-792 114,-756 185,-756 185,-792"/>
<text text-anchor="middle" x="149.5" y="-771.5" font-family="Sans" font-size="10.00" fill="#ffffff">ItemDelete</text>
</g>
<!-- ItemDelete&#45;&gt;MosFile -->
<g id="edge6" class="edge">
<title>ItemDelete&#45;&gt;MosFile</title>
<path fill="none" stroke="black" d="M113.84,-762.26C105.41,-758.31 96.85,-753.27 90,-747 65.72,-724.78 48.39,-690.79 38.33,-666.89"/>
<polygon fill="black" stroke="black" points="41.46,-665.29 34.47,-657.33 34.97,-667.91 41.46,-665.29"/>
</g>
<!-- StoryInsert -->
<g id="node8" class="node">
<title>StoryInsert</title>
<polygon fill="#2980b9" stroke="#2980b9" points="184.5,-738 114.5,-738 114.5,-702 184.5,-702 184.5,-738"/>
<text text-anchor="middle" x="149.5" y="-717.5" font-family="Sans" font-size="10.00" fill="#ffffff">StoryInsert</text>
</g>
<!-- StoryInsert&#45;&gt;MosFile -->
<g id="edge7" class="edge">
<title>StoryInsert&#45;&gt;MosFile</title>
<path fill="none" stroke="black" d="M114.22,-706.16C106.04,-702.32 97.51,-697.86 90,-693 77.08,-684.64 64.04,-673.74 53.28,-663.92"/>
<polygon fill="black" stroke="black" points="55.58,-661.28 45.88,-657.02 50.81,-666.4 55.58,-661.28"/>
</g>
<!-- ItemInsert -->
<g id="node9" class="node">
<title>ItemInsert</title>
<polygon fill="#2980b9" stroke="#2980b9" points="183,-684 116,-684 116,-648 183,-648 183,-684"/>
<text text-anchor="middle" x="149.5" y="-663.5" font-family="Sans" font-size="10.00" fill="#ffffff">ItemInsert</text>
</g>
<!-- ItemInsert&#45;&gt;MosFile -->
<g id="edge8" class="edge">
<title>ItemInsert&#45;&gt;MosFile</title>
<path fill="none" stroke="black" d="M115.89,-658.69C99.84,-655.1 80.46,-650.75 63.98,-647.06"/>
<polygon fill="black" stroke="black" points="64.68,-643.63 54.15,-644.86 63.15,-650.46 64.68,-643.63"/>
</g>
<!-- StoryMove -->
<g id="node10" class="node">
<title>StoryMove</title>
<polygon fill="#2980b9" stroke="#2980b9" points="184,-630 115,-630 115,-594 184,-594 184,-630"/>
<text text-anchor="middle" x="149.5" y="-609.5" font-family="Sans" font-size="10.00" fill="#ffffff">StoryMove</text>
</g>
<!-- StoryMove&#45;&gt;MosFile -->
<g id="edge9" class="edge">
<title>StoryMove&#45;&gt;MosFile</title>
<path fill="none" stroke="black" d="M114.93,-619.52C99.17,-623.05 80.35,-627.27 64.25,-630.88"/>
<polygon fill="black" stroke="black" points="63.13,-627.54 54.13,-633.14 64.66,-634.37 63.13,-627.54"/>
</g>
<!-- ItemMoveMultiple -->
<g id="node11" class="node">
<title>ItemMoveMultiple</title>
<polygon fill="#2980b9" stroke="#2980b9" points="202.5,-576 96.5,-576 96.5,-540 202.5,-540 202.5,-576"/>
<text text-anchor="middle" x="149.5" y="-555.5" font-family="Sans" font-size="10.00" fill="#ffffff">ItemMoveMultiple</text>
</g>
<!-- ItemMoveMultiple&#45;&gt;MosFile -->
<g id="edge10" class="edge">
<title>ItemMoveMultiple&#45;&gt;MosFile</title>
<path fill="none" stroke="black" d="M105.56,-576.09C100.2,-578.85 94.88,-581.84 90,-585 77.08,-593.36 64.04,-604.26 53.28,-614.08"/>
<polygon fill="black" stroke="black" points="50.81,-611.6 45.88,-620.98 55.58,-616.72 50.81,-611.6"/>
</g>
<!-- StoryReplace -->
<g id="node12" class="node">
<title>StoryReplace</title>
<polygon fill="#2980b9" stroke="#2980b9" points="190,-522 109,-522 109,-486 190,-486 190,-522"/>
<text text-anchor="middle" x="149.5" y="-501.5" font-family="Sans" font-size="10.00" fill="#ffffff">StoryReplace</text>
</g>
<!-- StoryReplace&#45;&gt;MosFile -->
<g id="edge11" class="edge">
<title>StoryReplace&#45;&gt;MosFile</title>
<path fill="none" stroke="black" d="M108.96,-518.15C102.17,-521.68 95.53,-525.94 90,-531 65.72,-553.22 48.39,-587.21 38.33,-611.11"/>
<polygon fill="black" stroke="black" points="34.97,-610.09 34.47,-620.67 41.46,-612.71 34.97,-610.09"/>
</g>
<!-- ItemReplace -->
<g id="node13" class="node">
<title>ItemReplace</title>
<polygon fill="#2980b9" stroke="#2980b9" points="188.5,-468 110.5,-468 110.5,-432 188.5,-432 188.5,-468"/>
<text text-anchor="middle" x="149.5" y="-447.5" font-family="Sans" font-size="10.00" fill="#ffffff">ItemReplace</text>
</g>
<!-- ItemReplace&#45;&gt;MosFile -->
<g id="edge12" class="edge">
<title>ItemReplace&#45;&gt;MosFile</title>
<path fill="none" stroke="black" d="M110.41,-462.37C102.93,-466.15 95.65,-470.95 90,-477 54.49,-514.97 38.68,-575.4 32.14,-610.73"/>
<polygon fill="black" stroke="black" points="28.65,-610.39 30.4,-620.84 35.55,-611.58 28.65,-610.39"/>
</g>
<!-- ReadyToAir -->
<g id="node14" class="node">
<title>ReadyToAir</title>
<polygon fill="#2980b9" stroke="#2980b9" points="185,-414 114,-414 114,-378 185,-378 185,-414"/>
<text text-anchor="middle" x="149.5" y="-393.5" font-family="Sans" font-size="10.00" fill="#ffffff">ReadyToAir</text>
</g>
<!-- ReadyToAir&#45;&gt;MosFile -->
<g id="edge13" class="edge">
<title>ReadyToAir&#45;&gt;MosFile</title>
<path fill="none" stroke="black" d="M113.96,-406.11C105.12,-410.13 96.34,-415.61 90,-423 43.19,-477.58 31.64,-565.53 28.85,-610.51"/>
<polygon fill="black" stroke="black" points="25.34,-610.55 28.32,-620.71 32.33,-610.91 25.34,-610.55"/>
</g>
<!-- RunningOrderReplace -->
<g id="node15" class="node">
<title>RunningOrderReplace</title>
<polygon fill="#2980b9" stroke="#2980b9" points="367,-1062 245,-1062 245,-1026 367,-1026 367,-1062"/>
<text text-anchor="middle" x="306" y="-1041.5" font-family="Sans" font-size="10.00" fill="#ffffff">RunningOrderReplace</text>
</g>
<!-- RunningOrderReplace&#45;&gt;RunningOrder -->
<g id="edge14" class="edge">
<title>RunningOrderReplace&#45;&gt;RunningOrder</title>
<path fill="none" stroke="black" d="M244.82,-1044C230.51,-1044 215.37,-1044 201.51,-1044"/>
<polygon fill="black" stroke="black" points="201.2,-1040.5 191.2,-1044 201.2,-1047.5 201.2,-1040.5"/>
</g>
<!-- RunningOrderEnd -->
<g id="node16" class="node">
<title>RunningOrderEnd</title>
<polygon fill="#2980b9" stroke="#2980b9" points="200,-360 99,-360 99,-324 200,-324 200,-360"/>
<text text-anchor="middle" x="149.5" y="-339.5" font-family="Sans" font-size="10.00" fill="#ffffff">RunningOrderEnd</text>
</g>
<!-- RunningOrderEnd&#45;&gt;MosFile -->
<g id="edge15" class="edge">
<title>RunningOrderEnd&#45;&gt;MosFile</title>
<path fill="none" stroke="black" d="M99.59,-360.01C96.02,-362.63 92.75,-365.61 90,-369 59.75,-406.25 38.99,-549.44 31.31,-610.81"/>
<polygon fill="black" stroke="black" points="27.81,-610.59 30.06,-620.94 34.75,-611.44 27.81,-610.59"/>
</g>
<!-- ElementAction -->
<g id="node17" class="node">
<title>ElementAction</title>
<polygon fill="#9ec6e0" stroke="#9ec6e0" points="193.5,-306 105.5,-306 105.5,-270 193.5,-270 193.5,-306"/>
<text text-anchor="middle" x="149.5" y="-285.5" font-family="Sans" font-size="10.00" fill="#000000">ElementAction</text>
</g>
<!-- ElementAction&#45;&gt;MosFile -->
<g id="edge16" class="edge">
<title>ElementAction&#45;&gt;MosFile</title>
<path fill="none" stroke="black" d="M105.41,-301.95C99.54,-305.42 94.13,-309.71 90,-315 53.91,-361.14 35.91,-540.41 30.13,-610.6"/>
<polygon fill="black" stroke="black" points="26.62,-610.64 29.31,-620.89 33.6,-611.2 26.62,-610.64"/>
</g>
<!-- EAStoryReplace -->
<g id="node18" class="node">
<title>EAStoryReplace</title>
<polygon fill="#2980b9" stroke="#2980b9" points="353,-576 259,-576 259,-540 353,-540 353,-576"/>
<text text-anchor="middle" x="306" y="-555.5" font-family="Sans" font-size="10.00" fill="#ffffff">EAStoryReplace</text>
</g>
<!-- EAStoryReplace&#45;&gt;ElementAction -->
<g id="edge17" class="edge">
<title>EAStoryReplace&#45;&gt;ElementAction</title>
<path fill="none" stroke="black" d="M258.92,-543.22C253.61,-539.91 248.77,-535.89 245,-531 185.59,-453.91 268.04,-392.37 209,-315 206.96,-312.33 204.6,-309.92 202.02,-307.74"/>
<polygon fill="black" stroke="black" points="203.89,-304.78 193.71,-301.86 199.85,-310.49 203.89,-304.78"/>
</g>
<!-- EAItemReplace -->
<g id="node19" class="node">
<title>EAItemReplace</title>
<polygon fill="#2980b9" stroke="#2980b9" points="351.5,-522 260.5,-522 260.5,-486 351.5,-486 351.5,-522"/>
<text text-anchor="middle" x="306" y="-501.5" font-family="Sans" font-size="10.00" fill="#ffffff">EAItemReplace</text>
</g>
<!-- EAItemReplace&#45;&gt;ElementAction -->
<g id="edge18" class="edge">
<title>EAItemReplace&#45;&gt;ElementAction</title>
<path fill="none" stroke="black" d="M260.35,-489.75C254.55,-486.33 249.18,-482.14 245,-477 198.43,-419.8 255.29,-372.42 209,-315 206.93,-312.43 204.56,-310.1 201.98,-307.97"/>
<polygon fill="black" stroke="black" points="203.96,-305.08 193.75,-302.23 199.95,-310.82 203.96,-305.08"/>
</g>
<!-- EAStoryDelete -->
<g id="node20" class="node">
<title>EAStoryDelete</title>
<polygon fill="#2980b9" stroke="#2980b9" points="349.5,-468 262.5,-468 262.5,-432 349.5,-432 349.5,-468"/>
<text text-anchor="middle" x="306" y="-447.5" font-family="Sans" font-size="10.00" fill="#ffffff">EAStoryDelete</text>
</g>
<!-- EAStoryDelete&#45;&gt;ElementAction -->
<g id="edge19" class="edge">
<title>EAStoryDelete&#45;&gt;ElementAction</title>
<path fill="none" stroke="black" d="M262.34,-436.2C255.91,-432.69 249.82,-428.34 245,-423 211.08,-385.46 242.74,-352.7 209,-315 206.97,-312.73 204.71,-310.64 202.3,-308.72"/>
<polygon fill="black" stroke="black" points="203.82,-305.52 193.59,-302.79 199.89,-311.31 203.82,-305.52"/>
</g>
<!-- EAItemDelete -->
<g id="node21" class="node">
<title>EAItemDelete</title>
<polygon fill="#2980b9" stroke="#2980b9" points="348,-414 264,-414 264,-378 348,-378 348,-414"/>
<text text-anchor="middle" x="306" y="-393.5" font-family="Sans" font-size="10.00" fill="#ffffff">EAItemDelete</text>
</g>
<!-- EAItemDelete&#45;&gt;ElementAction -->
<g id="edge20" class="edge">
<title>EAItemDelete&#45;&gt;ElementAction</title>
<path fill="none" stroke="black" d="M263.79,-381.19C257.12,-377.78 250.58,-373.73 245,-369 222.99,-350.36 230.92,-333.75 209,-315 206.99,-313.28 204.86,-311.65 202.63,-310.11"/>
<polygon fill="black" stroke="black" points="204.06,-306.87 193.72,-304.57 200.36,-312.82 204.06,-306.87"/>
</g>
<!-- EAStoryInsert -->
<g id="node22" class="node">
<title>EAStoryInsert</title>
<polygon fill="#2980b9" stroke="#2980b9" points="347.5,-360 264.5,-360 264.5,-324 347.5,-324 347.5,-360"/>
<text text-anchor="middle" x="306" y="-339.5" font-family="Sans" font-size="10.00" fill="#ffffff">EAStoryInsert</text>
</g>
<!-- EAStoryInsert&#45;&gt;ElementAction -->
<g id="edge21" class="edge">
<title>EAStoryInsert&#45;&gt;ElementAction</title>
<path fill="none" stroke="black" d="M264.41,-327.81C245.66,-321.26 223.16,-313.4 203.13,-306.4"/>
<polygon fill="black" stroke="black" points="204.12,-303.03 193.52,-303.04 201.81,-309.64 204.12,-303.03"/>
</g>
<!-- EAItemInsert -->
<g id="node23" class="node">
<title>EAItemInsert</title>
<polygon fill="#2980b9" stroke="#2980b9" points="346,-306 266,-306 266,-270 346,-270 346,-306"/>
<text text-anchor="middle" x="306" y="-285.5" font-family="Sans" font-size="10.00" fill="#ffffff">EAItemInsert</text>
</g>
<!-- EAItemInsert&#45;&gt;ElementAction -->
<g id="edge22" class="edge">
<title>EAItemInsert&#45;&gt;ElementAction</title>
<path fill="none" stroke="black" d="M265.61,-288C246.8,-288 224,-288 203.68,-288"/>
<polygon fill="black" stroke="black" points="203.62,-284.5 193.62,-288 203.62,-291.5 203.62,-284.5"/>
</g>
<!-- EAStorySwap -->
<g id="node24" class="node">
<title>EAStorySwap</title>
<polygon fill="#2980b9" stroke="#2980b9" points="346.5,-252 265.5,-252 265.5,-216 346.5,-216 346.5,-252"/>
<text text-anchor="middle" x="306" y="-231.5" font-family="Sans" font-size="10.00" fill="#ffffff">EAStorySwap</text>
</g>
<!-- EAStorySwap&#45;&gt;ElementAction -->
<g id="edge23" class="edge">
<title>EAStorySwap&#45;&gt;ElementAction</title>
<path fill="none" stroke="black" d="M265.21,-247.91C246.39,-254.49 223.65,-262.43 203.39,-269.51"/>
<polygon fill="black" stroke="black" points="201.96,-266.3 193.68,-272.91 204.27,-272.91 201.96,-266.3"/>
</g>
<!-- EAItemSwap -->
<g id="node25" class="node">
<title>EAItemSwap</title>
<polygon fill="#2980b9" stroke="#2980b9" points="345,-198 267,-198 267,-162 345,-162 345,-198"/>
<text text-anchor="middle" x="306" y="-177.5" font-family="Sans" font-size="10.00" fill="#ffffff">EAItemSwap</text>
</g>
<!-- EAItemSwap&#45;&gt;ElementAction -->
<g id="edge24" class="edge">
<title>EAItemSwap&#45;&gt;ElementAction</title>
<path fill="none" stroke="black" d="M266.69,-195.26C259.29,-198.75 251.75,-202.71 245,-207 219.62,-223.11 193.92,-245.64 175.74,-262.84"/>
<polygon fill="black" stroke="black" points="173.22,-260.41 168.43,-269.86 178.07,-265.46 173.22,-260.41"/>
</g>
<!-- EAStoryMove -->
<g id="node26" class="node">
<title>EAStoryMove</title>
<polygon fill="#2980b9" stroke="#2980b9" points="347,-144 265,-144 265,-108 347,-108 347,-144"/>
<text text-anchor="middle" x="306" y="-123.5" font-family="Sans" font-size="10.00" fill="#ffffff">EAStoryMove</text>
</g>
<!-- EAStoryMove&#45;&gt;ElementAction -->
<g id="edge25" class="edge">
<title>EAStoryMove&#45;&gt;ElementAction</title>
<path fill="none" stroke="black" d="M264.82,-140.44C257.81,-143.94 250.9,-148.12 245,-153 208.41,-183.29 179.53,-231.07 163.75,-260.92"/>
<polygon fill="black" stroke="black" points="160.58,-259.45 159.1,-269.94 166.8,-262.66 160.58,-259.45"/>
</g>
<!-- EAItemMove -->
<g id="node27" class="node">
<title>EAItemMove</title>
<polygon fill="#2980b9" stroke="#2980b9" points="345.5,-90 266.5,-90 266.5,-54 345.5,-54 345.5,-90"/>
<text text-anchor="middle" x="306" y="-69.5" font-family="Sans" font-size="10.00" fill="#ffffff">EAItemMove</text>
</g>
<!-- EAItemMove&#45;&gt;ElementAction -->
<g id="edge26" class="edge">
<title>EAItemMove&#45;&gt;ElementAction</title>
<path fill="none" stroke="black" d="M266.39,-84.66C258.68,-88.42 251.1,-93.15 245,-99 220.1,-122.91 180.74,-213.8 161.64,-260.28"/>
<polygon fill="black" stroke="black" points="158.31,-259.16 157.77,-269.74 164.79,-261.81 158.31,-259.16"/>
</g>
<!-- RunningOrderControl -->
<g id="node28" class="node">
<title>RunningOrderControl</title>
<polygon fill="#2980b9" stroke="#2980b9" points="209,-144 90,-144 90,-108 209,-108 209,-144"/>
<text text-anchor="middle" x="149.5" y="-123.5" font-family="Sans" font-size="10.00" fill="#ffffff">RunningOrderControl</text>
</g>
<!-- RunningOrderControl&#45;&gt;MosFile -->
<g id="edge27" class="edge">
<title>RunningOrderControl&#45;&gt;MosFile</title>
<path fill="none" stroke="black" d="M138.87,-144.24C125.83,-169.69 102.74,-217.62 90,-261 52.52,-388.57 35.77,-547.44 30.23,-610.91"/>
<polygon fill="black" stroke="black" points="26.73,-610.68 29.38,-620.94 33.71,-611.27 26.73,-610.68"/>
</g>
<!-- ControlStop -->
<g id="node29" class="node">
<title>ControlStop</title>
<polygon fill="#2980b9" stroke="#2980b9" points="343,-36 269,-36 269,0 343,0 343,-36"/>
<text text-anchor="middle" x="306" y="-15.5" font-family="Sans" font-size="10.00" fill="#ffffff">ControlStop</text>
</g>
<!-- ControlStop&#45;&gt;RunningOrderControl -->
<g id="edge28" class="edge">
<title>ControlStop&#45;&gt;RunningOrderControl</title>
<path fill="none" stroke="black" d="M268.91,-32.23C260.81,-35.96 252.43,-40.29 245,-45 219.62,-61.11 193.92,-83.64 175.74,-100.84"/>
<polygon fill="black" stroke="black" points="173.22,-98.41 168.43,-107.86 178.07,-103.46 173.22,-98.41"/>
</g>
</g>
</svg>
