<?xml version="1.0" encoding="UTF-8" standalone="no"?>
<!DOCTYPE svg PUBLIC "-//W3C//DTD SVG 1.1//EN"
 "http://www.w3.org/Graphics/SVG/1.1/DTD/svg11.dtd">
<!-- Generated by graphviz version 2.44.1 (20200629.0846)
 -->
<!-- Title: classes Pages: 1 -->
<svg width="342pt" height="989pt"
 viewBox="0.00 0.00 342.00 989.00" xmlns="http://www.w3.org/2000/svg" xmlns:xlink="http://www.w3.org/1999/xlink">
<g id="graph0" class="graph" transform="scale(1 1) rotate(0) translate(4 985)">
<title>classes</title>
<polygon fill="white" stroke="transparent" points="-4,4 -4,-985 338,-985 338,4 -4,4"/>
<!-- ElementAction -->
<g id="node1" class="node">
<title>ElementAction</title>
<polygon fill="#9ec6e0" stroke="#9ec6e0" points="177.5,-279 97.5,-279 97.5,-243 177.5,-243 177.5,-279"/>
<text text-anchor="middle" x="137.5" y="-258.5" font-family="Sans" font-size="10.00" fill="#000000">ElementAction</text>
</g>
<!-- MosFile -->
<g id="node2" class="node">
<title>MosFile</title>
<polygon fill="#9ec6e0" stroke="#9ec6e0" points="54,-630 0,-630 0,-594 54,-594 54,-630"/>
<text text-anchor="middle" x="27" y="-609.5" font-family="Sans" font-size="10.00" fill="#000000">MosFile</text>
</g>
<!-- ElementAction&#45;&gt;MosFile -->
<g id="edge11" class="edge">
<title>ElementAction&#45;&gt;MosFile</title>
<path fill="none" stroke="black" d="M98.1,-279.35C95.04,-281.93 92.27,-284.8 90,-288 56.19,-335.67 36.88,-513.24 30.44,-583.31"/>
<polygon fill="black" stroke="black" points="26.93,-583.32 29.52,-593.59 33.9,-583.95 26.93,-583.32"/>
</g>
<!-- EAItemDelete -->
<g id="node3" class="node">
<title>EAItemDelete</title>
<polygon fill="#2980b9" stroke="#2980b9" points="316.5,-522 238.5,-522 238.5,-486 316.5,-486 316.5,-522"/>
<text text-anchor="middle" x="277.5" y="-501.5" font-family="Sans" font-size="10.00" fill="#ffffff">EAItemDelete</text>
</g>
<!-- EAItemDelete&#45;&gt;ElementAction -->
<g id="edge1" class="edge">
<title>EAItemDelete&#45;&gt;ElementAction</title>
<path fill="none" stroke="black" d="M238.4,-491.39C231.77,-487.67 225.56,-482.96 221,-477 169.04,-409.09 234.44,-357.77 185,-288 184.65,-287.5 184.28,-287.01 183.9,-286.52"/>
<polygon fill="black" stroke="black" points="186.39,-284.07 176.9,-279.35 181.38,-288.95 186.39,-284.07"/>
</g>
<!-- EAItemInsert -->
<g id="node4" class="node">
<title>EAItemInsert</title>
<polygon fill="#2980b9" stroke="#2980b9" points="314.5,-468 240.5,-468 240.5,-432 314.5,-432 314.5,-468"/>
<text text-anchor="middle" x="277.5" y="-447.5" font-family="Sans" font-size="10.00" fill="#ffffff">EAItemInsert</text>
</g>
<!-- EAItemInsert&#45;&gt;ElementAction -->
<g id="edge2" class="edge">
<title>EAItemInsert&#45;&gt;ElementAction</title>
<path fill="none" stroke="black" d="M240.45,-438.05C233.17,-434.22 226.18,-429.28 221,-423 181.51,-375.08 222.71,-337.33 185,-288 184.53,-287.39 184.05,-286.79 183.54,-286.2"/>
<polygon fill="black" stroke="black" points="185.86,-283.57 176.22,-279.17 181.01,-288.62 185.86,-283.57"/>
</g>
<!-- EAItemMove -->
<g id="node5" class="node">
<title>EAItemMove</title>
<polygon fill="#2980b9" stroke="#2980b9" points="314.5,-414 240.5,-414 240.5,-378 314.5,-378 314.5,-414"/>
<text text-anchor="middle" x="277.5" y="-393.5" font-family="Sans" font-size="10.00" fill="#ffffff">EAItemMove</text>
</g>
<!-- EAItemMove&#45;&gt;ElementAction -->
<g id="edge3" class="edge">
<title>EAItemMove&#45;&gt;ElementAction</title>
<path fill="none" stroke="black" d="M240.3,-382.96C233.28,-379.24 226.43,-374.63 221,-369 193.63,-340.67 211.31,-317.32 185,-288 184.37,-287.3 183.72,-286.62 183.05,-285.94"/>
<polygon fill="black" stroke="black" points="185.11,-283.1 175.24,-279.25 180.56,-288.41 185.11,-283.1"/>
</g>
<!-- EAItemReplace -->
<g id="node6" class="node">
<title>EAItemReplace</title>
<polygon fill="#2980b9" stroke="#2980b9" points="320.5,-360 234.5,-360 234.5,-324 320.5,-324 320.5,-360"/>
<text text-anchor="middle" x="277.5" y="-339.5" font-family="Sans" font-size="10.00" fill="#ffffff">EAItemReplace</text>
</g>
<!-- EAItemReplace&#45;&gt;ElementAction -->
<g id="edge4" class="edge">
<title>EAItemReplace&#45;&gt;ElementAction</title>
<path fill="none" stroke="black" d="M236.89,-323.88C231.46,-321.07 226.03,-318.07 221,-315 203.93,-304.58 201.68,-299.04 185,-288 183.17,-286.79 181.28,-285.57 179.35,-284.35"/>
<polygon fill="black" stroke="black" points="181.17,-281.36 170.82,-279.11 177.51,-287.32 181.17,-281.36"/>
</g>
<!-- EAItemSwap -->
<g id="node7" class="node">
<title>EAItemSwap</title>
<polygon fill="#2980b9" stroke="#2980b9" points="314.5,-306 240.5,-306 240.5,-270 314.5,-270 314.5,-306"/>
<text text-anchor="middle" x="277.5" y="-285.5" font-family="Sans" font-size="10.00" fill="#ffffff">EAItemSwap</text>
</g>
<!-- EAItemSwap&#45;&gt;ElementAction -->
<g id="edge5" class="edge">
<title>EAItemSwap&#45;&gt;ElementAction</title>
<path fill="none" stroke="black" d="M240.24,-280.91C224.22,-277.77 205.13,-274.04 187.84,-270.65"/>
<polygon fill="black" stroke="black" points="188.39,-267.2 177.91,-268.71 187.05,-274.07 188.39,-267.2"/>
</g>
<!-- EAStoryDelete -->
<g id="node8" class="node">
<title>EAStoryDelete</title>
<polygon fill="#2980b9" stroke="#2980b9" points="318.5,-252 236.5,-252 236.5,-216 318.5,-216 318.5,-252"/>
<text text-anchor="middle" x="277.5" y="-231.5" font-family="Sans" font-size="10.00" fill="#ffffff">EAStoryDelete</text>
</g>
<!-- EAStoryDelete&#45;&gt;ElementAction -->
<g id="edge6" class="edge">
<title>EAStoryDelete&#45;&gt;ElementAction</title>
<path fill="none" stroke="black" d="M236.21,-241.88C221.07,-244.84 203.69,-248.25 187.82,-251.35"/>
<polygon fill="black" stroke="black" points="186.79,-247.99 177.65,-253.34 188.13,-254.86 186.79,-247.99"/>
</g>
<!-- EAStoryInsert -->
<g id="node9" class="node">
<title>EAStoryInsert</title>
<polygon fill="#2980b9" stroke="#2980b9" points="316.5,-198 238.5,-198 238.5,-162 316.5,-162 316.5,-198"/>
<text text-anchor="middle" x="277.5" y="-177.5" font-family="Sans" font-size="10.00" fill="#ffffff">EAStoryInsert</text>
</g>
<!-- EAStoryInsert&#45;&gt;ElementAction -->
<g id="edge7" class="edge">
<title>EAStoryInsert&#45;&gt;ElementAction</title>
<path fill="none" stroke="black" d="M238.25,-197.82C232.41,-200.76 226.5,-203.88 221,-207 204.85,-216.17 187.57,-227.26 173.02,-237"/>
<polygon fill="black" stroke="black" points="170.67,-234.37 164.35,-242.87 174.59,-240.16 170.67,-234.37"/>
</g>
<!-- EAStoryMove -->
<g id="node10" class="node">
<title>EAStoryMove</title>
<polygon fill="#2980b9" stroke="#2980b9" points="316,-144 239,-144 239,-108 316,-108 316,-144"/>
<text text-anchor="middle" x="277.5" y="-123.5" font-family="Sans" font-size="10.00" fill="#ffffff">EAStoryMove</text>
</g>
<!-- EAStoryMove&#45;&gt;ElementAction -->
<g id="edge8" class="edge">
<title>EAStoryMove&#45;&gt;ElementAction</title>
<path fill="none" stroke="black" d="M238.92,-141.3C232.62,-144.68 226.39,-148.59 221,-153 192.95,-175.95 168.86,-210.24 154.07,-234"/>
<polygon fill="black" stroke="black" points="150.89,-232.49 148.69,-242.86 156.88,-236.13 150.89,-232.49"/>
</g>
<!-- EAStoryReplace -->
<g id="node11" class="node">
<title>EAStoryReplace</title>
<polygon fill="#2980b9" stroke="#2980b9" points="322,-90 233,-90 233,-54 322,-54 322,-90"/>
<text text-anchor="middle" x="277.5" y="-69.5" font-family="Sans" font-size="10.00" fill="#ffffff">EAStoryReplace</text>
</g>
<!-- EAStoryReplace&#45;&gt;ElementAction -->
<g id="edge9" class="edge">
<title>EAStoryReplace&#45;&gt;ElementAction</title>
<path fill="none" stroke="black" d="M232.83,-89.73C228.56,-92.46 224.52,-95.55 221,-99 181.95,-137.34 157.95,-198.06 146.53,-233.25"/>
<polygon fill="black" stroke="black" points="143.16,-232.3 143.51,-242.88 149.84,-234.39 143.16,-232.3"/>
</g>
<!-- EAStorySwap -->
<g id="node12" class="node">
<title>EAStorySwap</title>
<polygon fill="#2980b9" stroke="#2980b9" points="316.5,-36 238.5,-36 238.5,0 316.5,0 316.5,-36"/>
<text text-anchor="middle" x="277.5" y="-15.5" font-family="Sans" font-size="10.00" fill="#ffffff">EAStorySwap</text>
</g>
<!-- EAStorySwap&#45;&gt;ElementAction -->
<g id="edge10" class="edge">
<title>EAStorySwap&#45;&gt;ElementAction</title>
<path fill="none" stroke="black" d="M238.34,-31.76C231.96,-35.33 225.85,-39.71 221,-45 170.93,-99.68 150.17,-187.89 142.48,-232.79"/>
<polygon fill="black" stroke="black" points="139.02,-232.28 140.88,-242.71 145.93,-233.4 139.02,-232.28"/>
</g>
<!-- ItemDelete -->
<g id="node13" class="node">
<title>ItemDelete</title>
<polygon fill="#2980b9" stroke="#2980b9" points="170,-981 105,-981 105,-945 170,-945 170,-981"/>
<text text-anchor="middle" x="137.5" y="-960.5" font-family="Sans" font-size="10.00" fill="#ffffff">ItemDelete</text>
</g>
<!-- ItemDelete&#45;&gt;MosFile -->
<g id="edge12" class="edge">
<title>ItemDelete&#45;&gt;MosFile</title>
<path fill="none" stroke="black" d="M104.99,-949.7C99.27,-946.02 93.89,-941.48 90,-936 56.19,-888.33 36.88,-710.76 30.44,-640.69"/>
<polygon fill="black" stroke="black" points="33.9,-640.05 29.52,-630.41 26.93,-640.68 33.9,-640.05"/>
</g>
<!-- ItemInsert -->
<g id="node14" class="node">
<title>ItemInsert</title>
<polygon fill="#2980b9" stroke="#2980b9" points="168,-927 107,-927 107,-891 168,-891 168,-927"/>
<text text-anchor="middle" x="137.5" y="-906.5" font-family="Sans" font-size="10.00" fill="#ffffff">ItemInsert</text>
</g>
<!-- ItemInsert&#45;&gt;MosFile -->
<g id="edge13" class="edge">
<title>ItemInsert&#45;&gt;MosFile</title>
<path fill="none" stroke="black" d="M106.59,-896.49C100.32,-892.66 94.32,-887.86 90,-882 35.25,-807.73 27.74,-693.14 27.41,-640.37"/>
<polygon fill="black" stroke="black" points="30.92,-640.1 27.44,-630.09 23.92,-640.08 30.92,-640.1"/>
</g>
<!-- ItemMoveMultiple -->
<g id="node15" class="node">
<title>ItemMoveMultiple</title>
<polygon fill="#2980b9" stroke="#2980b9" points="184.5,-873 90.5,-873 90.5,-837 184.5,-837 184.5,-873"/>
<text text-anchor="middle" x="137.5" y="-852.5" font-family="Sans" font-size="10.00" fill="#ffffff">ItemMoveMultiple</text>
</g>
<!-- ItemMoveMultiple&#45;&gt;MosFile -->
<g id="edge14" class="edge">
<title>ItemMoveMultiple&#45;&gt;MosFile</title>
<path fill="none" stroke="black" d="M98.84,-836.78C95.56,-834.16 92.53,-831.24 90,-828 45.9,-771.43 33.17,-684.72 29.49,-640.33"/>
<polygon fill="black" stroke="black" points="32.97,-639.97 28.75,-630.25 25.99,-640.48 32.97,-639.97"/>
</g>
<!-- ItemReplace -->
<g id="node16" class="node">
<title>ItemReplace</title>
<polygon fill="#2980b9" stroke="#2980b9" points="173.5,-819 101.5,-819 101.5,-783 173.5,-783 173.5,-819"/>
<text text-anchor="middle" x="137.5" y="-798.5" font-family="Sans" font-size="10.00" fill="#ffffff">ItemReplace</text>
</g>
<!-- ItemReplace&#45;&gt;MosFile -->
<g id="edge15" class="edge">
<title>ItemReplace&#45;&gt;MosFile</title>
<path fill="none" stroke="black" d="M101.44,-784.27C97.23,-781.26 93.27,-777.84 90,-774 56.39,-734.51 39.95,-674.86 32.78,-640.02"/>
<polygon fill="black" stroke="black" points="36.19,-639.21 30.84,-630.06 29.31,-640.55 36.19,-639.21"/>
</g>
<!-- MetaDataReplace -->
<g id="node17" class="node">
<title>MetaDataReplace</title>
<polygon fill="#2980b9" stroke="#2980b9" points="185,-765 90,-765 90,-729 185,-729 185,-765"/>
<text text-anchor="middle" x="137.5" y="-744.5" font-family="Sans" font-size="10.00" fill="#ffffff">MetaDataReplace</text>
</g>
<!-- MetaDataReplace&#45;&gt;MosFile -->
<g id="edge16" class="edge">
<title>MetaDataReplace&#45;&gt;MosFile</title>
<path fill="none" stroke="black" d="M100.55,-728.78C96.77,-726.11 93.16,-723.18 90,-720 66.92,-696.8 49.45,-663.28 39.04,-639.75"/>
<polygon fill="black" stroke="black" points="42.16,-638.15 35.01,-630.34 35.72,-640.91 42.16,-638.15"/>
</g>
<!-- RunningOrder -->
<g id="node18" class="node">
<title>RunningOrder</title>
<polygon fill="#2980b9" stroke="#2980b9" points="176,-711 99,-711 99,-675 176,-675 176,-711"/>
<text text-anchor="middle" x="137.5" y="-690.5" font-family="Sans" font-size="10.00" fill="#ffffff">RunningOrder</text>
</g>
<!-- RunningOrder&#45;&gt;MosFile -->
<g id="edge17" class="edge">
<title>RunningOrder&#45;&gt;MosFile</title>
<path fill="none" stroke="black" d="M103.49,-674.88C98.87,-672.05 94.25,-669.04 90,-666 77.67,-657.17 64.9,-646.38 54.18,-636.76"/>
<polygon fill="black" stroke="black" points="56.51,-634.16 46.76,-630.02 51.8,-639.33 56.51,-634.16"/>
</g>
<!-- RunningOrderEnd -->
<g id="node19" class="node">
<title>RunningOrderEnd</title>
<polygon fill="#2980b9" stroke="#2980b9" points="184.5,-657 90.5,-657 90.5,-621 184.5,-621 184.5,-657"/>
<text text-anchor="middle" x="137.5" y="-636.5" font-family="Sans" font-size="10.00" fill="#ffffff">RunningOrderEnd</text>
</g>
<!-- RunningOrderEnd&#45;&gt;MosFile -->
<g id="edge18" class="edge">
<title>RunningOrderEnd&#45;&gt;MosFile</title>
<path fill="none" stroke="black" d="M90.49,-627.55C81.7,-625.36 72.62,-623.1 64.19,-621.01"/>
<polygon fill="black" stroke="black" points="64.85,-617.56 54.3,-618.55 63.16,-624.36 64.85,-617.56"/>
</g>
<!-- RunningOrderReplace -->
<g id="node20" class="node">
<title>RunningOrderReplace</title>
<polygon fill="#2980b9" stroke="#2980b9" points="334,-711 221,-711 221,-675 334,-675 334,-711"/>
<text text-anchor="middle" x="277.5" y="-690.5" font-family="Sans" font-size="10.00" fill="#ffffff">RunningOrderReplace</text>
</g>
<!-- RunningOrderReplace&#45;&gt;RunningOrder -->
<g id="edge19" class="edge">
<title>RunningOrderReplace&#45;&gt;RunningOrder</title>
<path fill="none" stroke="black" d="M220.77,-693C209.43,-693 197.6,-693 186.55,-693"/>
<polygon fill="black" stroke="black" points="186.25,-689.5 176.25,-693 186.25,-696.5 186.25,-689.5"/>
</g>
<!-- StoryAppend -->
<g id="node21" class="node">
<title>StoryAppend</title>
<polygon fill="#2980b9" stroke="#2980b9" points="174,-603 101,-603 101,-567 174,-567 174,-603"/>
<text text-anchor="middle" x="137.5" y="-582.5" font-family="Sans" font-size="10.00" fill="#ffffff">StoryAppend</text>
</g>
<!-- StoryAppend&#45;&gt;MosFile -->
<g id="edge20" class="edge">
<title>StoryAppend&#45;&gt;MosFile</title>
<path fill="none" stroke="black" d="M100.97,-593.84C89.21,-596.77 76.12,-600.03 64.3,-602.97"/>
<polygon fill="black" stroke="black" points="63.17,-599.64 54.31,-605.45 64.86,-606.43 63.17,-599.64"/>
</g>
<!-- StoryDelete -->
<g id="node22" class="node">
<title>StoryDelete</title>
<polygon fill="#2980b9" stroke="#2980b9" points="171.5,-549 103.5,-549 103.5,-513 171.5,-513 171.5,-549"/>
<text text-anchor="middle" x="137.5" y="-528.5" font-family="Sans" font-size="10.00" fill="#ffffff">StoryDelete</text>
</g>
<!-- StoryDelete&#45;&gt;MosFile -->
<g id="edge21" class="edge">
<title>StoryDelete&#45;&gt;MosFile</title>
<path fill="none" stroke="black" d="M103.49,-549.12C98.87,-551.95 94.25,-554.96 90,-558 77.67,-566.83 64.9,-577.62 54.18,-587.24"/>
<polygon fill="black" stroke="black" points="51.8,-584.67 46.76,-593.98 56.51,-589.84 51.8,-584.67"/>
</g>
<!-- StoryInsert -->
<g id="node23" class="node">
<title>StoryInsert</title>
<polygon fill="#2980b9" stroke="#2980b9" points="170,-495 105,-495 105,-459 170,-459 170,-495"/>
<text text-anchor="middle" x="137.5" y="-474.5" font-family="Sans" font-size="10.00" fill="#ffffff">StoryInsert</text>
</g>
<!-- StoryInsert&#45;&gt;MosFile -->
<g id="edge22" class="edge">
<title>StoryInsert&#45;&gt;MosFile</title>
<path fill="none" stroke="black" d="M104.86,-492.32C99.54,-495.72 94.35,-499.63 90,-504 66.92,-527.2 49.45,-560.72 39.04,-584.25"/>
<polygon fill="black" stroke="black" points="35.72,-583.09 35.01,-593.66 42.16,-585.85 35.72,-583.09"/>
</g>
<!-- StoryMove -->
<g id="node24" class="node">
<title>StoryMove</title>
<polygon fill="#2980b9" stroke="#2980b9" points="169.5,-441 105.5,-441 105.5,-405 169.5,-405 169.5,-441"/>
<text text-anchor="middle" x="137.5" y="-420.5" font-family="Sans" font-size="10.00" fill="#ffffff">StoryMove</text>
</g>
<!-- StoryMove&#45;&gt;MosFile -->
<g id="edge23" class="edge">
<title>StoryMove&#45;&gt;MosFile</title>
<path fill="none" stroke="black" d="M105.24,-437.17C99.63,-440.75 94.24,-445.02 90,-450 56.39,-489.49 39.95,-549.14 32.78,-583.98"/>
<polygon fill="black" stroke="black" points="29.31,-583.45 30.84,-593.94 36.19,-584.79 29.31,-583.45"/>
</g>
<!-- StoryReplace -->
<g id="node25" class="node">
<title>StoryReplace</title>
<polygon fill="#2980b9" stroke="#2980b9" points="175.5,-387 99.5,-387 99.5,-351 175.5,-351 175.5,-387"/>
<text text-anchor="middle" x="137.5" y="-366.5" font-family="Sans" font-size="10.00" fill="#ffffff">StoryReplace</text>
</g>
<!-- StoryReplace&#45;&gt;MosFile -->
<g id="edge24" class="edge">
<title>StoryReplace&#45;&gt;MosFile</title>
<path fill="none" stroke="black" d="M99.29,-386.86C95.83,-389.57 92.64,-392.61 90,-396 45.9,-452.57 33.17,-539.28 29.49,-583.67"/>
<polygon fill="black" stroke="black" points="25.99,-583.52 28.75,-593.75 32.97,-584.03 25.99,-583.52"/>
</g>
<!-- StorySend -->
<g id="node26" class="node">
<title>StorySend</title>
<polygon fill="#2980b9" stroke="#2980b9" points="168.5,-333 106.5,-333 106.5,-297 168.5,-297 168.5,-333"/>
<text text-anchor="middle" x="137.5" y="-312.5" font-family="Sans" font-size="10.00" fill="#ffffff">StorySend</text>
</g>
<!-- StorySend&#45;&gt;MosFile -->
<g id="edge25" class="edge">
<title>StorySend&#45;&gt;MosFile</title>
<path fill="none" stroke="black" d="M106.11,-327.8C100.02,-331.59 94.21,-336.29 90,-342 35.25,-416.27 27.74,-530.86 27.41,-583.63"/>
<polygon fill="black" stroke="black" points="23.92,-583.92 27.44,-593.91 30.92,-583.9 23.92,-583.92"/>
</g>
</g>
</svg>
