<?xml version="1.0" encoding="UTF-8" standalone="no"?>
<!DOCTYPE svg PUBLIC "-//W3C//DTD SVG 1.1//EN"
 "http://www.w3.org/Graphics/SVG/1.1/DTD/svg11.dtd">
<!-- Generated by graphviz version 2.43.0 (0)
 -->
<!-- Title: %3 Pages: 1 -->
<svg width="362pt" height="1043pt"
 viewBox="0.00 0.00 362.00 1043.00" xmlns="http://www.w3.org/2000/svg" xmlns:xlink="http://www.w3.org/1999/xlink">
<g id="graph0" class="graph" transform="scale(1 1) rotate(0) translate(4 1039)">
<title>%3</title>
<polygon fill="white" stroke="transparent" points="-4,4 -4,-1039 358,-1039 358,4 -4,4"/>
<!-- MosFile -->
<g id="node1" class="node">
<title>MosFile</title>
<polygon fill="#9ec6e0" stroke="#9ec6e0" points="54,-657 0,-657 0,-621 54,-621 54,-657"/>
<text text-anchor="middle" x="27" y="-636.5" font-family="Sans" font-size="10.00" fill="#000000">MosFile</text>
</g>
<!-- RunningOrder -->
<g id="node2" class="node">
<title>RunningOrder</title>
<polygon fill="#2980b9" stroke="#2980b9" points="184.5,-1035 101.5,-1035 101.5,-999 184.5,-999 184.5,-1035"/>
<text text-anchor="middle" x="143" y="-1014.5" font-family="Sans" font-size="10.00" fill="#ffffff">RunningOrder</text>
</g>
<!-- RunningOrder&#45;&gt;MosFile -->
<g id="edge1" class="edge">
<title>RunningOrder&#45;&gt;MosFile</title>
<path fill="none" stroke="black" d="M101.28,-1000.83C96.98,-997.77 93.07,-994.18 90,-990 52.2,-938.52 35.05,-741.88 29.82,-667.62"/>
<polygon fill="black" stroke="black" points="33.28,-666.93 29.11,-657.19 26.3,-667.4 33.28,-666.93"/>
</g>
<!-- StorySend -->
<g id="node3" class="node">
<title>StorySend</title>
<polygon fill="#2980b9" stroke="#2980b9" points="176,-981 110,-981 110,-945 176,-945 176,-981"/>
<text text-anchor="middle" x="143" y="-960.5" font-family="Sans" font-size="10.00" fill="#ffffff">StorySend</text>
</g>
<!-- StorySend&#45;&gt;MosFile -->
<g id="edge2" class="edge">
<title>StorySend&#45;&gt;MosFile</title>
<path fill="none" stroke="black" d="M109.84,-951.89C102.36,-947.93 95.1,-942.73 90,-936 57.81,-893.56 37.79,-732.82 30.8,-667.18"/>
<polygon fill="black" stroke="black" points="34.27,-666.72 29.75,-657.13 27.3,-667.44 34.27,-666.72"/>
</g>
<!-- MetaDataReplace -->
<g id="node4" class="node">
<title>MetaDataReplace</title>
<polygon fill="#2980b9" stroke="#2980b9" points="195,-927 91,-927 91,-891 195,-891 195,-927"/>
<text text-anchor="middle" x="143" y="-906.5" font-family="Sans" font-size="10.00" fill="#ffffff">MetaDataReplace</text>
</g>
<!-- MetaDataReplace&#45;&gt;MosFile -->
<g id="edge3" class="edge">
<title>MetaDataReplace&#45;&gt;MosFile</title>
<path fill="none" stroke="black" d="M99.31,-890.96C95.84,-888.32 92.66,-885.35 90,-882 38.92,-817.64 29.46,-716.11 28.01,-667.19"/>
<polygon fill="black" stroke="black" points="31.51,-666.96 27.81,-657.03 24.51,-667.1 31.51,-666.96"/>
</g>
<!-- StoryAppend -->
<g id="node5" class="node">
<title>StoryAppend</title>
<polygon fill="#2980b9" stroke="#2980b9" points="182.5,-873 103.5,-873 103.5,-837 182.5,-837 182.5,-873"/>
<text text-anchor="middle" x="143" y="-852.5" font-family="Sans" font-size="10.00" fill="#ffffff">StoryAppend</text>
</g>
<!-- StoryAppend&#45;&gt;MosFile -->
<g id="edge4" class="edge">
<title>StoryAppend&#45;&gt;MosFile</title>
<path fill="none" stroke="black" d="M103.39,-839.43C98.42,-836.21 93.75,-832.42 90,-828 49.95,-780.88 35.59,-707.2 30.58,-667.17"/>
<polygon fill="black" stroke="black" points="34.04,-666.6 29.43,-657.06 27.08,-667.39 34.04,-666.6"/>
</g>
<!-- StoryDelete -->
<g id="node6" class="node">
<title>StoryDelete</title>
<polygon fill="#2980b9" stroke="#2980b9" points="180,-819 106,-819 106,-783 180,-783 180,-819"/>
<text text-anchor="middle" x="143" y="-798.5" font-family="Sans" font-size="10.00" fill="#ffffff">StoryDelete</text>
</g>
<!-- StoryDelete&#45;&gt;MosFile -->
<g id="edge5" class="edge">
<title>StoryDelete&#45;&gt;MosFile</title>
<path fill="none" stroke="black" d="M105.97,-786.33C100.16,-782.88 94.56,-778.79 90,-774 60.88,-743.43 43.65,-696.76 35.01,-667.07"/>
<polygon fill="black" stroke="black" points="38.35,-666.04 32.31,-657.34 31.61,-667.91 38.35,-666.04"/>
</g>
<!-- ItemDelete -->
<g id="node7" class="node">
<title>ItemDelete</title>
<polygon fill="#2980b9" stroke="#2980b9" points="178.5,-765 107.5,-765 107.5,-729 178.5,-729 178.5,-765"/>
<text text-anchor="middle" x="143" y="-744.5" font-family="Sans" font-size="10.00" fill="#ffffff">ItemDelete</text>
</g>
<!-- ItemDelete&#45;&gt;MosFile -->
<g id="edge6" class="edge">
<title>ItemDelete&#45;&gt;MosFile</title>
<path fill="none" stroke="black" d="M107.36,-731.74C101.27,-728.32 95.22,-724.38 90,-720 71.63,-704.59 55.35,-682.82 44.09,-665.73"/>
<polygon fill="black" stroke="black" points="47.01,-663.81 38.67,-657.28 41.12,-667.59 47.01,-663.81"/>
</g>
<!-- StoryInsert -->
<g id="node8" class="node">
<title>StoryInsert</title>
<polygon fill="#2980b9" stroke="#2980b9" points="178,-711 108,-711 108,-675 178,-675 178,-711"/>
<text text-anchor="middle" x="143" y="-690.5" font-family="Sans" font-size="10.00" fill="#ffffff">StoryInsert</text>
</g>
<!-- StoryInsert&#45;&gt;MosFile -->
<g id="edge7" class="edge">
<title>StoryInsert&#45;&gt;MosFile</title>
<path fill="none" stroke="black" d="M107.8,-676.8C93.83,-670.18 77.69,-662.54 63.59,-655.86"/>
<polygon fill="black" stroke="black" points="64.74,-652.53 54.21,-651.41 61.74,-658.86 64.74,-652.53"/>
</g>
<!-- ItemInsert -->
<g id="node9" class="node">
<title>ItemInsert</title>
<polygon fill="#2980b9" stroke="#2980b9" points="176.5,-657 109.5,-657 109.5,-621 176.5,-621 176.5,-657"/>
<text text-anchor="middle" x="143" y="-636.5" font-family="Sans" font-size="10.00" fill="#ffffff">ItemInsert</text>
</g>
<!-- ItemInsert&#45;&gt;MosFile -->
<g id="edge8" class="edge">
<title>ItemInsert&#45;&gt;MosFile</title>
<path fill="none" stroke="black" d="M109.33,-639C95.25,-639 78.73,-639 64.27,-639"/>
<polygon fill="black" stroke="black" points="64.16,-635.5 54.16,-639 64.16,-642.5 64.16,-635.5"/>
</g>
<!-- StoryMove -->
<g id="node10" class="node">
<title>StoryMove</title>
<polygon fill="#2980b9" stroke="#2980b9" points="177.5,-603 108.5,-603 108.5,-567 177.5,-567 177.5,-603"/>
<text text-anchor="middle" x="143" y="-582.5" font-family="Sans" font-size="10.00" fill="#ffffff">StoryMove</text>
</g>
<!-- StoryMove&#45;&gt;MosFile -->
<g id="edge9" class="edge">
<title>StoryMove&#45;&gt;MosFile</title>
<path fill="none" stroke="black" d="M108.41,-600.91C94.19,-607.65 77.61,-615.5 63.22,-622.32"/>
<polygon fill="black" stroke="black" points="61.66,-619.18 54.12,-626.63 64.65,-625.51 61.66,-619.18"/>
</g>
<!-- ItemMoveMultiple -->
<g id="node11" class="node">
<title>ItemMoveMultiple</title>
<polygon fill="#2980b9" stroke="#2980b9" points="196,-549 90,-549 90,-513 196,-513 196,-549"/>
<text text-anchor="middle" x="143" y="-528.5" font-family="Sans" font-size="10.00" fill="#ffffff">ItemMoveMultiple</text>
</g>
<!-- ItemMoveMultiple&#45;&gt;MosFile -->
<g id="edge10" class="edge">
<title>ItemMoveMultiple&#45;&gt;MosFile</title>
<path fill="none" stroke="black" d="M102.47,-549.13C98.08,-551.83 93.82,-554.8 90,-558 71.63,-573.41 55.35,-595.18 44.09,-612.27"/>
<polygon fill="black" stroke="black" points="41.12,-610.41 38.67,-620.72 47.01,-614.19 41.12,-610.41"/>
</g>
<!-- StoryReplace -->
<g id="node12" class="node">
<title>StoryReplace</title>
<polygon fill="#2980b9" stroke="#2980b9" points="183.5,-495 102.5,-495 102.5,-459 183.5,-459 183.5,-495"/>
<text text-anchor="middle" x="143" y="-474.5" font-family="Sans" font-size="10.00" fill="#ffffff">StoryReplace</text>
</g>
<!-- StoryReplace&#45;&gt;MosFile -->
<g id="edge11" class="edge">
<title>StoryReplace&#45;&gt;MosFile</title>
<path fill="none" stroke="black" d="M102.25,-493.99C97.8,-496.91 93.58,-500.24 90,-504 60.88,-534.57 43.65,-581.24 35.01,-610.93"/>
<polygon fill="black" stroke="black" points="31.61,-610.09 32.31,-620.66 38.35,-611.96 31.61,-610.09"/>
</g>
<!-- ItemReplace -->
<g id="node13" class="node">
<title>ItemReplace</title>
<polygon fill="#2980b9" stroke="#2980b9" points="182,-441 104,-441 104,-405 182,-405 182,-441"/>
<text text-anchor="middle" x="143" y="-420.5" font-family="Sans" font-size="10.00" fill="#ffffff">ItemReplace</text>
</g>
<!-- ItemReplace&#45;&gt;MosFile -->
<g id="edge12" class="edge">
<title>ItemReplace&#45;&gt;MosFile</title>
<path fill="none" stroke="black" d="M103.92,-438.23C98.74,-441.53 93.89,-445.43 90,-450 49.95,-497.12 35.59,-570.8 30.58,-610.83"/>
<polygon fill="black" stroke="black" points="27.08,-610.61 29.43,-620.94 34.04,-611.4 27.08,-610.61"/>
</g>
<!-- ReadyToAir -->
<g id="node14" class="node">
<title>ReadyToAir</title>
<polygon fill="#2980b9" stroke="#2980b9" points="178.5,-387 107.5,-387 107.5,-351 178.5,-351 178.5,-387"/>
<text text-anchor="middle" x="143" y="-366.5" font-family="Sans" font-size="10.00" fill="#ffffff">ReadyToAir</text>
</g>
<!-- ReadyToAir&#45;&gt;MosFile -->
<g id="edge13" class="edge">
<title>ReadyToAir&#45;&gt;MosFile</title>
<path fill="none" stroke="black" d="M107.35,-381.75C100.83,-385.49 94.62,-390.18 90,-396 38.92,-460.36 29.46,-561.89 28.01,-610.81"/>
<polygon fill="black" stroke="black" points="24.51,-610.9 27.81,-620.97 31.51,-611.04 24.51,-610.9"/>
</g>
<!-- RunningOrderReplace -->
<g id="node15" class="node">
<title>RunningOrderReplace</title>
<polygon fill="#2980b9" stroke="#2980b9" points="354,-1035 232,-1035 232,-999 354,-999 354,-1035"/>
<text text-anchor="middle" x="293" y="-1014.5" font-family="Sans" font-size="10.00" fill="#ffffff">RunningOrderReplace</text>
</g>
<!-- RunningOrderReplace&#45;&gt;RunningOrder -->
<g id="edge14" class="edge">
<title>RunningOrderReplace&#45;&gt;RunningOrder</title>
<path fill="none" stroke="black" d="M231.8,-1017C219.55,-1017 206.77,-1017 194.87,-1017"/>
<polygon fill="black" stroke="black" points="194.69,-1013.5 184.69,-1017 194.69,-1020.5 194.69,-1013.5"/>
</g>
<!-- RunningOrderEnd -->
<g id="node16" class="node">
<title>RunningOrderEnd</title>
<polygon fill="#2980b9" stroke="#2980b9" points="193.5,-333 92.5,-333 92.5,-297 193.5,-297 193.5,-333"/>
<text text-anchor="middle" x="143" y="-312.5" font-family="Sans" font-size="10.00" fill="#ffffff">RunningOrderEnd</text>
</g>
<!-- RunningOrderEnd&#45;&gt;MosFile -->
<g id="edge15" class="edge">
<title>RunningOrderEnd&#45;&gt;MosFile</title>
<path fill="none" stroke="black" d="M98.66,-333.3C95.42,-335.87 92.46,-338.76 90,-342 57.81,-384.44 37.79,-545.18 30.8,-610.82"/>
<polygon fill="black" stroke="black" points="27.3,-610.56 29.75,-620.87 34.27,-611.28 27.3,-610.56"/>
</g>
<!-- ElementAction -->
<g id="node17" class="node">
<title>ElementAction</title>
<polygon fill="#9ec6e0" stroke="#9ec6e0" points="187,-279 99,-279 99,-243 187,-243 187,-279"/>
<text text-anchor="middle" x="143" y="-258.5" font-family="Sans" font-size="10.00" fill="#000000">ElementAction</text>
</g>
<!-- ElementAction&#45;&gt;MosFile -->
<g id="edge16" class="edge">
<title>ElementAction&#45;&gt;MosFile</title>
<path fill="none" stroke="black" d="M98.56,-279.22C95.33,-281.81 92.41,-284.72 90,-288 52.2,-339.48 35.05,-536.12 29.82,-610.38"/>
<polygon fill="black" stroke="black" points="26.3,-610.6 29.11,-620.81 33.28,-611.07 26.3,-610.6"/>
</g>
<!-- EAStoryReplace -->
<g id="node18" class="node">
<title>EAStoryReplace</title>
<polygon fill="#2980b9" stroke="#2980b9" points="340,-522 246,-522 246,-486 340,-486 340,-522"/>
<text text-anchor="middle" x="293" y="-501.5" font-family="Sans" font-size="10.00" fill="#ffffff">EAStoryReplace</text>
</g>
<!-- EAStoryReplace&#45;&gt;ElementAction -->
<g id="edge17" class="edge">
<title>EAStoryReplace&#45;&gt;ElementAction</title>
<path fill="none" stroke="black" d="M245.73,-488.96C240.52,-485.69 235.75,-481.75 232,-477 179.03,-409.87 247.07,-356.58 196,-288 195.62,-287.49 195.23,-286.99 194.82,-286.5"/>
<polygon fill="black" stroke="black" points="197,-283.73 187.4,-279.26 192.12,-288.74 197,-283.73"/>
</g>
<!-- EAItemReplace -->
<g id="node19" class="node">
<title>EAItemReplace</title>
<polygon fill="#2980b9" stroke="#2980b9" points="338.5,-468 247.5,-468 247.5,-432 338.5,-432 338.5,-468"/>
<text text-anchor="middle" x="293" y="-447.5" font-family="Sans" font-size="10.00" fill="#ffffff">EAItemReplace</text>
</g>
<!-- EAItemReplace&#45;&gt;ElementAction -->
<g id="edge18" class="edge">
<title>EAItemReplace&#45;&gt;ElementAction</title>
<path fill="none" stroke="black" d="M247.24,-435.41C241.53,-432.05 236.22,-427.96 232,-423 191.79,-375.68 234.86,-336.43 196,-288 195.42,-287.27 194.81,-286.56 194.17,-285.87"/>
<polygon fill="black" stroke="black" points="196.42,-283.18 186.65,-279.07 191.73,-288.37 196.42,-283.18"/>
</g>
<!-- EAStoryDelete -->
<g id="node20" class="node">
<title>EAStoryDelete</title>
<polygon fill="#2980b9" stroke="#2980b9" points="336.5,-414 249.5,-414 249.5,-378 336.5,-378 336.5,-414"/>
<text text-anchor="middle" x="293" y="-393.5" font-family="Sans" font-size="10.00" fill="#ffffff">EAStoryDelete</text>
</g>
<!-- EAStoryDelete&#45;&gt;ElementAction -->
<g id="edge19" class="edge">
<title>EAStoryDelete&#45;&gt;ElementAction</title>
<path fill="none" stroke="black" d="M249.46,-381.63C243.09,-378.19 237,-374.02 232,-369 204.21,-341.08 223,-316.69 196,-288 195.23,-287.19 194.44,-286.39 193.61,-285.62"/>
<polygon fill="black" stroke="black" points="195.59,-282.72 185.61,-279.18 191.21,-288.17 195.59,-282.72"/>
</g>
<!-- EAItemDelete -->
<g id="node21" class="node">
<title>EAItemDelete</title>
<polygon fill="#2980b9" stroke="#2980b9" points="335,-360 251,-360 251,-324 335,-324 335,-360"/>
<text text-anchor="middle" x="293" y="-339.5" font-family="Sans" font-size="10.00" fill="#ffffff">EAItemDelete</text>
</g>
<!-- EAItemDelete&#45;&gt;ElementAction -->
<g id="edge20" class="edge">
<title>EAItemDelete&#45;&gt;ElementAction</title>
<path fill="none" stroke="black" d="M250.72,-324.88C244.33,-321.82 237.9,-318.48 232,-315 214.78,-304.83 212.93,-298.64 196,-288 194.04,-286.77 192.02,-285.54 189.96,-284.33"/>
<polygon fill="black" stroke="black" points="191.22,-281.02 180.79,-279.14 187.77,-287.11 191.22,-281.02"/>
</g>
<!-- EAStoryInsert -->
<g id="node22" class="node">
<title>EAStoryInsert</title>
<polygon fill="#2980b9" stroke="#2980b9" points="334.5,-306 251.5,-306 251.5,-270 334.5,-270 334.5,-306"/>
<text text-anchor="middle" x="293" y="-285.5" font-family="Sans" font-size="10.00" fill="#ffffff">EAStoryInsert</text>
</g>
<!-- EAStoryInsert&#45;&gt;ElementAction -->
<g id="edge21" class="edge">
<title>EAStoryInsert&#45;&gt;ElementAction</title>
<path fill="none" stroke="black" d="M251.17,-280.55C234.5,-277.51 215.01,-273.95 197.25,-270.71"/>
<polygon fill="black" stroke="black" points="197.49,-267.2 187.03,-268.85 196.24,-274.09 197.49,-267.2"/>
</g>
<!-- EAItemInsert -->
<g id="node23" class="node">
<title>EAItemInsert</title>
<polygon fill="#2980b9" stroke="#2980b9" points="333,-252 253,-252 253,-216 333,-216 333,-252"/>
<text text-anchor="middle" x="293" y="-231.5" font-family="Sans" font-size="10.00" fill="#ffffff">EAItemInsert</text>
</g>
<!-- EAItemInsert&#45;&gt;ElementAction -->
<g id="edge22" class="edge">
<title>EAItemInsert&#45;&gt;ElementAction</title>
<path fill="none" stroke="black" d="M252.73,-241.16C235.67,-244.28 215.44,-247.97 197.08,-251.32"/>
<polygon fill="black" stroke="black" points="196.31,-247.9 187.1,-253.14 197.57,-254.79 196.31,-247.9"/>
</g>
<!-- EAStorySwap -->
<g id="node24" class="node">
<title>EAStorySwap</title>
<polygon fill="#2980b9" stroke="#2980b9" points="333.5,-198 252.5,-198 252.5,-162 333.5,-162 333.5,-198"/>
<text text-anchor="middle" x="293" y="-177.5" font-family="Sans" font-size="10.00" fill="#ffffff">EAStorySwap</text>
</g>
<!-- EAStorySwap&#45;&gt;ElementAction -->
<g id="edge23" class="edge">
<title>EAStorySwap&#45;&gt;ElementAction</title>
<path fill="none" stroke="black" d="M252.28,-197.01C245.44,-200.18 238.46,-203.58 232,-207 214.65,-216.18 196.04,-227.39 180.42,-237.21"/>
<polygon fill="black" stroke="black" points="178.17,-234.49 171.61,-242.8 181.93,-240.4 178.17,-234.49"/>
</g>
<!-- EAItemSwap -->
<g id="node25" class="node">
<title>EAItemSwap</title>
<polygon fill="#2980b9" stroke="#2980b9" points="332,-144 254,-144 254,-108 332,-108 332,-144"/>
<text text-anchor="middle" x="293" y="-123.5" font-family="Sans" font-size="10.00" fill="#ffffff">EAItemSwap</text>
</g>
<!-- EAItemSwap&#45;&gt;ElementAction -->
<g id="edge24" class="edge">
<title>EAItemSwap&#45;&gt;ElementAction</title>
<path fill="none" stroke="black" d="M253.99,-139.88C246.33,-143.54 238.61,-147.92 232,-153 202.41,-175.73 176.52,-210.29 160.62,-234.17"/>
<polygon fill="black" stroke="black" points="157.56,-232.46 155.03,-242.75 163.42,-236.28 157.56,-232.46"/>
</g>
<!-- EAStoryMove -->
<g id="node26" class="node">
<title>EAStoryMove</title>
<polygon fill="#2980b9" stroke="#2980b9" points="334,-90 252,-90 252,-54 334,-54 334,-90"/>
<text text-anchor="middle" x="293" y="-69.5" font-family="Sans" font-size="10.00" fill="#ffffff">EAStoryMove</text>
</g>
<!-- EAStoryMove&#45;&gt;ElementAction -->
<g id="edge25" class="edge">
<title>EAStoryMove&#45;&gt;ElementAction</title>
<path fill="none" stroke="black" d="M251.98,-85.59C244.8,-89.21 237.78,-93.64 232,-99 191.32,-136.75 165.38,-197.67 152.87,-233.07"/>
<polygon fill="black" stroke="black" points="149.48,-232.16 149.56,-242.76 156.1,-234.43 149.48,-232.16"/>
</g>
<!-- EAItemMove -->
<g id="node27" class="node">
<title>EAItemMove</title>
<polygon fill="#2980b9" stroke="#2980b9" points="332.5,-36 253.5,-36 253.5,0 332.5,0 332.5,-36"/>
<text text-anchor="middle" x="293" y="-15.5" font-family="Sans" font-size="10.00" fill="#ffffff">EAItemMove</text>
</g>
<!-- EAItemMove&#45;&gt;ElementAction -->
<g id="edge26" class="edge">
<title>EAItemMove&#45;&gt;ElementAction</title>
<path fill="none" stroke="black" d="M253.35,-30.16C245.56,-33.96 237.95,-38.83 232,-45 179.95,-98.96 157.16,-187.86 148.53,-232.93"/>
<polygon fill="black" stroke="black" points="145.06,-232.42 146.72,-242.88 151.95,-233.67 145.06,-232.42"/>
</g>
</g>
</svg>
